<svg width="12" height="12" viewBox="0 0 12 12" fill="none" xmlns="http://www.w3.org/2000/svg">
<g clip-path="url(#clip0_3257_189106)">
<mask id="mask0_3257_189106" style="mask-type:luminance" maskUnits="userSpaceOnUse" x="0" y="0" width="12" height="12">
<path d="M12 0H0V12H12V0Z" fill="white"/>
</mask>
<g mask="url(#mask0_3257_189106)">
<path d="M11.1117 0H0.885937C0.396094 0 0 0.386719 0 0.864844V11.1328C0 11.6109 0.396094 12 0.885937 12H11.1117C11.6016 12 12 11.6109 12 11.1351V0.864844C12 0.386719 11.6016 0 11.1117 0ZM3.56015 10.2258H1.77891V4.49764H3.56015V10.2258ZM2.66952 3.7172C2.09766 3.7172 1.63594 3.25548 1.63594 2.68593C1.63594 2.11641 2.09766 1.65469 2.66952 1.65469C3.23907 1.65469 3.70077 2.11641 3.70077 2.68593C3.70077 3.25312 3.23907 3.7172 2.66952 3.7172ZM10.2258 10.2258H8.44687V7.44139C8.44687 6.77813 8.43514 5.92264 7.52111 5.92264C6.59531 5.92264 6.45469 6.64688 6.45469 7.39451V10.2258H4.67813V4.49764H6.38437V5.28049H6.40781C6.64451 4.83049 7.22576 4.35469 8.09063 4.35469C9.89299 4.35469 10.2258 5.54063 10.2258 7.08281V10.2258Z" fill="white"/>
</g>
</g>
<defs>
<clipPath id="clip0_3257_189106">
<rect width="12" height="12" fill="white"/>
</clipPath>
</defs>
</svg>
