<svg width="12" height="12" viewBox="0 0 12 12" fill="none" xmlns="http://www.w3.org/2000/svg">
<g clip-path="url(#clip0_3257_189112)">
<mask id="mask0_3257_189112" style="mask-type:luminance" maskUnits="userSpaceOnUse" x="0" y="0" width="12" height="12">
<path d="M12 0H0V12H12V0Z" fill="white"/>
</mask>
<g mask="url(#mask0_3257_189112)">
<path d="M6 0C2.68638 0 0 2.6861 0 6C0 9.31391 2.68638 12 6 12C9.31361 12 12 9.31391 12 6C12 2.6861 9.31361 0 6 0ZM8.92729 8.64938C8.83091 8.82 8.65365 8.916 8.47091 8.916C8.38545 8.916 8.29729 8.89463 8.21636 8.84963C7.46726 8.42963 6.65092 8.17237 5.78816 8.085C4.92364 7.99837 4.06999 8.08609 3.25 8.34791C2.97637 8.43529 2.68182 8.28409 2.59455 8.01C2.50638 7.73546 2.65818 7.44191 2.93273 7.35409C3.88909 7.04854 4.88636 6.94462 5.89361 7.047C6.89906 7.14937 7.85182 7.44938 8.72636 7.93954C8.97817 8.07971 9.06818 8.39771 8.92729 8.64938ZM9.64545 6.82691C9.55271 7.00537 9.37091 7.10771 9.18274 7.10771C9.10091 7.10771 9.01909 7.089 8.94184 7.04854C8.02091 6.56891 7.02634 6.27191 5.98361 6.16609C4.93271 6.05854 3.89182 6.15229 2.88817 6.44171C2.6109 6.52046 2.32182 6.36191 2.24273 6.08471C2.16273 5.808 2.32272 5.51891 2.5991 5.439C3.73182 5.11237 4.90635 5.00771 6.0891 5.12771C7.26364 5.24737 8.38545 5.58191 9.42454 6.12338C9.67909 6.25654 9.7791 6.57146 9.64545 6.82691ZM9.90544 5.31071C9.82729 5.31071 9.74816 5.29309 9.67271 5.256C8.58 4.71109 7.40456 4.37171 6.17816 4.24729C4.95 4.12163 3.72817 4.21871 2.54545 4.53454C2.26727 4.60838 1.98182 4.44337 1.90727 4.16471C1.83273 3.88646 1.99819 3.60038 2.27728 3.5261C3.58182 3.17772 4.93091 3.07163 6.28455 3.20928C7.63639 3.3461 8.93273 3.72072 10.1382 4.32191C10.3964 4.45046 10.5009 4.764 10.3727 5.02162C10.2818 5.205 10.0973 5.31071 9.90544 5.31071Z" fill="white"/>
</g>
</g>
<defs>
<clipPath id="clip0_3257_189112">
<rect width="12" height="12" fill="white"/>
</clipPath>
</defs>
</svg>
