<svg width="12" height="12" viewBox="0 0 12 12" fill="none" xmlns="http://www.w3.org/2000/svg">
<g clip-path="url(#clip0_3257_189098)">
<mask id="mask0_3257_189098" style="mask-type:luminance" maskUnits="userSpaceOnUse" x="0" y="0" width="12" height="12">
<path d="M12 0H0V12H12V0Z" fill="white"/>
</mask>
<g mask="url(#mask0_3257_189098)">
<path d="M6 1.08047C7.60312 1.08047 7.79299 1.0875 8.42344 1.11563C9.00937 1.14141 9.32576 1.23984 9.53674 1.32188C9.81562 1.42969 10.0172 1.56094 10.2258 1.76953C10.4367 1.98047 10.5656 2.17969 10.6734 2.45859C10.7555 2.66952 10.8539 2.98827 10.8797 3.57188C10.9078 4.20469 10.9149 4.39451 10.9149 5.99531C10.9149 7.59844 10.9078 7.78826 10.8797 8.41875C10.8539 9.00469 10.7555 9.32111 10.6734 9.53201C10.5656 9.81094 10.4344 10.0125 10.2258 10.2211C10.0149 10.432 9.81562 10.5609 9.53674 10.6688C9.32576 10.7508 9.00701 10.8492 8.42344 10.875C7.79062 10.9031 7.60076 10.9101 6 10.9101C4.39687 10.9101 4.20701 10.9031 3.57657 10.875C2.99062 10.8492 2.67423 10.7508 2.46328 10.6688C2.18437 10.5609 1.98281 10.4297 1.77422 10.2211C1.56328 10.0101 1.43437 9.81094 1.32656 9.53201C1.24453 9.32111 1.14609 9.00236 1.12031 8.41875C1.09219 7.78594 1.08516 7.59611 1.08516 5.99531C1.08516 4.39219 1.09219 4.20236 1.12031 3.57188C1.14609 2.98593 1.24453 2.66952 1.32656 2.45859C1.43437 2.17969 1.56562 1.97813 1.77422 1.76953C1.98516 1.55859 2.18437 1.42969 2.46328 1.32188C2.67423 1.23984 2.99298 1.14141 3.57657 1.11563C4.20701 1.0875 4.39687 1.08047 6 1.08047ZM6 0C4.37111 0 4.16719 0.00703125 3.52735 0.0351563C2.88985 0.0632813 2.45156 0.166406 2.07187 0.314063C1.67578 0.46875 1.34062 0.672656 1.00781 1.00781C0.672656 1.34063 0.46875 1.67578 0.314062 2.06953C0.166406 2.45156 0.0632812 2.8875 0.0351562 3.525C0.00703125 4.16719 0 4.37111 0 6C0 7.62889 0.00703125 7.83281 0.0351562 8.47264C0.0632812 9.11014 0.166406 9.54844 0.314062 9.92813C0.46875 10.3242 0.672656 10.6594 1.00781 10.9922C1.34062 11.325 1.67578 11.5313 2.06953 11.6836C2.45156 11.8313 2.8875 11.9344 3.525 11.9625C4.16486 11.9906 4.36875 11.9976 5.99764 11.9976C7.62656 11.9976 7.83049 11.9906 8.47031 11.9625C9.10781 11.9344 9.54611 11.8313 9.92576 11.6836C10.3195 11.5313 10.6547 11.325 10.9875 10.9922C11.3203 10.6594 11.5266 10.3242 11.6789 9.93049C11.8266 9.54844 11.9297 9.1125 11.9578 8.475C11.9859 7.83514 11.993 7.63125 11.993 6.00236C11.993 4.37344 11.9859 4.16951 11.9578 3.5297C11.9297 2.8922 11.8266 2.45391 11.6789 2.07422C11.5312 1.67578 11.3274 1.34063 10.9922 1.00781C10.6594 0.675 10.3242 0.46875 9.93049 0.316405C9.54844 0.16875 9.1125 0.065625 8.475 0.0375C7.83281 0.00703125 7.62889 0 6 0Z" fill="white"/>
<path d="M6 2.91797C4.29844 2.91797 2.91797 4.29844 2.91797 6C2.91797 7.70156 4.29844 9.08201 6 9.08201C7.70156 9.08201 9.08201 7.70156 9.08201 6C9.08201 4.29844 7.70156 2.91797 6 2.91797ZM6 7.99924C4.89611 7.99924 4.00076 7.10389 4.00076 6C4.00076 4.89611 4.89611 4.00076 6 4.00076C7.10389 4.00076 7.99924 4.89611 7.99924 6C7.99924 7.10389 7.10389 7.99924 6 7.99924Z" fill="white"/>
<path d="M9.92344 2.79595C9.92344 3.19438 9.6 3.51548 9.20389 3.51548C8.80549 3.51548 8.48438 3.19206 8.48438 2.79595C8.48438 2.39751 8.80781 2.07642 9.20389 2.07642C9.6 2.07642 9.92344 2.39985 9.92344 2.79595Z" fill="white"/>
</g>
</g>
<defs>
<clipPath id="clip0_3257_189098">
<rect width="12" height="12" fill="white"/>
</clipPath>
</defs>
</svg>
