<svg width="133" height="32" viewBox="0 0 133 32" fill="none" xmlns="http://www.w3.org/2000/svg">
<path d="M127.758 21.056C127.694 21.344 127.662 21.6 127.662 21.792C127.662 22.208 127.79 22.432 128.11 22.432C128.782 22.432 130.094 21.312 131.31 19.456L131.79 19.808C130.126 22.4 128.078 24.032 126.606 24.032C125.614 24.032 125.134 23.424 125.134 22.4C125.134 21.984 125.23 21.536 125.358 20.992L127.054 14.624C124.782 19.872 122.35 24.032 119.054 24.032C117.518 24.032 115.822 23.104 115.822 19.936C115.822 14.496 120.846 8.09598 125.326 8.09598C126.638 8.09598 127.31 8.63998 127.854 9.34398L128.846 4.99198C128.91 4.70398 128.942 4.41598 128.942 4.19198C128.942 3.42398 128.558 3.03998 127.566 3.03998H127.022L127.118 2.46398L132.398 0.927979L127.758 21.056ZM118.638 19.2C118.638 21.472 119.47 22.112 120.366 22.112C123.15 22.112 126.35 15.872 127.726 10.368C127.15 9.15198 126.126 8.86398 125.39 8.86398C122.158 8.86398 118.638 14.528 118.638 19.2Z" fill="white"/>
<path d="M102.883 18.3359C102.883 13.7599 106.019 8.09595 111.459 8.09595C113.923 8.09595 115.395 9.24795 115.395 11.0399C115.395 13.8239 111.747 15.1359 105.827 16.3519C105.731 16.8959 105.699 17.4399 105.699 17.9519C105.699 20.3199 106.531 22.2079 108.547 22.2079C110.659 22.2079 112.675 20.6719 114.243 17.5039L114.755 17.8239C112.995 21.7599 110.179 24.0319 107.363 24.0319C104.355 24.0319 102.883 21.4399 102.883 18.3359ZM105.923 15.6799C110.403 14.8159 112.899 13.2479 112.899 10.7839C112.899 9.59995 112.323 8.79995 111.107 8.79995C108.579 8.79995 106.595 12.3519 105.923 15.6799Z" fill="white"/>
<path d="M89.7168 18.3359C89.7168 13.7599 92.8528 8.09595 98.2928 8.09595C100.757 8.09595 102.229 9.24795 102.229 11.0399C102.229 13.8239 98.5808 15.1359 92.6608 16.3519C92.5648 16.8959 92.5328 17.4399 92.5328 17.9519C92.5328 20.3199 93.3648 22.2079 95.3808 22.2079C97.4928 22.2079 99.5088 20.6719 101.077 17.5039L101.589 17.8239C99.8288 21.7599 97.0128 24.0319 94.1968 24.0319C91.1888 24.0319 89.7168 21.4399 89.7168 18.3359ZM92.7568 15.6799C97.2368 14.8159 99.7328 13.2479 99.7328 10.7839C99.7328 9.59995 99.1568 8.79995 97.9408 8.79995C95.4128 8.79995 93.4288 12.3519 92.7568 15.6799Z" fill="white"/>
<path d="M81.1802 9.216L81.3722 8.384H84.7322L84.8922 7.712C85.9162 3.424 89.2762 0 93.0522 0C94.6202 0 95.3562 0.608 95.3562 1.44C95.3562 2.304 94.5242 2.912 93.4682 2.912C92.4122 2.912 91.1322 2.176 90.3962 1.184C88.8922 2.56 88.2202 4.544 87.7082 6.72L87.3242 8.384H91.8042L91.5802 9.216H87.1642L84.6042 20.8C83.6762 25.024 80.5402 31.04 76.3162 31.04C75.0362 31.04 74.4922 30.464 74.4922 29.824C74.4922 28.928 75.4842 28.192 76.7322 28.192C77.6922 28.192 78.4602 28.608 79.0362 29.408C79.9002 28.544 81.2762 24.192 81.7882 21.856L84.5402 9.216H81.1802Z" fill="white"/>
<path d="M70.2519 2.46398L75.5319 0.927979L70.9239 20.896C70.8599 21.216 70.7639 21.568 70.7639 21.856C70.7639 22.176 70.8599 22.432 71.2119 22.432C71.9159 22.432 73.1959 21.312 74.4119 19.456L74.8919 19.808C73.2279 22.4 71.2119 24.032 69.7079 24.032C68.6199 24.032 68.1719 23.36 68.1719 22.208C68.1719 21.76 68.2359 21.28 68.3639 20.704L71.9479 4.99198C72.0119 4.67198 72.0759 4.38398 72.0759 4.12798C72.0759 3.45598 71.7559 3.03998 70.6999 3.03998H70.1559L70.2519 2.46398Z" fill="white"/>
<path d="M63.1385 21.0559C63.0745 21.3439 63.0105 21.5999 63.0105 21.8239C63.0105 22.1759 63.1705 22.4319 63.5225 22.4319C64.2905 22.4319 65.4745 21.3759 66.7225 19.4559L67.2025 19.8079C65.8265 21.8559 64.1625 24.0319 62.2745 24.0319C61.0585 24.0319 60.6105 23.0719 60.6105 21.9199C60.6105 21.4719 60.6745 20.9919 60.8025 20.5119L62.1145 15.5199C59.7145 20.7039 57.7305 24.0319 54.6265 24.0319C52.3545 24.0319 51.3945 22.1439 51.3945 19.9359C51.3945 15.1359 55.8745 8.09595 60.8665 8.09595C62.7865 8.09595 63.3625 9.11995 63.7145 9.85595L64.9625 8.38395H66.1465L63.1385 21.0559ZM54.2105 19.2959C54.2105 21.4079 55.0745 22.1119 55.9705 22.1119C58.6585 22.1119 61.8585 15.5519 63.1705 10.3359C62.6585 9.18395 61.7625 8.86395 60.9305 8.86395C57.1865 8.86395 54.2105 15.3279 54.2105 19.2959Z" fill="white"/>
<path d="M47.1794 21.0559C47.1154 21.3439 47.0834 21.6319 47.0834 21.8239C47.0834 22.2079 47.2114 22.4319 47.5634 22.4319C48.2354 22.4319 49.5154 21.3119 50.7314 19.4559L51.2114 19.8079C49.8674 21.7919 48.0114 24.0319 46.2514 24.0319C45.1634 24.0319 44.7474 23.3919 44.7474 22.3999C44.7474 21.9839 44.8114 21.4719 44.9714 20.8959L46.6674 14.2399C43.4354 21.2799 40.7474 24.0319 38.6034 24.0319C36.8434 24.0319 36.0114 22.8479 36.0114 21.1839C36.0114 20.6079 36.1074 19.9999 36.2994 19.3279L38.6994 11.3599C38.7634 11.1039 38.8274 10.8799 38.8274 10.6559C38.8274 10.2719 38.6354 9.98395 38.2834 9.98395C37.6434 9.98395 36.3314 11.0079 35.3394 12.7679L34.8594 12.3839C36.5554 9.40795 38.3794 8.09595 39.7874 8.09595C41.0034 8.09595 41.5794 8.89595 41.5794 10.0479C41.5794 10.4319 41.4834 10.8799 41.3554 11.3599L39.0194 18.8479C38.8274 19.4559 38.7314 20.0319 38.7314 20.5119C38.7314 21.2799 38.9874 21.7919 39.7234 21.7919C41.4834 21.7919 45.3554 18.0159 47.8514 8.38395H50.0914L47.1794 21.0559Z" fill="white"/>
<path d="M33.2606 12.5759C33.2926 12.3839 33.2926 12.1599 33.2926 11.9679C33.2926 10.2079 32.0446 8.79995 30.3806 8.79995C29.0366 8.79995 27.7886 9.69595 27.7886 11.3279C27.7886 12.3199 28.2686 13.0879 29.0686 13.8559L31.4046 16.1599C32.5886 17.3119 32.9406 18.1439 32.9406 19.3919C32.9406 22.4959 30.5406 24.0319 27.8206 24.0319C26.1566 24.0319 24.3326 23.4559 22.8926 22.1759L23.7566 18.2719H24.3646C24.2366 18.7199 24.2046 19.1359 24.2046 19.5519C24.2046 21.7279 25.7406 23.2639 27.8526 23.2639C29.3886 23.2639 30.8606 22.4639 30.8606 20.8639C30.8606 19.8079 30.2526 18.9439 29.4206 18.1759L27.3406 16.2559C26.2206 15.2319 25.3246 13.9519 25.3246 12.2239C25.3246 9.43995 27.6926 8.09595 30.3486 8.09595C31.6926 8.09595 33.2926 8.41595 34.4766 9.18395L33.6766 12.5759H33.2606Z" fill="white"/>
<path d="M22.721 5.24803C21.601 5.24803 20.737 4.41603 20.737 3.26403C20.737 2.14403 21.569 1.28003 22.753 1.28003C23.873 1.28003 24.705 2.14403 24.705 3.26403C24.705 4.38403 23.873 5.24803 22.721 5.24803ZM15.873 12.384C17.537 9.47203 19.361 8.09603 20.769 8.09603C21.953 8.09603 22.593 8.86403 22.593 10.016C22.593 10.368 22.529 10.752 22.401 11.168L19.361 20.992C19.265 21.312 19.201 21.6 19.201 21.824C19.201 22.208 19.361 22.432 19.681 22.432C20.417 22.432 21.697 21.312 22.913 19.456L23.393 19.808C21.601 22.56 19.713 24.032 18.177 24.032C17.121 24.032 16.609 23.36 16.609 22.272C16.609 21.824 16.705 21.28 16.897 20.672L19.713 11.36C19.809 11.072 19.841 10.816 19.841 10.624C19.841 10.24 19.681 9.98403 19.361 9.98403C18.657 9.98403 17.345 11.008 16.353 12.768L15.873 12.384Z" fill="white"/>
<path d="M10.144 9.95195C6.528 12.3839 4.832 15.9359 4.832 18.4319C4.832 20.4159 5.92 21.6959 7.712 21.6959C10.528 21.6959 14.208 18.6239 14.496 12.5119C12.64 12.3199 11.616 10.9119 11.616 9.72795C11.616 8.86395 12.192 8.09595 13.216 8.09595C14.496 8.09595 15.168 9.27995 15.168 12.1279C15.168 19.0719 11.232 24.0319 6.464 24.0319C3.456 24.0319 1.984 22.0479 1.984 19.8079C1.984 17.1199 4.128 13.9519 7.008 12.1919C4.896 12.1919 3.904 10.9119 2.656 10.9119C1.344 10.9119 0.512 12.1919 0.704 13.6319L0.192 13.6959C0.064 13.1839 0 12.6399 0 12.0959C0 10.0159 0.96 8.09595 2.848 8.09595C5.024 8.09595 6.272 10.7199 7.392 10.7199C8 10.7199 8.736 10.2719 9.696 9.47195L10.144 9.95195Z" fill="white"/>
</svg>
