<svg width="130" height="38" viewBox="0 0 130 38" fill="none" xmlns="http://www.w3.org/2000/svg">
<path d="M107.344 24.9531C106.688 24.9531 106.193 24.7708 105.859 24.4062C105.526 24.0417 105.359 23.5417 105.359 22.9062C105.359 22.2083 105.51 21.4635 105.812 20.6719C106.125 19.8802 106.625 19.0938 107.312 18.3125C108.719 16.6771 110.052 15.5885 111.312 15.0469C112.573 14.4948 113.714 14.2188 114.734 14.2188C115.161 14.2188 115.583 14.3281 116 14.5469C116.427 14.7552 116.641 15.0729 116.641 15.5C116.641 15.5417 116.635 15.5833 116.625 15.625C116.625 15.6667 116.625 15.7135 116.625 15.7656C117.458 14.5573 118.443 13.1354 119.578 11.5C120.714 9.85417 121.964 8.05729 123.328 6.10938C124.703 4.16146 126.146 2.125 127.656 0C127.802 0.0625 127.99 0.119792 128.219 0.171875C128.448 0.223958 128.698 0.25 128.969 0.25C129.156 0.25 129.38 0.234375 129.641 0.203125L114.797 21.0156C114.193 21.8177 113.734 22.4583 113.422 22.9375C113.12 23.4167 112.969 23.7917 112.969 24.0625C112.969 24.3438 113.099 24.4844 113.359 24.4844C114.047 24.4844 114.74 24.3073 115.438 23.9531C116.135 23.5885 116.802 23.1354 117.438 22.5938C118.073 22.0417 118.651 21.4792 119.172 20.9062C119.703 20.3333 120.146 19.8333 120.5 19.4062C120.854 18.9688 121.089 18.6927 121.203 18.5781L121.547 18.8438C121.411 18.9792 121.151 19.2708 120.766 19.7188C120.391 20.1667 119.917 20.6875 119.344 21.2812C118.781 21.8646 118.156 22.4375 117.469 23C116.792 23.5625 116.078 24.0312 115.328 24.4062C114.589 24.7708 113.849 24.9531 113.109 24.9531C112.599 24.9531 112.234 24.8542 112.016 24.6562C111.797 24.4583 111.688 24.2031 111.688 23.8906C111.698 23.2656 112.323 22.2135 113.562 20.7344L113.438 20.6719C112.021 22.2448 110.807 23.3542 109.797 24C108.797 24.6354 107.979 24.9531 107.344 24.9531ZM107.453 24.4844C107.87 24.4844 108.38 24.3229 108.984 24C109.589 23.6771 110.37 23.0833 111.328 22.2188C111.734 21.8333 112.161 21.4167 112.609 20.9688C113.057 20.5208 113.521 20.0104 114 19.4375C114.146 19.2604 114.37 18.9583 114.672 18.5312C114.984 18.0938 115.365 17.5521 115.812 16.9062C116.052 16.4062 116.172 15.9844 116.172 15.6406C116.172 15.3177 116.047 15.0833 115.797 14.9375C115.547 14.7812 115.276 14.7031 114.984 14.7031C114.474 14.7031 113.672 15.0781 112.578 15.8281C111.495 16.5677 110.271 17.7448 108.906 19.3594C108.125 20.3073 107.557 21.1406 107.203 21.8594C106.849 22.5677 106.672 23.1719 106.672 23.6719C106.672 24.2135 106.932 24.4844 107.453 24.4844Z" fill="white"/>
<path d="M97.8913 25.0156C96.8704 25.0156 96.1413 24.75 95.7038 24.2188C95.2663 23.6875 95.0371 23.0365 95.0163 22.2656C95.0059 21.7031 95.1204 21.0781 95.36 20.3906C95.5996 19.7031 95.8496 19.1771 96.11 18.8125C96.8809 17.7396 97.7142 16.8646 98.61 16.1875C99.5059 15.5104 100.381 15.0156 101.235 14.7031C102.1 14.3802 102.86 14.2188 103.516 14.2188C104.152 14.2188 104.594 14.3229 104.844 14.5312C105.105 14.7396 105.24 14.9792 105.251 15.25C105.282 15.6562 105.063 16.1302 104.594 16.6719C104.136 17.2031 103.329 17.7812 102.173 18.4062C101.016 19.0312 99.4017 19.6875 97.3288 20.375C96.9642 20.9583 96.7194 21.4635 96.5944 21.8906C96.4694 22.3073 96.4069 22.6823 96.4069 23.0156C96.4069 23.5052 96.5684 23.8854 96.8913 24.1562C97.2246 24.4271 97.6152 24.5625 98.0632 24.5625C99.0423 24.5625 99.959 24.3802 100.813 24.0156C101.678 23.6406 102.464 23.1719 103.173 22.6094C103.891 22.0469 104.521 21.4792 105.063 20.9062C105.605 20.3229 106.048 19.8177 106.391 19.3906C106.735 18.9531 106.964 18.6823 107.079 18.5781L107.407 18.8438C107.251 18.9792 106.985 19.276 106.61 19.7344C106.245 20.1927 105.777 20.7188 105.204 21.3125C104.641 21.9062 103.99 22.4844 103.251 23.0469C102.511 23.6094 101.688 24.0781 100.782 24.4531C99.8861 24.8281 98.9225 25.0156 97.8913 25.0156ZM97.6882 19.8281C99.709 19.1198 101.303 18.3906 102.469 17.6406C103.636 16.8802 104.219 16.1562 104.219 15.4688C104.219 14.8854 103.949 14.5938 103.407 14.5938C102.709 14.5938 101.954 14.9688 101.141 15.7188C100.329 16.4688 99.3809 17.5573 98.2975 18.9844C98.0684 19.276 97.8652 19.5573 97.6882 19.8281Z" fill="white"/>
<path d="M87.5475 25.0156C86.5267 25.0156 85.7975 24.75 85.36 24.2188C84.9225 23.6875 84.6934 23.0365 84.6725 22.2656C84.6621 21.7031 84.7767 21.0781 85.0163 20.3906C85.2559 19.7031 85.5059 19.1771 85.7663 18.8125C86.5371 17.7396 87.3704 16.8646 88.2663 16.1875C89.1621 15.5104 90.0371 15.0156 90.8913 14.7031C91.7559 14.3802 92.5163 14.2188 93.1725 14.2188C93.8079 14.2188 94.2507 14.3229 94.5007 14.5312C94.7611 14.7396 94.8965 14.9792 94.9069 15.25C94.9382 15.6562 94.7194 16.1302 94.2507 16.6719C93.7923 17.2031 92.985 17.7812 91.8288 18.4062C90.6725 19.0312 89.0579 19.6875 86.985 20.375C86.6204 20.9583 86.3757 21.4635 86.2507 21.8906C86.1257 22.3073 86.0632 22.6823 86.0632 23.0156C86.0632 23.5052 86.2246 23.8854 86.5475 24.1562C86.8809 24.4271 87.2715 24.5625 87.7194 24.5625C88.6986 24.5625 89.6152 24.3802 90.4694 24.0156C91.334 23.6406 92.1204 23.1719 92.8288 22.6094C93.5475 22.0469 94.1777 21.4792 94.7194 20.9062C95.2611 20.3229 95.7038 19.8177 96.0475 19.3906C96.3913 18.9531 96.6204 18.6823 96.735 18.5781L97.0632 18.8438C96.9069 18.9792 96.6413 19.276 96.2663 19.7344C95.9017 20.1927 95.4329 20.7188 94.86 21.3125C94.2975 21.9062 93.6465 22.4844 92.9069 23.0469C92.1673 23.6094 91.3444 24.0781 90.4382 24.4531C89.5423 24.8281 88.5788 25.0156 87.5475 25.0156ZM87.3444 19.8281C89.3652 19.1198 90.959 18.3906 92.1257 17.6406C93.2923 16.8802 93.8757 16.1562 93.8757 15.4688C93.8757 14.8854 93.6048 14.5938 93.0632 14.5938C92.3652 14.5938 91.61 14.9688 90.7975 15.7188C89.985 16.4688 89.0371 17.5573 87.9538 18.9844C87.7246 19.276 87.5215 19.5573 87.3444 19.8281Z" fill="white"/>
<path d="M69.3744 37.2188C68.9473 37.2188 68.5879 37.0729 68.2963 36.7812C68.0046 36.5 67.8535 36.1406 67.8431 35.7031C67.8223 35.276 67.9004 34.7865 68.0775 34.2344C68.2442 33.6927 68.5827 32.9635 69.0931 32.0469C69.5931 31.1302 70.3223 29.9167 71.2806 28.4062C72.239 26.8958 73.4994 24.9688 75.0619 22.625L76.4838 20.4844C76.1713 19.9948 75.9577 19.5052 75.8431 19.0156C75.7285 18.526 75.6921 18.1354 75.7338 17.8438C75.7858 17.5104 75.9004 17.2396 76.0775 17.0312C76.265 16.8125 76.489 16.7031 76.7494 16.7031C76.989 16.7031 77.1869 16.7865 77.3431 16.9531C77.5098 17.1198 77.5931 17.3542 77.5931 17.6562C77.5931 17.8854 77.489 18.1615 77.2806 18.4844C77.0723 18.8073 76.8379 19.0365 76.5775 19.1719C76.6192 19.401 76.7077 19.6562 76.8431 19.9375C78.3431 17.6458 79.5775 15.75 80.5463 14.25C81.515 12.75 82.2858 11.5469 82.8588 10.6406C83.4421 9.72396 83.89 9.02083 84.2025 8.53125C84.5254 8.03125 84.7806 7.64583 84.9681 7.375C86.4577 5.23958 87.8431 3.52083 89.1244 2.21875C90.4161 0.90625 91.4577 0.25 92.2494 0.25C92.6973 0.25 93.0306 0.380208 93.2494 0.640625C93.4681 0.901042 93.5827 1.21875 93.5931 1.59375C93.6348 2.47917 93.3588 3.53646 92.765 4.76562C92.1817 5.98438 91.3796 7.28646 90.3588 8.67188C89.3483 10.0469 88.1973 11.4167 86.9056 12.7812C85.6244 14.1458 84.2963 15.4167 82.9213 16.5938C81.5463 17.7708 80.2129 18.7656 78.9213 19.5781L77.8119 21.2969C78.041 21.4948 78.2963 21.6562 78.5775 21.7812C78.8692 21.9062 79.1921 21.9792 79.5463 22C80.8275 22.0833 81.9056 21.9323 82.7806 21.5469C83.666 21.151 84.4004 20.6719 84.9838 20.1094C85.5671 19.5365 86.0358 19.0312 86.39 18.5938L86.7494 18.8438C86.5827 19 86.3119 19.2917 85.9369 19.7188C85.5723 20.1354 85.0931 20.5729 84.4994 21.0312C83.9161 21.4792 83.2129 21.849 82.39 22.1406C81.5671 22.4219 80.614 22.5052 79.5306 22.3906C79.1348 22.349 78.7754 22.2656 78.4525 22.1406C78.1296 22.0156 77.8379 21.8594 77.5775 21.6719L76.9369 22.6719C76.8015 24.4948 76.5046 26.2708 76.0463 28C75.5879 29.7292 75.0098 31.2865 74.3119 32.6719C73.6244 34.0677 72.8588 35.1719 72.015 35.9844C71.1713 36.8073 70.291 37.2188 69.3744 37.2188ZM79.4838 18.7031C80.64 17.9219 81.8431 16.9635 83.0931 15.8281C84.3431 14.6823 85.5515 13.4531 86.7181 12.1406C87.8952 10.8177 88.9525 9.49479 89.89 8.17188C90.8379 6.84896 91.5827 5.60938 92.1244 4.45312C92.6661 3.29688 92.9213 2.3125 92.89 1.5C92.8796 1.20833 92.8067 0.989583 92.6713 0.84375C92.5358 0.6875 92.3692 0.609375 92.1713 0.609375C91.9525 0.609375 91.6713 0.744792 91.3275 1.01562C90.9838 1.27604 90.5411 1.75521 89.9994 2.45312C89.4681 3.15104 88.7858 4.15625 87.9525 5.46875C86.9942 6.98958 86.0723 8.44271 85.1869 9.82812C84.3015 11.2135 83.3952 12.625 82.4681 14.0625C81.5515 15.4896 80.5567 17.0365 79.4838 18.7031ZM69.4838 36.8281C69.9317 36.8281 70.5046 36.5104 71.2025 35.875C71.9004 35.2396 72.6192 34.3281 73.3588 33.1406C74.0879 31.9635 74.7338 30.5521 75.2963 28.9062C75.8588 27.2708 76.2338 25.4531 76.4213 23.4531C75.4525 24.9219 74.515 26.3438 73.6088 27.7188C72.7025 29.0938 71.8848 30.3542 71.1556 31.5C70.4265 32.6562 69.8483 33.6406 69.4213 34.4531C68.9942 35.2656 68.7806 35.8385 68.7806 36.1719C68.7806 36.3385 68.8483 36.4896 68.9838 36.625C69.1088 36.7604 69.2754 36.8281 69.4838 36.8281Z" fill="white"/>
<path d="M58.0625 24.9531C57.625 24.9531 57.2656 24.8333 56.9844 24.5938C56.6927 24.3438 56.5469 24.0417 56.5469 23.6875C56.5469 23.4062 56.5833 23.1354 56.6562 22.875C56.7188 22.6042 56.8698 22.2604 57.1094 21.8438C57.3385 21.4167 57.6927 20.8438 58.1719 20.125C58.651 19.4062 59.3021 18.4531 60.125 17.2656L72.2031 0C72.349 0.0104167 72.5312 0.0260417 72.75 0.046875C72.9792 0.0677083 73.3021 0.0729167 73.7188 0.0625C73.8021 0.0625 73.8958 0.0572917 74 0.046875C74.1146 0.0260417 74.2396 0.0104167 74.375 0L61.5312 17.8281C60.5938 19.1406 59.8594 20.1823 59.3281 20.9531C58.7969 21.7135 58.4062 22.2969 58.1562 22.7031C57.9062 23.099 57.75 23.3854 57.6875 23.5625C57.625 23.7292 57.5938 23.875 57.5938 24C57.5938 24.3438 57.8385 24.5156 58.3281 24.5156C58.9427 24.5156 59.5885 24.3333 60.2656 23.9688C60.9531 23.6042 61.6302 23.151 62.2969 22.6094C62.9635 22.0573 63.5781 21.4948 64.1406 20.9219C64.7031 20.349 65.1771 19.8438 65.5625 19.4062C65.9583 18.9688 66.2188 18.6927 66.3438 18.5781L66.6562 18.8438C66.5208 18.9792 66.25 19.2708 65.8438 19.7188C65.4375 20.1667 64.9375 20.6875 64.3438 21.2812C63.75 21.8646 63.099 22.4375 62.3906 23C61.6927 23.5625 60.9688 24.0312 60.2188 24.4062C59.4792 24.7708 58.7604 24.9531 58.0625 24.9531Z" fill="white"/>
<path d="M45.6719 24.9531C45.0052 24.9531 44.5156 24.7708 44.2031 24.4062C43.901 24.0417 43.75 23.5417 43.75 22.9062C43.75 22.2083 43.8958 21.4635 44.1875 20.6719C44.4896 19.8802 44.9844 19.0938 45.6719 18.3125C47.0781 16.6771 48.3906 15.5885 49.6094 15.0469C50.8385 14.4948 51.9896 14.2188 53.0625 14.2188C53.6042 14.2188 54.0625 14.3333 54.4375 14.5625C54.8125 14.7917 55 15.1042 55 15.5C55 15.8021 54.9375 16.1094 54.8125 16.4219C55.1458 16.026 55.4271 15.6823 55.6562 15.3906C55.8958 15.0885 56.125 14.8021 56.3438 14.5312C56.6146 14.6146 56.9271 14.6562 57.2812 14.6562C57.4271 14.6562 57.625 14.651 57.875 14.6406C58.125 14.6302 58.3177 14.6146 58.4531 14.5938L53.1875 20.9375C52.5208 21.7292 52.0417 22.375 51.75 22.875C51.4583 23.3646 51.3125 23.7448 51.3125 24.0156C51.3125 24.349 51.474 24.5156 51.7969 24.5156C52.3594 24.5156 52.9427 24.3542 53.5469 24.0312C54.151 23.6979 54.7448 23.276 55.3281 22.7656C55.9115 22.2448 56.4583 21.7083 56.9688 21.1562C57.4792 20.5938 57.9271 20.0781 58.3125 19.6094C58.7083 19.1302 59.0104 18.776 59.2188 18.5469L59.5312 18.8125C59.3021 19.0729 58.9792 19.4479 58.5625 19.9375C58.1458 20.4271 57.6667 20.9583 57.125 21.5312C56.5938 22.1042 56.0156 22.651 55.3906 23.1719C54.776 23.6927 54.1406 24.1198 53.4844 24.4531C52.8385 24.7865 52.1979 24.9531 51.5625 24.9531C50.5208 24.9531 50 24.6302 50 23.9844C50 23.7448 50.0417 23.5052 50.125 23.2656C50.2188 23.0156 50.401 22.6979 50.6719 22.3125C50.9427 21.9167 51.349 21.3906 51.8906 20.7344L51.7344 20.6719C50.4635 22.2344 49.2865 23.3385 48.2031 23.9844C47.1302 24.6302 46.2865 24.9531 45.6719 24.9531ZM45.7344 24.4844C46.401 24.4844 47.2812 24.099 48.375 23.3281C49.4688 22.5469 50.7812 21.25 52.3125 19.4375C52.5625 19.1354 52.7917 18.8542 53 18.5938C53.2188 18.3333 53.4271 18.0885 53.625 17.8594C53.8646 17.4948 54.0781 17.1146 54.2656 16.7188C54.4635 16.3229 54.5625 15.9635 54.5625 15.6406C54.5625 15.3177 54.4479 15.0833 54.2188 14.9375C53.9896 14.7812 53.7396 14.7031 53.4688 14.7031C52.9583 14.7031 52.1302 15.0729 50.9844 15.8125C49.849 16.5417 48.599 17.7135 47.2344 19.3281C46.4531 20.2656 45.8906 21.099 45.5469 21.8281C45.2031 22.5573 45.0312 23.1719 45.0312 23.6719C45.0312 24.2135 45.2656 24.4844 45.7344 24.4844Z" fill="white"/>
<path d="M31.2031 24.9531C30.526 24.9531 30.0417 24.7865 29.75 24.4531C29.4583 24.1198 29.3073 23.7604 29.2969 23.375C29.2552 22.6042 29.5469 21.7656 30.1719 20.8594C30.7865 19.9531 31.6719 18.8229 32.8281 17.4688C33.2344 16.9896 33.6562 16.474 34.0938 15.9219C34.5417 15.3698 35.0052 14.8333 35.4844 14.3125C35.8385 14.375 36.2552 14.4062 36.7344 14.4062C36.8802 14.4062 37.0833 14.401 37.3438 14.3906C37.6042 14.3802 37.776 14.3698 37.8594 14.3594C36.974 15.3073 36.0885 16.3073 35.2031 17.3594C34.3177 18.4115 33.526 19.3646 32.8281 20.2188C32.599 20.5 32.3021 20.8542 31.9375 21.2812C31.5729 21.6979 31.25 22.1458 30.9688 22.625C30.6979 23.0938 30.5677 23.5521 30.5781 24C30.5781 24.1458 30.6302 24.276 30.7344 24.3906C30.8385 24.5052 31.0365 24.5625 31.3281 24.5625C31.5365 24.5625 31.8594 24.4948 32.2969 24.3594C32.7448 24.224 33.2188 23.9948 33.7188 23.6719C34.4167 23.2031 35.2083 22.5625 36.0938 21.75C36.9792 20.9271 37.9427 19.8698 38.9844 18.5781C39.2135 18.2969 39.401 18.0677 39.5469 17.8906C39.6927 17.7135 39.8281 17.5521 39.9531 17.4062C40.3177 16.9583 40.7135 16.4792 41.1406 15.9688C41.5677 15.4583 42.0312 14.9062 42.5312 14.3125C42.8646 14.3438 43.099 14.3698 43.2344 14.3906C43.3698 14.401 43.5521 14.4062 43.7812 14.4062C44.2708 14.4062 44.6458 14.3906 44.9062 14.3594C44.2917 15.026 43.5885 15.8333 42.7969 16.7812C42.0156 17.7292 41.2396 18.6823 40.4688 19.6406C39.6979 20.5885 39.0208 21.4219 38.4375 22.1406C37.9375 22.724 37.6198 23.125 37.4844 23.3438C37.3594 23.5521 37.2969 23.7552 37.2969 23.9531C37.3073 24.0781 37.349 24.2031 37.4219 24.3281C37.5052 24.4531 37.7344 24.5156 38.1094 24.5156C38.6615 24.5156 39.2604 24.3333 39.9062 23.9688C40.5625 23.6042 41.2083 23.151 41.8438 22.6094C42.4896 22.0573 43.0885 21.4948 43.6406 20.9219C44.2031 20.349 44.6771 19.8438 45.0625 19.4062C45.4479 18.9688 45.6979 18.6927 45.8125 18.5781L46.125 18.8438C46 18.9792 45.7344 19.2708 45.3281 19.7188C44.9323 20.1667 44.4427 20.6875 43.8594 21.2812C43.276 21.8646 42.6458 22.4375 41.9688 23C41.3021 23.5625 40.625 24.0312 39.9375 24.4062C39.25 24.7708 38.6042 24.9531 38 24.9531C37.5833 24.9531 37.2344 24.8385 36.9531 24.6094C36.6719 24.3698 36.526 24.0417 36.5156 23.625C36.5052 23.25 36.5573 22.8594 36.6719 22.4531C36.7969 22.0469 37.0052 21.5885 37.2969 21.0781C35.9948 22.4844 34.8281 23.5 33.7969 24.125C33.2656 24.4479 32.7812 24.6667 32.3438 24.7812C31.9062 24.8958 31.526 24.9531 31.2031 24.9531Z" fill="white"/>
<path d="M21.7812 25.2812C21.4583 25.2812 21.0417 25.2396 20.5312 25.1562C20.0208 25.0729 19.5677 24.8958 19.1719 24.625C18.7656 24.3542 18.5625 23.9323 18.5625 23.3594C18.5625 22.8385 18.724 22.4115 19.0469 22.0781C19.3594 21.7344 19.7083 21.4792 20.0938 21.3125C20.4792 21.1458 20.7656 21.0625 20.9531 21.0625C21.3802 21.0625 21.5938 21.2604 21.5938 21.6562C21.5833 21.8229 21.4635 21.9792 21.2344 22.125C21.0156 22.2604 20.7708 22.3281 20.5 22.3281C20.375 22.3281 20.2552 22.2865 20.1406 22.2031C20.0156 22.1094 19.9167 22.0417 19.8438 22C19.7292 22.1146 19.5573 22.2865 19.3281 22.5156C19.0885 22.7344 18.9688 23.0208 18.9688 23.375C18.9688 23.7708 19.1302 24.0677 19.4531 24.2656C19.7656 24.4531 20.1198 24.5781 20.5156 24.6406C20.9115 24.6927 21.2135 24.7188 21.4219 24.7188C21.8594 24.7188 22.4062 24.5469 23.0625 24.2031C23.7188 23.849 24.3281 23.2604 24.8906 22.4375C25.4635 21.6146 25.8333 20.4948 26 19.0781C26.0521 18.5781 26.099 17.8854 26.1406 17C26.1927 16.1146 26.3594 15.2656 26.6406 14.4531C26.651 14.4219 26.6562 14.375 26.6562 14.3125C26.2604 14.8021 25.8333 15.3281 25.375 15.8906C24.9167 16.4531 24.474 16.9948 24.0469 17.5156C23.6302 18.0365 23.2708 18.4792 22.9688 18.8438C22.7604 19.0938 22.6094 19.2552 22.5156 19.3281C22.4219 19.401 22.3802 19.4375 22.3906 19.4375C22.3802 19.4375 22.3385 19.4427 22.2656 19.4531C22.2031 19.4531 22.151 19.4167 22.1094 19.3438C22.0885 19.2917 22.1354 19.1927 22.25 19.0469C22.375 18.901 22.5052 18.7448 22.6406 18.5781C22.8802 18.3073 23.25 17.875 23.75 17.2812C24.25 16.6875 24.776 16.0521 25.3281 15.375C25.8906 14.6979 26.375 14.099 26.7812 13.5781C26.8438 13.2656 26.9375 12.9844 27.0625 12.7344C27.1875 12.4844 27.3646 12.3594 27.5938 12.3594C28.0104 12.3594 28.2188 12.5312 28.2188 12.875C28.2083 13.0729 27.9688 13.4427 27.5 13.9844C27.2188 14.3177 27.0677 14.5365 27.0469 14.6406C27.026 14.7344 27.0156 14.8594 27.0156 15.0156C27.0052 15.3906 27.0417 15.8594 27.125 16.4219C27.2188 16.974 27.3177 17.5573 27.4219 18.1719C27.526 18.776 27.5938 19.3542 27.625 19.9062C27.6562 20.7292 27.5625 21.4427 27.3438 22.0469C27.5104 22.0677 27.651 22.0781 27.7656 22.0781C28.099 22.0781 28.4792 21.9271 28.9062 21.625C29.3438 21.3229 29.776 20.9635 30.2031 20.5469C30.6302 20.1302 31 19.7344 31.3125 19.3594C31.6354 18.9844 31.849 18.724 31.9531 18.5781L32.2969 18.8438C32.1198 19.0312 31.8594 19.3229 31.5156 19.7188C31.1719 20.1042 30.7812 20.5104 30.3438 20.9375C29.9062 21.3542 29.4583 21.7135 29 22.0156C28.5521 22.3073 28.125 22.4531 27.7188 22.4531C27.625 22.4531 27.5365 22.4531 27.4531 22.4531C27.3698 22.4427 27.2865 22.4323 27.2031 22.4219C26.7135 23.5052 25.9896 24.2552 25.0312 24.6719C24.0729 25.0781 22.9896 25.2812 21.7812 25.2812Z" fill="white"/>
<path d="M22.6719 11.2344C22.3802 11.2344 22.1458 11.1458 21.9688 10.9688C21.8021 10.7812 21.7188 10.5469 21.7188 10.2656C21.7188 9.90104 21.8698 9.56771 22.1719 9.26562C22.4844 8.95312 22.8542 8.79688 23.2812 8.79688C23.5729 8.79688 23.8021 8.89583 23.9688 9.09375C24.1458 9.28125 24.2344 9.51042 24.2344 9.78125C24.2344 10.1667 24.0677 10.5052 23.7344 10.7969C23.4115 11.0885 23.0573 11.2344 22.6719 11.2344ZM14.6875 24.9531C14.0521 24.9531 13.5417 24.8385 13.1562 24.6094C12.7604 24.3698 12.5625 24.0521 12.5625 23.6562C12.5625 23.3438 12.6406 22.9844 12.7969 22.5781C12.9531 22.1615 13.2552 21.6198 13.7031 20.9531C14.1406 20.2865 14.7812 19.4219 15.625 18.3594C16.4792 17.2865 17.599 15.9427 18.9844 14.3281C19.0781 14.3385 19.3021 14.349 19.6562 14.3594C20.0104 14.3698 20.2865 14.375 20.4844 14.375C20.6615 14.375 20.7917 14.375 20.875 14.375C20.9688 14.3646 21.0573 14.3542 21.1406 14.3438C19.6198 16.1354 18.375 17.6094 17.4062 18.7656C16.4479 19.9219 15.7083 20.8438 15.1875 21.5312C14.6667 22.2188 14.3073 22.7448 14.1094 23.1094C13.9115 23.474 13.8125 23.7656 13.8125 23.9844C13.8125 24.2552 13.9583 24.4115 14.25 24.4531C14.5417 24.4948 14.776 24.5156 14.9531 24.5156C15.5156 24.5156 16.1302 24.3281 16.7969 23.9531C17.4635 23.5677 18.125 23.0938 18.7812 22.5312C19.4479 21.9583 20.0625 21.3802 20.625 20.7969C21.1979 20.2135 21.6667 19.7135 22.0312 19.2969C22.3958 18.8698 22.6094 18.625 22.6719 18.5625L22.9844 18.8438C22.8698 18.9688 22.6198 19.2552 22.2344 19.7031C21.849 20.151 21.3698 20.6719 20.7969 21.2656C20.224 21.849 19.5938 22.4219 18.9062 22.9844C18.2292 23.5469 17.526 24.0156 16.7969 24.3906C16.0781 24.7656 15.375 24.9531 14.6875 24.9531Z" fill="white"/>
<path d="M1.75 24.9531C0.583333 24.9531 0 24.5208 0 23.6562C0 23.2812 0.0729167 22.901 0.21875 22.5156C0.364583 22.1198 0.65625 21.6094 1.09375 20.9844C1.52083 20.3594 2.16146 19.5104 3.01562 18.4375C3.47396 17.8542 4.03646 17.2188 4.70312 16.5312C5.38021 15.8438 6.11458 15.1042 6.90625 14.3125C7.23958 14.3438 7.48438 14.3698 7.64062 14.3906C7.79688 14.401 7.99479 14.4062 8.23438 14.4062C8.70312 14.4062 9.07812 14.3906 9.35938 14.3594C8.64062 15.0052 8.0625 15.5573 7.625 16.0156C7.19792 16.4635 6.80729 16.8958 6.45312 17.3125C6.09896 17.7188 5.67708 18.1823 5.1875 18.7031C4.92708 18.974 4.57292 19.3385 4.125 19.7969C3.67708 20.2552 3.21875 20.7448 2.75 21.2656C2.29167 21.776 1.90104 22.2604 1.57812 22.7188C1.25521 23.1771 1.09375 23.5469 1.09375 23.8281C1.09375 24.1719 1.17188 24.3802 1.32812 24.4531C1.49479 24.5156 1.70833 24.5469 1.96875 24.5469C2.73958 24.5469 3.57292 24.3438 4.46875 23.9375C5.36458 23.5208 6.26562 22.9896 7.17188 22.3438C8.07812 21.6875 8.93229 21.0104 9.73438 20.3125C10.4948 19.6354 11.0573 19.0208 11.4219 18.4688C11.7865 17.9062 12.026 17.3594 12.1406 16.8281C12.2552 16.2969 12.3125 15.7396 12.3125 15.1562C12.3125 14.7708 12.4323 14.4583 12.6719 14.2188C12.9115 13.9688 13.2031 13.8438 13.5469 13.8438C14.1302 13.8438 14.4219 14.1302 14.4219 14.7031C14.4219 14.9948 14.3438 15.3542 14.1875 15.7812C14.0417 16.1979 13.7448 16.7083 13.2969 17.3125C12.849 17.9167 12.1875 18.6458 11.3125 19.5L10.8906 19.8906C10.5365 20.3698 10.3229 20.8281 10.25 21.2656C10.1771 21.6927 10.4219 21.9062 10.9844 21.9062C11.3385 21.9062 11.7344 21.7812 12.1719 21.5312C12.6198 21.2708 13.0625 20.9583 13.5 20.5938C13.9375 20.2188 14.3385 19.849 14.7031 19.4844C15.0781 19.1094 15.3646 18.8073 15.5625 18.5781L15.8906 18.8438C15.5469 19.2188 15.0833 19.6823 14.5 20.2344C13.9271 20.776 13.3177 21.2552 12.6719 21.6719C12.026 22.0885 11.4219 22.2969 10.8594 22.2969C10.349 22.2969 10.026 22.1458 9.89062 21.8438C9.76562 21.5417 9.81771 21.1406 10.0469 20.6406C9.27604 21.2865 8.40104 21.9427 7.42188 22.6094C6.44271 23.276 5.45312 23.8333 4.45312 24.2812C3.46354 24.7292 2.5625 24.9531 1.75 24.9531Z" fill="white"/>
</svg>
