<svg width="56" height="56" viewBox="0 0 56 56" fill="none" xmlns="http://www.w3.org/2000/svg">
<g clip-path="url(#clip0_3257_189256)">
<path d="M55.8203 30.3646C47.7514 29.5727 41.9125 28.9983 38.1763 28.4799C36.2671 28.2147 34.9169 27.9651 34.0491 27.716C32.928 27.3944 32.8832 27.1498 32.8828 27.1473C32.8782 27.1123 32.8911 26.7825 34.7468 25.9358C36.1202 25.3095 38.1456 24.5506 40.7097 23.5899C40.7122 23.5891 40.7151 23.5878 40.7176 23.587L40.4785 22.9586C37.9082 23.9218 35.8778 24.6828 34.4255 25.1123C32.4632 25.6933 32.2241 25.4434 32.2034 25.4129C32.1976 25.4042 32.0647 25.1889 32.6774 24.2026C33.1505 23.4408 33.9802 22.3611 35.2137 20.9014C37.6392 18.0308 41.5967 13.7219 47.072 7.76168C47.0769 7.75632 47.0823 7.75056 47.0873 7.74479C47.0944 7.73697 47.1014 7.72956 47.1085 7.72173C47.1114 7.71844 47.1143 7.71514 47.1172 7.71185L46.8669 7.48578L46.6167 7.25971C46.6129 7.26383 46.6088 7.26794 46.605 7.27247C41.1347 13.2277 37.1814 17.5313 34.516 20.1914C33.1634 21.5417 32.1515 22.4579 31.4227 22.9928C30.4897 23.678 30.2344 23.5763 30.2087 23.5623C30.1252 23.5178 29.8799 23.2189 30.2315 21.2448C30.5029 19.7203 31.052 17.5708 31.7468 14.8489L31.0906 14.6838C30.4158 17.3271 29.8824 19.4148 29.4134 20.8721C28.7788 22.845 28.4543 22.9936 28.3995 23.0035C28.397 23.0031 28.1451 22.9442 27.7254 21.7797C27.4096 20.903 27.0489 19.5499 26.6239 17.6429C25.7876 13.8932 24.7118 8.07134 23.223 0.0135124C23.2222 0.00898279 23.2214 0.00404136 23.2205 -0.000488281L22.8877 0.0600442L22.5548 0.120577C22.5606 0.151049 22.566 0.181109 22.5714 0.21117C22.5714 0.213229 22.5722 0.216523 22.5727 0.21817C22.5735 0.221464 22.5739 0.226406 22.5747 0.2297C24.0552 8.24141 25.1248 14.0348 25.6519 17.813C25.9208 19.7397 26.0445 21.1237 26.0312 22.0445C26.0142 23.2053 25.7839 23.3671 25.7378 23.3877C25.6448 23.4297 25.2269 23.4417 23.7593 21.8456C22.632 20.6193 21.1432 18.7461 19.2585 16.3742L18.7268 16.7901C20.5394 19.0714 21.9708 20.8729 22.9167 22.2108C24.1735 23.9885 24.1511 24.3974 24.1249 24.4724C24.0872 24.4929 23.817 24.5934 22.6569 24.18C21.7372 23.8522 20.407 23.2572 18.5903 22.3599C15.0367 20.6053 9.70791 17.7438 2.33878 13.7853C2.3201 13.7754 2.30226 13.7659 2.28358 13.7556C2.27071 13.7486 2.25868 13.7425 2.24581 13.7355L1.92374 14.326C1.92789 14.328 1.93204 14.3305 1.93577 14.3325C1.93992 14.3346 1.94449 14.3371 1.94864 14.3395C1.95818 14.3449 1.96773 14.3498 1.97728 14.3548C1.99927 14.3667 2.0221 14.3787 2.0441 14.3906C9.46054 18.3742 14.8242 21.2563 18.2192 23.2654C19.9537 24.292 21.1557 25.0806 21.8936 25.6768C22.8595 26.4568 22.7984 26.7257 22.7955 26.7368C22.7769 26.8039 22.5648 27.1416 20.2086 27.2037C18.4488 27.2503 15.9124 27.1477 12.7016 27.018C12.6979 27.018 12.6937 27.018 12.69 27.0176L12.6626 27.6888C15.8174 27.8165 18.3089 27.9174 20.0496 28.0911C22.4569 28.3312 22.6299 28.6639 22.6416 28.6998C22.6416 28.7022 22.6474 28.9612 21.5417 29.6197C20.7066 30.1171 19.3851 30.7558 17.5016 31.5724C13.8235 33.1672 8.08674 35.4086 0.157717 38.5044C0.105006 38.525 0.0527108 38.5451 0 38.5657L0.123684 38.8783L0.247782 39.1908C0.271025 39.1818 0.294267 39.1727 0.31751 39.1636C0.324981 39.1608 0.332451 39.1579 0.339922 39.155C0.357769 39.148 0.374371 39.1418 0.391803 39.1348C8.37396 36.018 14.1493 33.7639 17.9378 32.4499C19.8749 31.7783 21.2744 31.3595 22.2157 31.1701C23.421 30.9279 23.5899 31.1223 23.5912 31.1248C23.5995 31.1371 23.778 31.453 22.18 33.2965C21.0295 34.6237 19.2506 36.4319 16.9986 38.7197C16.9936 38.7247 16.9891 38.7296 16.9841 38.7346L17.226 38.9693L17.4684 39.204C17.4709 39.2011 17.4742 39.1982 17.4767 39.1954C19.7367 36.8988 21.5226 35.0849 22.8412 33.9113C23.5169 33.3101 24.0374 32.9061 24.4329 32.676C24.8151 32.4536 24.9998 32.4458 25.0443 32.4729C25.0538 32.4787 25.2759 32.6294 25.0966 33.8565C24.9596 34.7954 24.6134 36.1918 24.0382 38.1259C22.9064 41.9321 20.9162 47.7424 18.1611 55.7841L18.802 56.0003C21.5321 48.0306 23.5049 42.2726 24.926 38.553C25.6498 36.6592 26.2217 35.3184 26.6754 34.4549C27.2511 33.3587 27.5183 33.2595 27.5574 33.2508C27.6271 33.2858 27.9301 33.5642 28.231 35.7656C28.4563 37.4156 28.6427 39.7517 28.878 42.7091L29.2155 42.6828L29.5529 42.6564C29.3084 39.5886 29.1158 37.1652 29.1022 35.4757C29.0847 33.2751 29.4002 33.0004 29.4973 32.9687C29.5259 32.9593 29.8061 32.9008 30.6291 33.773C31.2683 34.4499 32.1229 35.565 33.2418 37.1817C35.4399 40.3574 38.6171 45.403 43.012 52.3836C43.0211 52.398 43.0302 52.412 43.039 52.4264C43.0415 52.4302 43.0439 52.4343 43.0464 52.438L43.6204 52.0822C43.6134 52.0711 43.6063 52.0595 43.5993 52.0484C43.5968 52.0443 43.5939 52.0398 43.591 52.0357C39.2093 45.0761 36.0425 40.0457 34.0968 36.6966C33.1049 34.9894 32.4416 33.7367 32.0689 32.8674C31.5953 31.7618 31.6937 31.5094 31.7103 31.4789C31.7746 31.4476 32.1523 31.3776 33.9495 32.4309C35.2971 33.2203 37.12 34.4368 39.4281 35.9764L39.8058 35.4189C37.4147 33.8236 35.5258 32.5635 34.2769 31.5909C32.657 30.3292 32.6392 29.9335 32.672 29.842C32.6886 29.7959 32.8297 29.5608 33.9694 29.45C34.8759 29.3619 36.2517 29.3697 38.1746 29.4747C41.9652 29.681 47.824 30.2559 55.9328 31.0519L55.966 30.7175L55.9992 30.3831C55.9386 30.3774 55.8792 30.3716 55.819 30.3654L55.8203 30.3646Z" fill="#E5FE8D"/>
</g>
<defs>
<clipPath id="clip0_3257_189256">
<rect width="56" height="56" fill="white"/>
</clipPath>
</defs>
</svg>
