<svg width="175" height="24" viewBox="0 0 175 24" fill="none" xmlns="http://www.w3.org/2000/svg">
<path d="M163.84 10.8482C162.688 10.8482 161.92 11.3602 161.504 11.9362C160.896 12.7362 160.672 14.0802 160.672 14.9442C160.672 15.8722 160.896 17.0562 161.504 17.8562C161.856 18.3042 162.56 18.9762 163.872 18.9762C164.928 18.9762 165.632 18.5922 166.176 17.8562C166.56 17.3122 167.008 16.4162 167.008 14.9122C167.008 13.0562 166.4 12.1602 166.176 11.9042C165.952 11.6162 165.216 10.8482 163.84 10.8482ZM167.232 21.4402H167.072C166.432 22.1122 165.6 22.6562 164.736 22.9762C163.584 23.3922 162.272 23.4562 161.12 23.4562C159.232 23.4562 156.896 23.2962 155.008 21.3762C154.272 20.6402 152.736 18.7202 152.736 15.0402C152.736 11.8082 153.92 9.82415 155.072 8.67216C157.024 6.65615 159.52 6.30416 161.6 6.30416C162.496 6.30416 163.552 6.43216 164.608 6.78415C165.44 7.07215 166.176 7.48816 166.848 8.12815V0.608154H174.592V23.0082H167.232V21.4402Z" fill="white"/>
<path d="M139.88 12.896H146.536C146.472 11.776 145.832 11.168 145.48 10.912C144.808 10.432 143.976 10.336 143.304 10.336C142.6 10.336 141.736 10.4 141 10.976C140.488 11.36 140.04 12.032 139.88 12.896ZM146.44 17.568H154.12C153.896 19.488 152.808 21.664 149.928 22.752C148.36 23.328 146.408 23.584 143.752 23.584C141.256 23.584 137.64 23.424 135.144 21.696C133.672 20.672 131.912 18.72 131.912 15.104C131.912 11.84 133.32 9.88803 134.44 8.83203C136.872 6.52802 140.328 6.17603 143.016 6.17603C145.512 6.17603 149.544 6.49602 152.072 9.08802C154.248 11.296 154.344 13.92 154.344 15.904V16.032H139.784C139.752 17.152 140.232 18.112 140.904 18.624C141.672 19.232 142.696 19.296 143.336 19.296C144.072 19.296 144.904 19.2 145.448 18.912C146.12 18.56 146.344 18.016 146.44 17.568Z" fill="white"/>
<path d="M119.058 12.896H125.714C125.65 11.776 125.01 11.168 124.658 10.912C123.986 10.432 123.154 10.336 122.482 10.336C121.778 10.336 120.914 10.4 120.178 10.976C119.666 11.36 119.218 12.032 119.058 12.896ZM125.618 17.568H133.298C133.074 19.488 131.986 21.664 129.106 22.752C127.538 23.328 125.586 23.584 122.93 23.584C120.434 23.584 116.818 23.424 114.322 21.696C112.85 20.672 111.09 18.72 111.09 15.104C111.09 11.84 112.498 9.88803 113.618 8.83203C116.05 6.52802 119.506 6.17603 122.194 6.17603C124.69 6.17603 128.722 6.49602 131.25 9.08802C133.426 11.296 133.522 13.92 133.522 15.904V16.032H118.962C118.93 17.152 119.41 18.112 120.082 18.624C120.85 19.232 121.874 19.296 122.514 19.296C123.25 19.296 124.082 19.2 124.626 18.912C125.298 18.56 125.522 18.016 125.618 17.568Z" fill="white"/>
<path d="M113.485 6.752V11.232H109.133V23.008H101.389V11.232H97.9648V6.752H101.389V6.112C101.389 3.808 102.253 2.368 103.341 1.472C105.037 0.0640011 107.693 0 109.069 0C110.701 0 112.109 0.16 113.485 0.448V4.672C112.909 4.544 112.205 4.48 111.661 4.48C111.085 4.48 110.349 4.576 109.805 5.024C109.197 5.536 109.133 6.144 109.133 6.624V6.752H113.485Z" fill="white"/>
<path d="M87.5508 0.608154H95.2948V23.0082H87.5508V0.608154Z" fill="white"/>
<path d="M79.664 15.7439V15.6479C79.184 16.2239 78.704 16.2559 77.168 16.3839C76.304 16.4479 75.184 16.5119 74.64 17.0559C74.416 17.2799 74.224 17.6639 74.224 18.0799C74.224 18.4959 74.448 18.9119 74.8 19.1679C75.248 19.5199 75.888 19.5519 76.304 19.5519C77.84 19.5519 78.608 18.9119 78.96 18.4319C79.44 17.7919 79.664 16.7359 79.664 15.7439ZM74.288 12.3839H67.056C67.184 10.6559 67.792 8.79994 70.224 7.51994C71.28 6.97594 73.136 6.33594 76.848 6.33594C81.648 6.33594 83.6 7.26394 84.4 7.74394C86.864 9.21594 87.312 11.2639 87.312 13.3119V20.1279C87.312 21.1519 87.376 21.5999 87.504 21.8879C87.664 22.2399 88.016 22.5919 88.336 22.7839V23.0079H80.336L79.888 21.2479H79.696C79.12 21.9519 78.352 22.6239 77.104 23.0719C75.92 23.4879 74.608 23.5839 73.264 23.5839C71.44 23.5839 69.552 23.4239 68.272 22.4959C67.408 21.8879 66.416 20.6719 66.416 18.7839C66.416 16.8959 67.312 15.7119 68.336 15.0399C69.36 14.3679 70.768 14.0159 72.848 13.8559L75.152 13.6639C76.304 13.5679 77.104 13.5359 78.256 13.2799C78.864 13.1519 79.6 12.9279 79.6 11.9679C79.6 11.5199 79.44 11.0079 78.672 10.6879C78.224 10.5279 77.552 10.4319 77.008 10.4319C76.624 10.4319 75.632 10.4639 75.024 10.8799C74.64 11.1359 74.256 11.6159 74.288 12.3839Z" fill="white"/>
<path d="M59.8453 23.008V21.216H59.6533C57.6693 23.136 55.3653 23.456 53.3173 23.456C51.6853 23.456 49.6373 23.232 48.2293 22.016C46.5013 20.512 46.2773 18.144 46.2773 16.48V6.75195H54.0213V15.296C54.0213 16.064 54.0853 17.216 54.7253 17.856C55.1413 18.272 55.8133 18.464 56.4213 18.464C57.5413 18.464 58.1813 17.952 58.5013 17.504C58.9173 16.96 59.2693 16 59.2693 14.208V6.75195H67.0133V23.008H59.8453Z" fill="white"/>
<path d="M26.8616 17.728H34.2216V17.888C34.2216 18.144 34.2536 18.752 34.9256 19.168C35.4056 19.456 36.0776 19.52 36.8456 19.52C37.4216 19.52 38.0616 19.52 38.5736 19.296C39.0216 19.104 39.2776 18.816 39.2776 18.304C39.2776 17.632 38.8616 17.408 38.3816 17.248C37.6456 16.992 36.8136 16.928 35.5016 16.736L33.6776 16.48C31.5656 16.192 30.3176 15.968 29.3256 15.424C27.9176 14.624 27.3096 13.472 27.3096 11.872C27.3096 9.79204 28.2056 8.44804 29.8696 7.45604C31.8856 6.24004 34.3176 6.14404 36.5576 6.14404C40.0456 6.14404 41.7096 6.46404 42.8296 6.91204C45.2296 7.84004 46.0296 9.31204 46.1576 11.328H39.3736V11.2C39.3736 10.848 39.2776 10.464 38.7976 10.176C38.3816 9.92004 37.5176 9.85604 37.0056 9.85604C36.4616 9.85604 35.7896 9.95204 35.4056 10.176C34.9896 10.4 34.7976 10.72 34.7976 11.008C34.7976 11.744 35.4376 11.936 35.8856 12.032C37.1336 12.288 37.5816 12.288 38.2856 12.384L40.3336 12.64C41.7736 12.832 43.7576 13.024 45.1976 14.112C46.5416 15.136 46.9256 16.384 46.9256 17.856C46.9256 19.776 46.2216 21.344 44.5256 22.368C43.1176 23.232 40.9416 23.616 37.2296 23.616C33.9976 23.616 30.5736 23.424 28.5576 21.664C27.4696 20.736 26.7976 19.424 26.8616 17.728Z" fill="white"/>
<path d="M19.7559 4.83209V0.288086H27.4999V4.83209H19.7559ZM19.7559 6.75209H27.4999V23.0081H19.7559V6.75209Z" fill="white"/>
<path d="M10.656 16.64L13.888 6.75195H21.504L14.528 23.008H6.784L0 6.75195H7.744L10.656 16.64Z" fill="white"/>
</svg>
