<svg width="165" height="21" viewBox="0 0 165 21" fill="none" xmlns="http://www.w3.org/2000/svg">
<path d="M152.264 20.576V17.696H149.352V8.704H152.264V5.792H161V0H164.232V17.696H161.288V20.576H152.264ZM152.584 17.376H160.968V8.992H152.584V17.376Z" fill="white"/>
<path d="M133.514 20.576V17.696H130.602V8.70399H133.514V5.79199H142.538V8.70399H145.482V11.872H142.218V8.99199H133.834V11.552H139.658V14.784H133.834V17.376H142.218V14.432H145.482V17.664H142.538V20.576H133.514Z" fill="white"/>
<path d="M114.764 20.576V17.696H111.852V8.70399H114.764V5.79199H123.788V8.70399H126.732V11.872H123.468V8.99199H115.084V11.552H120.908V14.784H115.084V17.376H123.468V14.432H126.732V17.664H123.788V20.576H114.764Z" fill="white"/>
<path d="M96.2891 20.576V2.912H99.2011V0H108.225V2.912H111.169V6.112H107.905V3.232H99.5211V8.704H105.345V11.872H99.5211V20.576H96.2891Z" fill="white"/>
<path d="M82.7891 20.576V0H86.0211V20.576H82.7891Z" fill="white"/>
<path d="M65.0136 20.576V17.696H62.1016V8.70399H65.0136V5.79199H74.0376V8.70399H76.9816V17.376H79.8936V20.576H76.6616V17.696H74.0376V20.576H65.0136ZM65.3336 17.376H73.7176V8.99199H65.3336V17.376Z" fill="white"/>
<path d="M46.8886 20.576V17.696H43.9766V5.79199H47.2086V17.376H55.5926V5.79199H58.8566V17.696H55.9126V20.576H46.8886Z" fill="white"/>
<path d="M25.2266 20.576V17.376H36.8426V14.784H28.1386V11.872H25.2266V8.70399H28.1386V5.79199H40.1066V8.99199H28.4586V11.552H37.1626V14.464H40.1066V17.696H37.1626V20.576H25.2266Z" fill="white"/>
<path d="M18.1328 20.576V5.792H21.3648V20.576H18.1328ZM18.1328 3.232V0H21.3648V3.232H18.1328Z" fill="white"/>
<path d="M5.824 20.576V17.696H2.912V11.872H0V5.79199H3.232V11.552H6.112V17.376H8.736V11.552H11.616V5.79199H14.88V11.872H11.936V17.696H9.056V20.576H5.824Z" fill="white"/>
</svg>
