<svg width="140" height="24" viewBox="0 0 140 24" fill="none" xmlns="http://www.w3.org/2000/svg">
<path d="M131.217 23.584C126.449 23.584 123.121 19.968 123.121 15.04C123.121 10.144 126.449 6.528 131.217 6.528C133.297 6.528 134.993 7.2 136.305 8.416V0.895996H139.825V23.296H136.305V21.664C134.993 22.88 133.297 23.584 131.217 23.584ZM131.473 20.32C134.161 20.32 136.305 18.336 136.305 15.04C136.305 11.776 134.161 9.792 131.473 9.792C128.785 9.792 126.673 11.776 126.673 15.04C126.673 18.336 128.785 20.32 131.473 20.32Z" fill="white"/>
<path d="M115.223 23.5838C110.167 23.5838 106.775 19.9678 106.775 15.0398C106.775 10.1438 110.199 6.52783 115.191 6.52783C119.575 6.52783 123.479 9.47183 123.479 15.0398V16.3198H110.359C110.807 18.7838 112.631 20.3838 115.255 20.3838C117.015 20.3838 118.487 19.5518 119.191 18.2078H123.063C122.007 21.5998 119.031 23.5838 115.223 23.5838ZM110.423 13.3758H119.863C119.287 10.7518 117.303 9.66383 115.223 9.66383C112.759 9.66383 110.999 11.1038 110.423 13.3758Z" fill="white"/>
<path d="M98.8777 23.5838C93.8217 23.5838 90.4297 19.9678 90.4297 15.0398C90.4297 10.1438 93.8537 6.52783 98.8457 6.52783C103.23 6.52783 107.134 9.47183 107.134 15.0398V16.3198H94.0137C94.4617 18.7838 96.2857 20.3838 98.9097 20.3838C100.67 20.3838 102.142 19.5518 102.846 18.2078H106.718C105.662 21.5998 102.686 23.5838 98.8777 23.5838ZM94.0777 13.3758H103.518C102.942 10.7518 100.958 9.66383 98.8777 9.66383C96.4137 9.66383 94.6537 11.1038 94.0777 13.3758Z" fill="white"/>
<path d="M83.3417 23.296V9.888H80.0137V6.816H83.3417V4.608C83.3417 2.144 85.1657 0.895996 87.1497 0.895996H91.0537V3.936H86.8617V6.816H91.2137V9.888H86.8617V23.296H83.3417Z" fill="white"/>
<path d="M70.834 23.296V0.895996H74.354V23.296H70.834Z" fill="white"/>
<path d="M59.7833 23.5838C56.5513 23.5838 53.8633 21.5038 53.8633 18.2398C53.8633 15.5518 55.8153 13.1838 59.7833 13.1838H64.7433V12.7998C64.7433 11.1998 63.6233 9.56783 61.0953 9.56783C58.9193 9.56783 57.8313 10.8158 57.6073 12.0638H54.3433C54.8233 8.63983 57.5113 6.52783 61.1273 6.52783C65.8313 6.52783 68.1033 9.69583 68.1033 12.7998V20.1598H69.7033V23.2958H66.9833C65.6073 23.2958 64.9993 22.5278 64.9993 21.4398V21.0238C64.3273 22.3678 62.7273 23.5838 59.7833 23.5838ZM60.3273 20.5438C63.2713 20.5438 64.7433 18.7198 64.7433 16.8318V16.0958H59.7833C58.5033 16.0958 57.3833 16.8638 57.3833 18.2078C57.3833 19.6478 58.5673 20.5438 60.3273 20.5438Z" fill="white"/>
<path d="M45.3678 23.5519C40.1838 23.5519 38.0078 20.0319 38.0078 16.4159V6.81592H41.5278V16.3199C41.5278 18.4639 42.6798 20.2559 45.3678 20.2559C48.0238 20.2559 49.1758 18.4639 49.1758 16.3199V6.81592H52.6958V16.4159C52.6958 20.0319 50.5518 23.5519 45.3678 23.5519Z" fill="white"/>
<path d="M29.8384 23.5838C25.4224 23.5838 22.8304 21.3758 22.7344 17.7918H26.2864C26.3504 19.4558 27.7264 20.3838 29.8384 20.3838C32.0144 20.3838 33.2944 19.6478 33.2944 18.4638C33.2944 17.5358 32.7824 16.8638 31.0224 16.6718L28.2064 16.2878C25.3584 15.9358 23.3104 14.4638 23.3104 11.5518C23.3104 8.83183 25.6784 6.52783 29.7424 6.52783C33.7424 6.52783 36.5264 8.54383 36.4944 11.9998H33.1024C33.0384 10.5598 31.7584 9.56783 29.7104 9.56783C27.7264 9.56783 26.7344 10.4318 26.7344 11.4238C26.7344 12.4158 27.5664 12.8958 28.7504 13.0558L31.8544 13.4718C35.2144 13.8878 36.8144 15.7438 36.8144 18.3678C36.8144 21.3438 34.2544 23.5838 29.8384 23.5838Z" fill="white"/>
<path d="M17.8224 23.296V6.816H21.3424V23.296H17.8224ZM19.5504 4.672C18.2064 4.672 17.1504 3.744 17.1504 2.336C17.1504 0.960001 18.2064 0 19.5504 0C20.8624 0 21.9184 0.960001 21.9184 2.336C21.9184 3.744 20.8624 4.672 19.5504 4.672Z" fill="white"/>
<path d="M6.368 23.2959L0 7.16792V6.81592H3.808L8.448 19.1359L12.864 6.81592H16.736V7.16792L10.464 23.2959H6.368Z" fill="white"/>
</svg>
