<svg width="56" height="56" viewBox="0 0 56 56" fill="none" xmlns="http://www.w3.org/2000/svg">
<g clip-path="url(#clip0_3257_189259)">
<path d="M53.7992 17.1009C52.3888 13.7668 50.3699 10.7724 47.7988 8.20076C45.2276 5.62961 42.2332 3.61075 38.8991 2.20033C35.4466 0.74025 31.7797 0 28 0C24.2203 0 20.5534 0.74025 17.1009 2.20079C13.7668 3.61121 10.7724 5.63007 8.20076 8.20122C5.62961 10.7724 3.61075 13.7668 2.20033 17.1014C0.74025 20.5534 0 24.2203 0 28C0 31.7797 0.74025 35.4466 2.20079 38.8991C3.61121 42.2332 5.63007 45.2276 8.20122 47.7988C10.7724 50.3699 13.7668 52.3888 17.1014 53.7992C20.5539 55.2593 24.2208 56 28.0005 56C31.7801 56 35.447 55.2597 38.8995 53.7992C42.2337 52.3888 45.2281 50.3699 47.7992 47.7988C50.3704 45.2276 52.3893 42.2332 53.7997 38.8991C55.2597 35.4466 56.0005 31.7797 56.0005 28C56.0005 24.2203 55.2602 20.5534 53.7997 17.1009H53.7992ZM46.8673 9.13222C49.3183 11.5832 51.242 14.4365 52.586 17.6138C53.873 20.6569 54.5729 23.8755 54.6703 27.1925L46.6589 27.237C46.5327 20.0916 44.6354 13.3936 41.2832 8.30379C39.6426 5.81247 37.7356 3.83491 35.6137 2.41753C36.5521 2.69692 37.4766 3.02876 38.3858 3.41304C41.563 4.75709 44.4168 6.68081 46.8673 9.13176V9.13222ZM33.5062 8.86582C35.0721 13.8016 35.9576 20.3232 36.0133 27.2969L19.9858 27.3865C20.0345 20.3794 20.9205 13.8229 22.4934 8.86629C24.0156 4.06882 26.0224 1.3176 27.9995 1.3176C29.9766 1.3176 31.9839 4.06882 33.5057 8.86629L33.5062 8.86582ZM24.0964 2.41196C23.0187 3.84837 22.0571 5.8858 21.238 8.46762C19.6252 13.551 18.7174 20.2513 18.6687 27.3934L10.654 27.438C10.8248 14.7883 16.7477 4.27396 24.5545 1.84575C24.3999 2.02211 24.2472 2.21054 24.0964 2.41196ZM18.6696 28.7105C18.7262 35.8142 19.6336 42.4741 21.2384 47.5324C22.0576 50.1142 23.0192 52.1516 24.0969 53.588C24.2477 53.7895 24.4004 53.9779 24.5549 54.1542C16.7881 51.7381 10.8856 41.3185 10.6577 28.7551L18.6701 28.7105H18.6696ZM22.4938 47.1342C20.9279 42.1984 20.0424 35.6768 19.9867 28.7031L36.0142 28.6136C35.9655 35.6206 35.0795 42.1771 33.5066 47.1337C31.9844 51.9312 29.9776 54.6824 28.0005 54.6824C26.0234 54.6824 24.0161 51.9312 22.4943 47.1337L22.4938 47.1342ZM31.9036 53.588C32.9813 52.1516 33.9429 50.1142 34.762 47.5324C36.3748 42.449 37.2826 35.7487 37.3313 28.6066L45.346 28.562C45.1752 41.2117 39.2523 51.726 31.4455 54.1542C31.6001 53.9779 31.7528 53.7895 31.9036 53.588ZM37.3304 27.2895C37.2738 20.1858 36.3664 13.5259 34.7616 8.46762C33.9424 5.8858 32.9808 3.84837 31.9031 2.41196C31.7523 2.21054 31.5996 2.02211 31.4451 1.84575C39.2119 4.26189 45.1144 14.6815 45.3423 27.2449L37.3299 27.2895H37.3304ZM3.4135 17.6142C4.75755 14.437 6.68128 11.5832 9.13222 9.13268C11.5832 6.68174 14.4365 4.75802 17.6138 3.41397C18.5229 3.02969 19.4474 2.69785 20.3859 2.41846C18.264 3.83584 16.357 5.81386 14.7163 8.30472C11.3316 13.4438 9.43064 20.2225 9.33782 27.4459L1.32224 27.4904C1.38582 24.0681 2.08801 20.7479 3.4135 17.6142ZM9.13222 46.8678C6.68128 44.4168 4.75755 41.5635 3.4135 38.3862C2.12654 35.3431 1.42666 32.1245 1.3292 28.8075L9.34014 28.763C9.46638 35.9084 11.3636 42.6064 14.7159 47.6962C16.3565 50.1875 18.2635 52.1651 20.3854 53.5825C19.447 53.3031 18.5225 52.9712 17.6133 52.587C14.436 51.2429 11.5822 49.3192 9.13176 46.8682L9.13222 46.8678ZM52.5865 38.3862C51.2424 41.5635 49.3187 44.4173 46.8678 46.8678C44.4168 49.3187 41.5635 51.2424 38.3862 52.5865C37.4771 52.9708 36.5526 53.3026 35.6141 53.582C37.736 52.1646 39.643 50.1866 41.2837 47.6957C44.6684 42.5567 46.5694 35.778 46.6622 28.5546L54.6778 28.5101C54.6142 31.9324 53.912 35.2526 52.5865 38.3862Z" fill="#E5FE8D"/>
</g>
<defs>
<clipPath id="clip0_3257_189259">
<rect width="56" height="56" fill="white"/>
</clipPath>
</defs>
</svg>
