<svg width="126" height="24" viewBox="0 0 126 24" fill="none" xmlns="http://www.w3.org/2000/svg">
<path d="M122.771 20.8961L125.075 23.1041H119.891V21.4401C119.465 22.1228 118.835 22.6668 118.003 23.0721C117.171 23.4774 116.297 23.6801 115.379 23.6801C113.139 23.6801 111.39 22.9228 110.131 21.4081C108.894 19.8721 108.275 17.8348 108.275 15.2961C108.275 13.0348 108.937 11.1148 110.259 9.5361C111.603 7.95744 113.321 7.1681 115.411 7.1681C116.521 7.1681 117.459 7.40277 118.227 7.8721C118.995 8.3201 119.55 8.9281 119.891 9.6961V3.5201C119.891 2.85877 119.657 2.34677 119.187 1.9841L117.587 0.704102H122.771V20.8961ZM111.635 15.2961C111.635 17.4721 112.019 19.1681 112.787 20.3841C113.555 21.6001 114.654 22.2081 116.083 22.2081C116.787 22.2081 117.491 22.0374 118.195 21.6961C118.921 21.3334 119.486 20.8214 119.891 20.1601V13.2161C119.891 11.8508 119.539 10.7521 118.835 9.9201C118.153 9.06677 117.257 8.6401 116.147 8.6401C114.697 8.6401 113.577 9.2481 112.787 10.4641C112.019 11.6801 111.635 13.2908 111.635 15.2961Z" fill="white"/>
<path d="M105.848 13.696C105.848 12.864 105.763 12.1066 105.592 11.424C105.443 10.72 105.08 10.08 104.504 9.50397C103.949 8.92797 103.224 8.63997 102.328 8.63997C101.176 8.63997 100.237 9.1093 99.5121 10.048C98.8081 10.9866 98.3708 12.2026 98.2001 13.696H105.848ZM94.7441 15.264C94.7441 13.0026 95.4375 11.0933 96.8241 9.53597C98.2108 7.9573 100.045 7.16797 102.328 7.16797C104.504 7.16797 106.168 7.8613 107.32 9.24797C108.472 10.6133 109.048 12.1493 109.048 13.856V15.136L98.1041 15.168C98.1041 17.0453 98.5841 18.5813 99.5441 19.776C100.504 20.9493 101.667 21.536 103.032 21.536C105.357 21.536 107.16 20.608 108.44 18.752C108.12 20.1173 107.427 21.28 106.36 22.24C105.293 23.2 103.885 23.68 102.136 23.68C100.003 23.68 98.2321 22.9333 96.8241 21.44C95.4375 19.9253 94.7441 17.8666 94.7441 15.264Z" fill="white"/>
<path d="M92.3169 13.696C92.3169 12.864 92.2316 12.1066 92.0609 11.424C91.9116 10.72 91.5489 10.08 90.9729 9.50397C90.4182 8.92797 89.6929 8.63997 88.7969 8.63997C87.6449 8.63997 86.7062 9.1093 85.9809 10.048C85.2769 10.9866 84.8396 12.2026 84.6689 13.696H92.3169ZM81.2129 15.264C81.2129 13.0026 81.9062 11.0933 83.2929 9.53597C84.6796 7.9573 86.5142 7.16797 88.7969 7.16797C90.9729 7.16797 92.6369 7.8613 93.7889 9.24797C94.9409 10.6133 95.5169 12.1493 95.5169 13.856V15.136L84.5729 15.168C84.5729 17.0453 85.0529 18.5813 86.0129 19.776C86.9729 20.9493 88.1356 21.536 89.5009 21.536C91.8262 21.536 93.6289 20.608 94.9089 18.752C94.5889 20.1173 93.8956 21.28 92.8289 22.24C91.7622 23.2 90.3542 23.68 88.6049 23.68C86.4716 23.68 84.7009 22.9333 83.2929 21.44C81.9062 19.9253 81.2129 17.8666 81.2129 15.264Z" fill="white"/>
<path d="M82.1264 7.744V9.504H78.3824V21.056L81.1664 23.104H73.3584L75.5024 21.056V9.504H72.3984V8.16L75.6624 7.776C74.5744 7.072 74.0304 6.02667 74.0304 4.64C74.0304 3.25333 74.5638 2.13333 75.6304 1.28C76.7184 0.426667 78.0411 0 79.5984 0C80.6224 0 81.4544 0.16 82.0944 0.480001C82.7558 0.778668 83.0864 1.20533 83.0864 1.76C83.0864 2.12267 82.9691 2.45333 82.7344 2.752C82.4998 3.05067 82.1264 3.2 81.6144 3.2C81.3371 3.2 80.8464 3.12533 80.1424 2.976C79.4384 2.80533 78.8518 2.72 78.3824 2.72C77.5078 2.72 76.8038 2.93333 76.2704 3.36C75.7584 3.78667 75.5024 4.37333 75.5024 5.12C75.5024 5.99467 75.8224 6.656 76.4624 7.104C77.1024 7.53067 77.9131 7.744 78.8944 7.744H82.1264Z" fill="white"/>
<path d="M61.9883 0.704102H67.1723V21.0561L69.6363 23.1041H62.1483L64.2923 21.0561V3.5201C64.2923 2.85877 64.0576 2.34677 63.5883 1.9841L61.9883 0.704102Z" fill="white"/>
<path d="M58.9343 18.528C58.9343 17.696 58.657 16.9386 58.1023 16.256C57.569 15.5733 56.8223 15.232 55.8623 15.232C54.9876 15.232 54.2623 15.5413 53.6863 16.16C53.1316 16.7573 52.8543 17.5466 52.8543 18.528C52.8543 19.552 53.121 20.3733 53.6543 20.992C54.209 21.5893 54.945 21.888 55.8623 21.888C56.801 21.888 57.5476 21.5893 58.1023 20.992C58.657 20.3733 58.9343 19.552 58.9343 18.528ZM49.6543 18.752C49.6543 17.216 50.1556 16.0106 51.1583 15.136C52.1823 14.2613 53.4196 13.824 54.8703 13.824C55.7663 13.824 56.5876 14.0266 57.3343 14.432C58.081 14.8373 58.6143 15.3066 58.9343 15.84V12.32C58.9343 11.3173 58.689 10.4533 58.1983 9.72797C57.7076 9.00264 56.9183 8.63997 55.8303 8.63997C54.1876 8.63997 53.2383 9.56797 52.9823 11.424C52.8116 12.6613 52.2676 13.28 51.3503 13.28C50.945 13.28 50.6143 13.1306 50.3583 12.832C50.1236 12.5333 50.0063 12.1493 50.0063 11.68C50.0063 10.4426 50.5396 9.38664 51.6063 8.51197C52.6943 7.61597 54.1023 7.16797 55.8303 7.16797C57.793 7.16797 59.2756 7.7013 60.2783 8.76797C61.3023 9.8133 61.8143 11.0826 61.8143 12.576V20.16C61.8143 20.6293 61.9316 21.0346 62.1663 21.376C62.401 21.696 62.7316 21.856 63.1583 21.856C63.5423 21.856 63.8303 21.7493 64.0223 21.536C64.0223 22.048 63.7983 22.4746 63.3503 22.816C62.9023 23.1573 62.337 23.328 61.6543 23.328C60.9716 23.328 60.3956 23.0933 59.9263 22.624C59.457 22.1546 59.2223 21.568 59.2223 20.864C58.9663 21.632 58.4223 22.2933 57.5903 22.848C56.7796 23.4026 55.7983 23.68 54.6463 23.68C53.1956 23.68 52.001 23.232 51.0623 22.336C50.1236 21.4186 49.6543 20.224 49.6543 18.752Z" fill="white"/>
<path d="M40.5621 23.6799C38.9194 23.6799 37.6181 23.1786 36.6581 22.1759C35.6981 21.1732 35.2181 19.9039 35.2181 18.3679V9.5999L32.9141 7.7439H38.0981V17.8239C38.0981 20.3626 39.2607 21.6319 41.5861 21.6319C42.4394 21.6319 43.1967 21.3226 43.8581 20.7039C44.5407 20.0852 44.9994 19.2319 45.2341 18.1439V9.5999L42.9301 7.7439H48.1141V20.8959L50.4181 23.1039H45.2341V20.4799C44.8714 21.4186 44.2634 22.1866 43.4101 22.7839C42.5781 23.3812 41.6287 23.6799 40.5621 23.6799Z" fill="white"/>
<path d="M27.8907 22.272C28.9147 22.272 29.7467 22.048 30.3867 21.6C31.0267 21.152 31.3467 20.5013 31.3467 19.648C31.3467 18.8373 30.9947 18.208 30.2907 17.76C29.5867 17.2906 28.5627 16.8533 27.2187 16.448C25.768 16.0213 24.6587 15.4346 23.8907 14.688C23.1227 13.9413 22.7387 12.96 22.7387 11.744C22.7387 10.4213 23.24 9.3333 24.2427 8.47997C25.2454 7.6053 26.568 7.16797 28.2107 7.16797C29.8107 7.16797 31.1014 7.5093 32.0827 8.19197C33.0854 8.87464 33.64 9.72797 33.7467 10.752C33.7894 11.1146 33.6934 11.4346 33.4587 11.712C33.224 11.968 32.936 12.096 32.5947 12.096C31.848 12.096 31.368 11.68 31.1547 10.848C30.7494 9.31197 29.768 8.54397 28.2107 8.54397C27.4214 8.54397 26.76 8.7573 26.2267 9.18397C25.7147 9.61063 25.4587 10.1866 25.4587 10.912C25.4587 11.296 25.544 11.6373 25.7147 11.936C25.8854 12.2346 26.0667 12.48 26.2587 12.672C26.472 12.8426 26.7814 13.024 27.1867 13.216C27.6134 13.408 27.9334 13.536 28.1467 13.6C28.36 13.664 28.712 13.7706 29.2027 13.92C32.5094 14.8586 34.1627 16.4693 34.1627 18.752C34.1627 20.1813 33.5974 21.3653 32.4667 22.304C31.336 23.2213 29.8107 23.68 27.8907 23.68C26.2694 23.68 24.8827 23.2746 23.7307 22.464C22.5787 21.632 21.9494 20.6186 21.8427 19.424C21.8 18.9973 21.8854 18.6453 22.0987 18.368C22.3334 18.0906 22.6427 17.952 23.0267 17.952C23.816 17.952 24.296 18.4746 24.4667 19.52C24.5947 20.3733 24.9574 21.0453 25.5547 21.536C26.1734 22.0266 26.952 22.272 27.8907 22.272Z" fill="white"/>
<path d="M21.1099 21.056L23.2539 23.104H16.0859L18.2299 21.056V11.904C18.2299 11.2853 18.0273 10.8053 17.6219 10.464L16.1499 9.21597L21.1099 7.32796V21.056ZM18.0059 3.80796C17.5793 3.40263 17.3659 2.87996 17.3659 2.23997C17.3659 1.59996 17.5793 1.0773 18.0059 0.671965C18.4326 0.266631 18.9659 0.0639648 19.6059 0.0639648C20.2459 0.0639648 20.7686 0.266631 21.1739 0.671965C21.6006 1.0773 21.8139 1.59996 21.8139 2.23997C21.8139 2.87996 21.6006 3.40263 21.1739 3.80796C20.7686 4.2133 20.2459 4.41596 19.6059 4.41596C18.9659 4.41596 18.4326 4.2133 18.0059 3.80796Z" fill="white"/>
<path d="M18.112 7.7439L15.584 9.6319L9.824 23.2639H7.968L2.464 9.6319L0 7.7439H7.872L5.568 9.5679L9.536 19.9999L13.856 9.6319L11.392 7.7439H18.112Z" fill="white"/>
</svg>
