<svg width="54" height="56" viewBox="0 0 54 56" fill="none" xmlns="http://www.w3.org/2000/svg">
<g clip-path="url(#clip0_3257_189278)">
<path d="M53.7311 52.8597C53.6107 52.4747 53.4474 52.0446 53.2456 51.5806C53.0468 51.1239 52.8065 50.625 52.5311 50.097C52.2582 49.5744 51.9443 49.0095 51.5978 48.419C51.2537 47.8323 50.8691 47.2074 50.4558 46.5606C50.0434 45.9158 49.5926 45.2346 49.1155 44.5359C48.6383 43.8373 48.1241 43.1047 47.5875 42.3595C47.0777 41.6516 46.5347 40.9156 45.9742 40.1704C47.8979 36.8721 48.9244 33.1141 48.9244 29.199C48.9244 23.8774 47.0304 18.8462 43.5606 14.8652C43.9071 14.3876 44.2454 13.9158 44.569 13.4562C45.0979 12.7062 45.6043 11.9687 46.0746 11.2643C46.5444 10.5607 46.988 9.87518 47.394 9.2255C47.8009 8.57436 48.1787 7.94504 48.5164 7.35547C48.8566 6.76203 49.1647 6.19428 49.4327 5.66823C49.7028 5.13684 49.9382 4.63552 50.1317 4.17686C50.3286 3.7119 50.4875 3.2799 50.604 2.893C50.7239 2.49592 50.8023 2.1352 50.8369 1.8215C50.874 1.48939 50.8632 1.198 50.8052 0.955096C50.7409 0.685525 50.6176 0.467831 50.4382 0.307834C50.2589 0.147837 50.0283 0.0489296 49.752 0.0140211C49.5029 -0.0174935 49.2105 0.00335461 48.883 0.0751109C48.5735 0.142989 48.2216 0.25935 47.837 0.419832C47.4632 0.576436 47.0484 0.779584 46.6044 1.02394C46.1677 1.26442 45.691 1.55048 45.1885 1.87484C44.6919 2.19532 44.1572 2.5604 43.5996 2.96088C43.0454 3.35893 42.4567 3.79965 41.8503 4.27092C41.2455 4.74073 40.6075 5.2532 39.9534 5.79331C39.3003 6.33343 38.617 6.9133 37.9234 7.51644C37.2981 8.06043 36.6503 8.63593 35.9962 9.22792C33.1732 7.95231 30.0836 7.27983 26.8902 7.27983C23.6968 7.27983 20.4235 7.99255 17.5327 9.34283C16.8747 8.76005 16.2236 8.19279 15.5934 7.65607C14.8935 7.05972 14.2048 6.48712 13.5458 5.9538C12.8874 5.42096 12.244 4.91527 11.6333 4.45079C11.0211 3.98535 10.428 3.55044 9.87037 3.15869C9.30938 2.76452 8.7713 2.40477 8.27025 2.08865C7.76482 1.77011 7.28571 1.48842 6.8456 1.2523C6.39914 1.01279 5.98242 0.813522 5.60664 0.660798C5.22062 0.50371 4.86775 0.391227 4.55728 0.326258C4.22877 0.257411 3.93585 0.239957 3.68776 0.273895C3.4119 0.311713 3.18185 0.41256 3.00443 0.574496C2.82702 0.736433 2.70566 0.955581 2.64425 1.22564C2.58917 1.46903 2.58137 1.76042 2.62183 2.09205C2.65984 2.40525 2.74221 2.765 2.86601 3.16112C2.9864 3.54657 3.14968 3.97662 3.35146 4.44013C3.54983 4.89636 3.79011 5.39526 4.06598 5.92422C4.33892 6.44736 4.6528 7.0122 4.99934 7.60225C5.34344 8.18843 5.72751 8.81387 6.14131 9.46065C6.55365 10.1055 7.00449 10.7867 7.48165 11.4858C7.95881 12.1845 8.47252 12.9166 9.00963 13.6623C9.34106 14.1224 9.68711 14.5946 10.0419 15.0732C6.68622 19.0207 4.85654 23.969 4.85654 29.198C4.85654 33.1722 5.9137 36.9845 7.89447 40.3188C7.3364 41.0766 6.79637 41.8247 6.28948 42.5437C5.75968 43.2952 5.25328 44.0327 4.78391 44.7357C4.31406 45.4397 3.87005 46.1257 3.46453 46.7744C3.05805 47.4251 2.68032 48.0544 2.34206 48.6445C2.00186 49.2379 1.69383 49.8056 1.42625 50.3317C1.15574 50.8636 0.92033 51.3654 0.726835 51.8231C0.529927 52.2885 0.371036 52.7205 0.254548 53.1069C0.134649 53.504 0.0566658 53.8642 0.0215734 54.1784C-0.0154687 54.5105 -0.00474599 54.8019 0.0532541 55.0443C0.11759 55.3139 0.240901 55.5316 0.420263 55.6916C0.599624 55.8516 0.830162 55.9505 1.10652 55.9854C1.18157 55.9946 1.26102 55.9995 1.34388 55.9995C1.53542 55.9995 1.74695 55.9743 1.97554 55.9238C2.28504 55.856 2.63694 55.7401 3.02149 55.5791C3.39581 55.4225 3.81059 55.2189 4.25412 54.975C4.6918 54.734 5.16798 54.448 5.67 54.1241C6.16665 53.8036 6.70133 53.4381 7.25891 53.0381C7.81113 52.6415 8.3999 52.2008 9.00866 51.728C9.61352 51.2577 10.2515 50.7458 10.9051 50.2056C11.5577 49.666 12.2411 49.0861 12.9351 48.4825C13.3977 48.0801 13.8734 47.6593 14.3544 47.2282C18.0099 49.7547 22.3448 51.1162 26.8902 51.1162C31.4357 51.1162 35.8871 49.7193 39.5732 47.1274C40.0582 47.5531 40.5368 47.9676 41.0032 48.3652C41.7022 48.9611 42.3913 49.5337 43.0508 50.0675C43.7093 50.6003 44.3526 51.106 44.9633 51.5705C45.5765 52.0369 46.1696 52.4718 46.7262 52.8626C47.2877 53.2572 47.8258 53.617 48.3264 53.9321C48.8328 54.2516 49.3119 54.5328 49.7505 54.7685C50.1965 55.008 50.6132 55.2072 50.9895 55.36C51.3755 55.5171 51.7284 55.6295 52.0388 55.6945C52.2592 55.7406 52.4634 55.7634 52.6486 55.7634C52.7397 55.7634 52.8265 55.7575 52.9084 55.7464C53.1842 55.7091 53.4143 55.6077 53.5917 55.4458C53.7691 55.2839 53.89 55.0647 53.9519 54.7947C54.0074 54.5513 54.0147 54.2599 53.9743 53.9282C53.9363 53.615 53.8539 53.2553 53.7301 52.8592L53.7311 52.8597ZM25.8764 8.07497C25.7107 8.35909 25.5513 8.71981 25.3983 9.15956C25.0128 10.266 24.6677 11.8431 24.3723 13.8484C24.2997 14.341 24.231 14.853 24.1667 15.3825C23.3727 15.3995 22.5919 15.4242 21.8272 15.4557C21.9631 14.9418 22.1074 14.4443 22.26 13.9663C23.2582 10.8366 24.5376 8.77557 25.8769 8.07497H25.8764ZM24.1038 42.4846C23.2835 42.4661 22.4773 42.4395 21.6892 42.4055C21.5474 41.8339 21.4153 41.2429 21.2935 40.6344C21.5635 40.3644 21.834 40.0933 22.104 39.8199C22.6377 39.2802 23.1787 38.7275 23.7192 38.17C23.8216 39.6958 23.9503 41.143 24.1038 42.4846ZM23.9936 32.1245C24.1111 32.1264 24.2286 32.1284 24.3465 32.1298C25.0693 32.9114 25.7989 33.691 26.5227 34.4542C25.7507 35.2818 24.9718 36.106 24.2032 36.9074C24.1935 36.9176 24.1837 36.9278 24.174 36.9375C24.0867 35.3952 24.0263 33.7826 23.9936 32.1245ZM23.4395 30.3592C22.9331 29.8031 22.4296 29.246 21.9354 28.6938C21.4021 28.0979 20.8709 27.4977 20.346 26.8994C21.3578 26.8601 22.3964 26.83 23.4541 26.8092C23.4414 27.5971 23.4346 28.3941 23.4346 29.198C23.4346 29.5864 23.4361 29.9737 23.439 30.3587L23.4395 30.3592ZM21.5396 29.0443C22.1654 29.7434 22.8049 30.4503 23.4477 31.1529C23.4497 31.2978 23.4516 31.4428 23.4541 31.5873C22.376 31.5664 21.3183 31.5354 20.288 31.4947C20.2626 30.7369 20.2495 29.9708 20.2495 29.198C20.2495 28.6656 20.2558 28.1367 20.268 27.6111C20.6891 28.0892 21.1141 28.5682 21.5401 29.0438L21.5396 29.0443ZM23.4638 32.1148C23.4984 33.8651 23.5637 35.5654 23.6583 37.1872C22.665 37.2129 21.6926 37.2507 20.7495 37.2997C20.5321 35.6178 20.3835 33.8476 20.3079 32.0232C21.3354 32.0634 22.3896 32.0939 23.4638 32.1148ZM23.4638 26.2822C22.3896 26.303 21.3354 26.3336 20.3079 26.3738C20.3835 24.5508 20.5321 22.7816 20.749 21.1007C21.6926 21.1492 22.6645 21.186 23.6578 21.2117C23.5633 22.8325 23.4979 24.5329 23.4638 26.2822ZM20.2889 20.548C19.3102 20.4932 18.3652 20.4258 17.4625 20.3472C17.7901 18.8685 18.2014 17.4649 18.6913 16.1607C19.4818 16.103 20.2992 16.054 21.139 16.0137C20.7953 17.4217 20.5107 18.9431 20.2889 20.548ZM19.7577 31.4734C18.664 31.4263 17.6034 31.3686 16.5842 31.3008C16.5516 30.6065 16.5345 29.9054 16.5345 29.1985C16.5345 28.4916 16.5511 27.7905 16.5842 27.0962C17.5756 27.0298 18.606 26.9736 19.668 26.9275C19.6968 26.9605 19.7255 26.9929 19.7543 27.0259C19.7318 27.7435 19.7201 28.4683 19.7201 29.1985C19.7201 29.9287 19.7328 30.7223 19.7577 31.4734ZM19.5057 25.9365C18.7244 25.0361 17.949 24.1285 17.2003 23.2388C17.1267 23.1511 17.0536 23.0633 16.98 22.9756C17.0858 22.2585 17.2101 21.555 17.3519 20.866C18.2672 20.947 19.2259 21.0158 20.2192 21.0716C20.0067 22.7268 19.86 24.4645 19.783 26.2545C19.6904 26.1484 19.5973 26.0417 19.5057 25.936V25.9365ZM19.1046 26.2812C19.1445 26.3273 19.1855 26.3738 19.2254 26.4199C18.3296 26.4616 17.4567 26.51 16.612 26.5663C16.67 25.5879 16.7612 24.6255 16.883 23.6825C17.6058 24.5406 18.3525 25.4143 19.1046 26.2812ZM16.5277 22.4345C16.0213 21.8265 15.5217 21.2204 15.0373 20.6246C15.608 20.6944 16.2036 20.7589 16.8206 20.8175C16.7124 21.348 16.6145 21.8876 16.5272 22.4345H16.5277ZM16.4229 23.1341C16.2635 24.2633 16.148 25.4226 16.0798 26.6031C14.9646 26.6822 13.9016 26.7738 12.902 26.8776C13.0623 24.6269 13.4532 22.4805 14.0381 20.4932C14.117 20.5043 14.197 20.5155 14.2774 20.5261C14.391 20.6668 14.5045 20.8074 14.6191 20.948C15.2035 21.6665 15.8093 22.3996 16.4229 23.1341ZM16.052 27.1336C16.0208 27.8162 16.0042 28.5047 16.0042 29.199C16.0042 29.8933 16.0208 30.5817 16.052 31.2644C14.9334 31.1844 13.8685 31.0918 12.8683 30.9871C12.8362 30.3975 12.8186 29.8011 12.8186 29.1995C12.8186 28.5978 12.8362 28.0014 12.8683 27.4114C13.868 27.3066 14.9334 27.2136 16.052 27.134V27.1336ZM16.0798 31.7948C16.1958 33.8016 16.4463 35.7462 16.8226 37.5857C15.8356 37.6803 14.9042 37.7898 14.041 37.913C13.4547 35.9232 13.0633 33.7739 12.9025 31.5204C13.9016 31.6241 14.9646 31.7158 16.0803 31.7948H16.0798ZM16.9327 38.1045C17.2486 39.5411 17.6414 40.9093 18.1083 42.1874C17.2315 42.117 16.3917 42.0356 15.5968 41.9444C15.0592 40.8468 14.5893 39.6686 14.196 38.4235C15.046 38.3038 15.9623 38.1971 16.9322 38.105L16.9327 38.1045ZM16.6125 31.8312C17.6297 31.8986 18.6878 31.9558 19.7777 32.0018C19.8527 33.8423 20.0019 35.6294 20.2202 37.3288C19.2264 37.3855 18.2682 37.4548 17.3534 37.5363C16.98 35.7259 16.73 33.8098 16.6125 31.8312ZM16.9318 20.2988C16.0988 20.2202 15.3048 20.131 14.5586 20.0321C14.4675 19.9196 14.3778 19.8071 14.2876 19.6951C14.6629 18.5504 15.1026 17.4634 15.6012 16.4457C16.3956 16.3551 17.2354 16.2746 18.1108 16.2053C17.6429 17.4862 17.2486 18.8583 16.9322 20.2988H16.9318ZM13.8889 19.1977C13.5902 18.8229 13.2953 18.451 13.0082 18.085C12.745 17.7495 12.4857 17.4154 12.2294 17.0833C12.2586 17.0319 12.2879 16.9805 12.3176 16.9296C12.7889 16.8399 13.3163 16.7512 13.907 16.6654C14.2511 16.6154 14.6074 16.5674 14.9729 16.5219C14.5674 17.3776 14.2058 18.2716 13.8889 19.1982V19.1977ZM12.5905 18.4093C12.9483 18.8651 13.3167 19.3296 13.6911 19.7974C13.6799 19.8333 13.6682 19.8692 13.6569 19.9051C12.5935 19.7441 11.7429 19.5749 11.0689 19.4076C11.3365 18.7846 11.6299 18.1771 11.9486 17.5861C12.1606 17.8595 12.3736 18.1339 12.59 18.4093H12.5905ZM13.5039 20.4146C12.9054 22.4713 12.5208 24.6657 12.3668 26.9353C12.0666 26.9687 11.7717 27.0026 11.4841 27.0385C10.6346 27.1437 9.86209 27.2562 9.16901 27.375C9.35227 24.7525 9.92837 22.2279 10.8647 19.9002C11.6006 20.0864 12.4828 20.2585 13.5039 20.4151V20.4146ZM11.5494 27.5612C11.8058 27.5297 12.068 27.4986 12.3351 27.4686C12.3054 28.0412 12.2898 28.6181 12.2898 29.199C12.2898 29.7798 12.3054 30.3563 12.3351 30.9289C12.068 30.8988 11.8063 30.8683 11.5494 30.8368C10.6565 30.7262 9.85185 30.6079 9.13684 30.4823C9.11588 30.0567 9.10419 29.629 9.10419 29.199C9.10419 28.7689 9.11588 28.3413 9.13684 27.9156C9.85185 27.79 10.6565 27.6717 11.5494 27.5617V27.5612ZM11.4841 31.3594C11.7717 31.3948 12.0666 31.4292 12.3668 31.4627C12.5208 33.7356 12.9064 35.9329 13.5063 37.992C12.4848 38.1501 11.6026 38.3241 10.87 38.5118C9.93081 36.1802 9.35227 33.6508 9.16901 31.0229C9.86209 31.1422 10.6346 31.2547 11.4841 31.3594ZM11.6191 41.3122C9.44829 40.8313 8.79956 40.3474 8.79956 40.0938C8.79956 39.8873 9.22896 39.529 10.5591 39.143C10.8764 39.8878 11.2297 40.6121 11.6191 41.3122ZM11.0752 39.0039C11.7454 38.8352 12.5949 38.6645 13.6599 38.5016C14.0264 39.6759 14.4641 40.8017 14.9685 41.8683C14.6254 41.8252 14.2915 41.7796 13.9674 41.7326C13.3479 41.6424 12.7977 41.5493 12.3093 41.4552C11.8502 40.6693 11.4388 39.8504 11.0747 39.0044L11.0752 39.0039ZM13.8909 42.2538C14.3252 42.3173 14.7775 42.3769 15.2459 42.4332C15.6226 43.1779 16.033 43.8911 16.4765 44.5679C16.1227 44.8995 15.7708 45.2263 15.4223 45.5463C15.0475 45.1648 14.6829 44.7638 14.331 44.342C13.7305 43.622 13.1793 42.8584 12.6768 42.0589C13.0584 42.1263 13.4635 42.1912 13.8909 42.2538ZM15.8829 42.5059C16.6564 42.5907 17.4694 42.6664 18.315 42.7313C18.3233 42.7527 18.3316 42.774 18.3398 42.7953C17.8802 43.2385 17.4235 43.6748 16.9746 44.0991C16.9396 44.1325 16.9045 44.165 16.8694 44.198C16.5214 43.6608 16.1919 43.0964 15.8824 42.5059H15.8829ZM17.4645 38.0551C18.3666 37.9755 19.3112 37.9077 20.2899 37.8524C20.4142 38.7493 20.5575 39.6206 20.7203 40.4604C20.247 40.9321 19.7762 41.3975 19.3127 41.8514C19.1772 41.9837 19.0417 42.1156 18.9062 42.247C18.8341 42.2417 18.7619 42.2368 18.6903 42.2315C18.2019 40.9302 17.7915 39.5299 17.4645 38.0551ZM19.6841 42.2271C20.0672 41.8523 20.4551 41.4693 20.8455 41.0819C20.9381 41.5241 21.0356 41.9575 21.139 42.3803C20.6218 42.3556 20.114 42.327 19.6149 42.295C19.6378 42.2722 19.6612 42.2499 19.6841 42.2276V42.2271ZM20.8202 37.8233C21.6649 37.7797 22.5329 37.7452 23.419 37.7205C22.8526 38.3052 22.2858 38.8846 21.7272 39.4495C21.5425 39.6361 21.3578 39.8218 21.1736 40.007C21.0425 39.2996 20.9245 38.5709 20.8207 37.8233H20.8202ZM23.6905 20.6847C22.7103 20.66 21.7511 20.6231 20.8197 20.5756C21.0463 18.948 21.3378 17.4081 21.6907 15.9885C22.4788 15.9551 23.285 15.9289 24.1048 15.9105C23.9356 17.3858 23.7972 18.9892 23.6905 20.6842V20.6847ZM21.7555 13.8063C21.5849 14.3415 21.4241 14.9005 21.2735 15.4794C20.4615 15.5173 19.6695 15.5628 18.9018 15.6167C19.126 15.0581 19.3648 14.5185 19.6188 14.0017C21.0425 11.0994 22.7951 9.1455 24.6945 8.29364C23.5852 9.3535 22.5792 11.223 21.7555 13.8063ZM19.1426 13.7704C18.8472 14.3721 18.5723 15.0033 18.3164 15.6598C17.4718 15.7248 16.6593 15.799 15.8863 15.8828C17.7257 12.3774 20.2729 9.76755 23.1963 8.5569C21.6834 9.64488 20.3016 11.4078 19.1426 13.7699V13.7704ZM16.5321 13.7408C16.0681 14.4414 15.6406 15.1818 15.2488 15.9551C14.7575 16.0133 14.2833 16.0758 13.829 16.1422C13.4264 16.2009 13.0448 16.262 12.6831 16.3255C13.1837 15.5304 13.7325 14.7711 14.33 14.0545C16.383 11.592 18.8487 9.80731 21.5376 8.7906C19.6812 9.88488 17.9797 11.5547 16.5321 13.7413V13.7408ZM19.6992 9.02817C17.5673 10.1166 15.609 11.6953 13.9226 13.7175C13.2081 14.5747 12.5613 15.4911 11.9827 16.4559C11.9145 16.4695 11.8458 16.4831 11.779 16.4966C11.5631 16.2145 11.3496 15.9342 11.1415 15.6579C11.0002 15.4707 10.8603 15.2841 10.7219 15.0979C11.0313 14.7473 11.3525 14.405 11.6869 14.072C13.9884 11.7825 16.7197 10.0769 19.6997 9.02768L19.6992 9.02817ZM9.44244 13.3549C8.90777 12.6131 8.39649 11.8844 7.92177 11.1896C7.44753 10.4953 6.99961 9.81846 6.5902 9.17798C6.1803 8.53654 5.79965 7.91691 5.45847 7.33656C5.11681 6.75427 4.80682 6.19719 4.53778 5.6818C4.26776 5.16399 4.03284 4.67576 3.83934 4.23116C3.64536 3.78511 3.48842 3.37251 3.37339 3.005C3.25885 2.63943 3.18379 2.31119 3.14919 2.0295C3.11605 1.75799 3.12092 1.52721 3.16284 1.34297C3.20037 1.17715 3.26665 1.05303 3.36413 0.963823C3.4621 0.874612 3.59174 0.819825 3.76136 0.797038C3.94949 0.771341 4.18101 0.786856 4.45005 0.843098C4.72933 0.901278 5.05149 1.00455 5.40778 1.14952C5.76602 1.29545 6.16568 1.486 6.59556 1.71678C7.02447 1.94708 7.49334 2.22247 7.98805 2.5347C8.4813 2.84597 9.01207 3.20088 9.56575 3.58972C10.118 3.97759 10.7058 4.40861 11.3126 4.87018C11.9189 5.33126 12.5584 5.83356 13.2124 6.36349C13.868 6.8939 14.5533 7.46407 15.2498 8.05752C15.8249 8.54769 16.418 9.06308 17.018 9.59252C14.9339 10.6335 13.0087 12.0124 11.3116 13.7006C10.9963 14.0143 10.6931 14.3367 10.3992 14.6659C10.0707 14.2223 9.74999 13.7835 9.44195 13.3563L9.44244 13.3549ZM10.368 15.5085C10.484 15.6637 10.6 15.8184 10.7175 15.9745C10.8788 16.1883 11.043 16.405 11.2088 16.6222C10.6838 16.7444 10.2242 16.8729 9.83382 17.0077C9.48533 17.1279 9.19533 17.2511 8.96138 17.3786C9.39321 16.7332 9.86306 16.1093 10.368 15.5081V15.5085ZM11.5616 17.0833C11.5728 17.0978 11.5841 17.1124 11.5953 17.1269C11.2127 17.8188 10.8642 18.5335 10.5518 19.2685C9.17925 18.8767 8.73815 18.5112 8.73815 18.3022C8.73815 18.0486 9.38785 17.5643 11.5616 17.0828V17.0833ZM8.24637 18.5262C8.38187 18.9281 8.89461 19.2728 9.83382 19.5967C9.99368 19.652 10.1662 19.7058 10.349 19.7591C9.3898 22.1615 8.80493 24.7666 8.63044 27.4705C7.91543 27.6058 7.29692 27.7488 6.78175 27.8991C6.17153 28.0775 5.71484 28.2632 5.40242 28.463C5.52183 24.9212 6.50296 21.5293 8.24637 18.5262ZM8.60071 30.3825C7.95783 30.2579 7.39976 30.127 6.93089 29.9902C5.42971 29.5519 5.41265 29.2116 5.41265 29.1975C5.41265 29.1835 5.42971 28.8431 6.93089 28.4048C7.39976 28.2676 7.95783 28.1367 8.60071 28.0126C8.58316 28.4058 8.5739 28.8009 8.5739 29.1975C8.5739 29.5941 8.58365 29.9893 8.60071 30.3825ZM5.40193 29.932C5.71435 30.1318 6.17104 30.318 6.78126 30.4959C7.29644 30.6462 7.91494 30.7892 8.62995 30.9245C8.80541 33.6343 9.39272 36.2452 10.3553 38.6519C10.193 38.6999 10.0385 38.7489 9.89425 38.7983C8.90094 39.1406 8.3843 39.5067 8.28682 39.9391C6.51758 36.9186 5.52183 33.5014 5.40144 29.932H5.40193ZM12.5871 48.0849C11.896 48.6861 11.2166 49.2631 10.5673 49.7993C9.91765 50.3361 9.28404 50.8451 8.68308 51.312C8.07968 51.7809 7.49676 52.2177 6.9499 52.61C6.39963 53.0051 5.87227 53.3653 5.38292 53.6815C4.89163 53.9985 4.42568 54.2783 3.99921 54.513C3.57176 54.7481 3.17453 54.943 2.81727 55.0928C2.46245 55.2412 2.14126 55.3479 1.86295 55.4089C1.59489 55.4676 1.36289 55.4855 1.17475 55.4618C1.00514 55.4405 0.874515 55.3871 0.776061 55.2989C0.677608 55.2106 0.610347 55.0875 0.570868 54.9222C0.527002 54.7384 0.520179 54.5076 0.550397 54.2356C0.582078 53.9535 0.653725 53.6242 0.764364 53.2577C0.87549 52.8892 1.02804 52.4752 1.21764 52.0267C1.40626 51.5806 1.63631 51.09 1.90146 50.5693C2.16514 50.0505 2.46927 49.491 2.80509 48.9048C3.13993 48.3201 3.51425 47.6966 3.91732 47.0518C4.31991 46.4074 4.76052 45.7262 5.22793 45.0266C5.69486 44.3274 6.19882 43.5934 6.72618 42.8458C7.19165 42.1854 7.68587 41.4998 8.19568 40.806C9.07348 42.1995 10.1155 43.5042 11.3131 44.6954C12.1299 45.508 12.9999 46.2479 13.9148 46.9136C13.4654 47.3155 13.0214 47.7082 12.5886 48.0845L12.5871 48.0849ZM14.3159 46.5528C13.3903 45.8862 12.5101 45.1425 11.6864 44.3231C10.6424 43.2845 9.71977 42.1578 8.92434 40.9602C9.1734 41.1081 9.49508 41.2497 9.89474 41.3878C10.4509 41.5794 11.1469 41.7592 11.974 41.9255C12.5545 42.8957 13.2042 43.8164 13.9226 44.678C14.2803 45.1071 14.6507 45.5148 15.0319 45.9037C14.9305 45.9963 14.8286 46.0898 14.7282 46.181C14.5903 46.3061 14.4534 46.4297 14.3164 46.5533L14.3159 46.5528ZM14.7594 46.8641C14.8681 46.7662 14.9763 46.6687 15.085 46.5698C15.1913 46.4733 15.2995 46.3739 15.4067 46.276C16.7232 47.5487 18.1658 48.5848 19.6987 49.3673C17.9548 48.7535 16.2967 47.9138 14.7594 46.8641ZM15.7971 45.9182C16.1202 45.621 16.4458 45.3189 16.7743 45.012C18.1683 47.0236 19.7835 48.5717 21.5376 49.6054C19.4618 48.8204 17.5196 47.5773 15.7971 45.9182ZM17.1657 44.644C17.2237 44.5897 17.2807 44.5359 17.3387 44.4811C17.7384 44.1034 18.1444 43.7165 18.5528 43.3233C18.74 43.7704 18.9359 44.2053 19.1421 44.6256C20.3006 46.9882 21.6824 48.7511 23.1958 49.8386C20.9006 48.8883 18.837 47.076 17.1657 44.644ZM19.6183 44.3943C19.3873 43.9236 19.1689 43.4339 18.9622 42.9282C19.01 42.8816 19.0583 42.8361 19.106 42.789C19.8089 42.837 20.5326 42.8787 21.272 42.9136C21.4226 43.4935 21.5835 44.0535 21.7545 44.5897C22.5787 47.1734 23.5842 49.0425 24.6935 50.1024C22.7941 49.25 21.0415 47.2966 19.6178 44.3943H19.6183ZM22.26 44.4302C22.1074 43.9512 21.9631 43.4528 21.8267 42.9384C22.5919 42.9704 23.3727 42.9951 24.1667 43.0125C24.2315 43.5425 24.2997 44.0554 24.3728 44.548C24.6682 46.5529 25.0137 48.1305 25.3988 49.2369C25.5518 49.6767 25.7112 50.0374 25.8769 50.3215C24.5376 49.6209 23.2586 47.5599 22.26 44.4302ZM26.6261 50.4418C26.2464 50.0776 25.5367 48.8166 24.8968 44.4714C24.8281 44.006 24.7632 43.5221 24.7018 43.0232C25.3364 43.0344 25.9788 43.0407 26.6261 43.0421V50.4418ZM26.6261 42.5151C25.9569 42.5136 25.2935 42.5069 24.6385 42.4947C24.4674 41.0155 24.3275 39.4049 24.2198 37.7002C25.0103 37.6832 25.8141 37.6735 26.6261 37.6715V42.5151ZM26.6261 37.1445C25.9739 37.146 25.3276 37.1528 24.6882 37.1639C25.3306 36.4929 25.9798 35.8073 26.6261 35.1174V37.1445ZM26.6261 33.7938C26.1099 33.2474 25.5913 32.6942 25.0752 32.1386C25.5889 32.1439 26.106 32.1468 26.6261 32.1473V33.7938ZM26.6261 31.6203C25.9388 31.6193 25.2574 31.6144 24.5819 31.6057C24.5478 31.5689 24.5137 31.532 24.4796 31.4952C24.3109 31.3124 24.1433 31.1291 23.9746 30.9458C23.9678 30.3674 23.9644 29.7851 23.9644 29.1985C23.9644 28.3912 23.9712 27.5908 23.9839 26.8C24.8534 26.7859 25.7351 26.7777 26.6256 26.7767V31.6207L26.6261 31.6203ZM26.6261 26.2492C25.739 26.2507 24.8602 26.2584 23.9936 26.2725C24.0282 24.53 24.0935 22.8369 24.1876 21.2238C24.9889 21.2408 25.8033 21.25 26.6256 21.252V26.2492H26.6261ZM26.6261 20.7249C25.8141 20.7235 25.0108 20.7143 24.2198 20.6973C24.327 18.9916 24.4674 17.3805 24.6385 15.9003C25.2935 15.8887 25.9569 15.8824 26.6261 15.8809V20.7245V20.7249ZM26.6261 15.3539C25.9788 15.3553 25.3364 15.3611 24.7018 15.3723C24.7632 14.8734 24.8281 14.39 24.8968 13.9246C25.5372 9.57992 26.2464 8.31885 26.6261 7.95425V15.3534V15.3539ZM45.5736 39.8068C45.4073 39.4315 44.8995 39.1062 44.01 38.7998C43.834 38.7392 43.644 38.6795 43.4397 38.6214C44.395 36.2233 44.9775 33.6236 45.152 30.926C45.867 30.7907 46.4855 30.6477 47.0006 30.4974C47.6109 30.319 48.0676 30.1333 48.38 29.9335C48.2615 33.4505 47.2936 36.8197 45.5731 39.8073L45.5736 39.8068ZM30.0661 38.1142C30.6281 38.6824 31.1905 39.2458 31.7461 39.7961C31.9991 40.0468 32.253 40.296 32.506 40.5442C32.3788 41.1862 32.2404 41.8092 32.0912 42.4104C31.3026 42.4438 30.4969 42.4695 29.6776 42.487C29.8331 41.1285 29.9632 39.6613 30.0661 38.1137V38.1142ZM29.6099 36.8973C28.8271 36.0978 28.0336 35.2755 27.2485 34.4503C27.9571 33.6876 28.6707 32.9099 29.3769 32.1303C29.5144 32.1284 29.6513 32.1264 29.7883 32.124C29.7556 33.7676 29.6957 35.3671 29.6099 36.8973ZM37.7304 27.1331C38.849 27.2131 39.9144 27.3057 40.914 27.4104C40.9462 28 40.9638 28.5963 40.9638 29.1985C40.9638 29.8007 40.9462 30.3965 40.914 30.9861C39.9144 31.0908 38.849 31.1839 37.7304 31.2634C37.7616 30.5808 37.7781 29.8923 37.7781 29.198C37.7781 28.5037 37.7616 27.8152 37.7304 27.1326V27.1331ZM37.7031 26.6027C37.63 25.345 37.5047 24.1115 37.3283 22.913C37.9097 22.2027 38.4824 21.4934 39.0371 20.7977C39.099 20.7196 39.1604 20.642 39.2223 20.564C39.3992 20.5407 39.5727 20.5169 39.7443 20.4927C40.3292 22.4801 40.7201 24.6264 40.8804 26.8771C39.8813 26.7733 38.8182 26.6817 37.7031 26.6027ZM37.2186 22.2115C37.1406 21.7407 37.0553 21.2757 36.9618 20.8175C37.4813 20.7681 37.9853 20.7148 38.4722 20.6571C38.0623 21.1705 37.6436 21.6898 37.2186 22.2115ZM34.0252 26.9236C35.1189 26.9706 36.1795 27.0283 37.1986 27.0962C37.2313 27.7905 37.2483 28.4916 37.2483 29.1985C37.2483 29.9054 37.2318 30.6065 37.1986 31.3008C36.1795 31.3686 35.1184 31.4268 34.0252 31.4734C34.0501 30.7223 34.0627 29.9636 34.0627 29.1985C34.0627 28.4334 34.0496 27.6746 34.0252 26.9236ZM37.1709 26.5658C36.2784 26.5067 35.3543 26.4557 34.4049 26.4126C34.4721 26.3341 34.5399 26.2545 34.6067 26.176C35.3753 25.2718 36.1371 24.3612 36.8726 23.4686C37.0085 24.4791 37.1085 25.5132 37.1709 26.5653V26.5658ZM36.4792 23.1147C35.7408 24.0117 34.9746 24.927 34.2021 25.8356C34.1329 25.9171 34.0622 25.9995 33.9925 26.0814C33.9141 24.3525 33.7698 22.673 33.5641 21.0716C34.5574 21.0154 35.5166 20.9465 36.432 20.866C36.5597 21.4856 36.6722 22.1179 36.7707 22.7603C36.6737 22.8786 36.5772 22.9964 36.4797 23.1147H36.4792ZM34.0057 32.0013C35.0955 31.9548 36.1537 31.8981 37.1709 31.8307C37.0534 33.8054 36.8043 35.7176 36.4324 37.5251C35.5166 37.4451 34.5574 37.3768 33.5641 37.3215C33.782 35.6241 33.9306 33.8399 34.0057 32.0013ZM36.8526 38.0924C37.8225 38.1831 38.7393 38.2878 39.5913 38.4061C39.1955 39.6623 38.7213 40.8516 38.1788 41.958C37.3843 42.0477 36.5455 42.1272 35.6706 42.1966C36.14 40.9122 36.5353 39.5367 36.8526 38.0924ZM36.9627 37.5731C37.3375 35.737 37.5871 33.7962 37.7031 31.7938C38.8182 31.7148 39.8813 31.6232 40.8804 31.5194C40.7201 33.7666 40.3301 35.9106 39.7467 37.8955C38.8816 37.7743 37.9492 37.6667 36.9627 37.5736V37.5731ZM41.4166 31.4617C41.7168 31.4283 42.0117 31.3943 42.2992 31.3584C43.1488 31.2537 43.9213 31.1412 44.6144 31.022C44.4316 33.6391 43.8574 36.1593 42.9246 38.4832C42.1857 38.2989 41.3025 38.1283 40.2819 37.9731C40.879 35.9193 41.2625 33.7279 41.4166 31.4617ZM42.2339 30.8358C41.9771 30.8673 41.7153 30.8983 41.4482 30.9279C41.478 30.3553 41.4936 29.7784 41.4936 29.198C41.4936 28.6176 41.478 28.0407 41.4482 27.4676C41.7153 27.4977 41.9771 27.5282 42.2339 27.5602C43.1268 27.6703 43.9315 27.7886 44.6465 27.9141C44.6675 28.3398 44.6792 28.7679 44.6792 29.1975C44.6792 29.6271 44.6675 30.0552 44.6465 30.4809C43.9315 30.6065 43.1268 30.7248 42.2339 30.8353V30.8358ZM42.2992 27.0371C42.0117 27.0017 41.7168 26.9673 41.4166 26.9338C41.2625 24.6643 40.878 22.4699 40.2795 20.4132C41.3006 20.2566 42.1832 20.0845 42.9187 19.8983C43.855 22.226 44.4311 24.7506 44.6144 27.3731C43.9213 27.2538 43.1488 27.1413 42.2992 27.0366V27.0371ZM40.1259 19.9036C40.0899 19.7877 40.0523 19.6728 40.0148 19.5579C40.3628 19.1133 40.7054 18.6721 41.0393 18.2372C41.2655 17.9424 41.4887 17.6496 41.7105 17.3572C42.078 18.019 42.4123 18.7032 42.7135 19.4062C42.0394 19.5734 41.1894 19.7426 40.1254 19.9036H40.1259ZM40.6187 17.9172C40.355 18.2605 40.085 18.6086 39.8125 18.9582C39.5157 18.1165 39.1814 17.3024 38.8109 16.5199C39.177 16.5655 39.5328 16.6135 39.8769 16.6634C40.4335 16.7444 40.934 16.8278 41.3839 16.9122C41.1319 17.2452 40.877 17.5803 40.6187 17.9167V17.9172ZM39.4192 19.4605C39.2603 19.6627 39.1005 19.8653 38.9401 20.068C38.2772 20.1523 37.5793 20.2289 36.8516 20.2978C36.5353 18.8573 36.141 17.4852 35.6731 16.2043C36.5484 16.2741 37.3882 16.3541 38.1827 16.4448C38.6472 17.3926 39.0619 18.4011 39.4197 19.4605H39.4192ZM36.3199 20.3463C35.4172 20.4253 34.4721 20.4922 33.4935 20.547C33.2717 18.9422 32.9866 17.4212 32.6434 16.0128C33.4832 16.053 34.3006 16.102 35.0911 16.1597C35.581 17.4639 35.9923 18.867 36.3199 20.3463ZM30.3278 26.8087C31.3367 26.8281 32.3286 26.8567 33.2965 26.8936C32.8018 27.4686 32.3018 28.0451 31.8002 28.6176C31.3211 29.1641 30.8337 29.7148 30.3434 30.2646C30.3459 29.9107 30.3473 29.5548 30.3473 29.198C30.3473 28.3941 30.341 27.5971 30.3283 26.8092L30.3278 26.8087ZM30.3186 26.2812C30.284 24.5314 30.2186 22.8316 30.1241 21.2107C31.1174 21.185 32.0898 21.1482 33.0329 21.0997C33.2498 22.7807 33.3984 24.5498 33.474 26.3728C32.4465 26.3326 31.3923 26.302 30.3181 26.2812H30.3186ZM30.3186 32.1138C31.3928 32.093 32.4465 32.0624 33.4744 32.0222C33.3989 33.8442 33.2502 35.6124 33.0338 37.2924C32.0902 37.2444 31.1179 37.2076 30.1246 37.1828C30.2191 35.5625 30.2844 33.8631 30.3186 32.1138ZM30.3278 31.5863C30.3307 31.4132 30.3332 31.2401 30.3351 31.0666C30.9634 30.366 31.5877 29.661 32.1994 28.9633C32.6381 28.4625 33.0762 27.9587 33.51 27.455C33.5246 28.0315 33.5324 28.6123 33.5324 29.1975C33.5324 29.9704 33.5193 30.7364 33.4939 31.4942C32.4636 31.5344 31.4059 31.5655 30.3278 31.5868V31.5863ZM32.9627 20.5751C32.0313 20.6226 31.0726 20.659 30.0919 20.6842C29.9852 18.9892 29.8468 17.3858 29.6776 15.9105C30.4974 15.9284 31.3036 15.9546 32.0917 15.9885C32.4446 17.4081 32.736 18.948 32.9622 20.5756L32.9627 20.5751ZM32.12 39.4213C31.557 38.8643 30.9878 38.2936 30.4185 37.7181C31.2851 37.7419 32.1351 37.7748 32.9632 37.8165C32.8633 38.5355 32.7502 39.2376 32.6254 39.9198C32.4568 39.7539 32.2881 39.5881 32.12 39.4213ZM32.9573 40.9845C33.3716 41.3883 33.7839 41.7869 34.1914 42.1777C34.2314 42.216 34.2718 42.2543 34.3118 42.2926C33.7664 42.3275 33.2093 42.358 32.6425 42.3852C32.7536 41.9299 32.8584 41.463 32.9573 40.9849V40.9845ZM33.0806 40.3663C33.2361 39.5532 33.374 38.711 33.4939 37.8446C34.4726 37.8989 35.4177 37.9654 36.3208 38.0439C35.9928 39.5261 35.5805 40.9331 35.0892 42.2397C35.0682 42.2412 35.0473 42.2426 35.0268 42.2441C34.8708 42.0957 34.7154 41.9474 34.5594 41.798C34.0715 41.3306 33.5768 40.8511 33.0806 40.3663ZM37.8927 42.5195C37.6071 43.063 37.3049 43.5847 36.9866 44.0831C36.9642 44.0627 36.9423 44.0423 36.9203 44.022C36.4675 43.6031 36.007 43.1716 35.5439 42.7342C36.3589 42.6717 37.144 42.5999 37.8927 42.5195ZM38.5297 42.4477C39.0444 42.3871 39.5401 42.3226 40.0143 42.2533C40.3916 42.1985 40.7503 42.1413 41.0915 42.0821C40.5929 42.8729 40.047 43.6283 39.4524 44.3415C39.1346 44.7231 38.8066 45.0882 38.4693 45.4368C38.111 45.1138 37.7489 44.7842 37.3834 44.4486C37.7947 43.8116 38.1768 43.1435 38.5297 42.4477ZM39.9378 41.7316C39.5732 41.7849 39.1955 41.8354 38.807 41.8834C39.3173 40.8065 39.7594 39.6696 40.1289 38.4832C41.1909 38.6427 42.0424 38.81 42.7198 38.9758C42.3489 39.8412 41.9283 40.678 41.4585 41.48C41.0047 41.5653 40.4998 41.6492 39.9373 41.7316H39.9378ZM43.2379 39.1115C44.6529 39.5091 45.1056 39.8815 45.1056 40.0933C45.1056 40.3522 44.4296 40.8511 42.1476 41.3418C42.5493 40.6228 42.9124 39.8776 43.2379 39.1115ZM45.1822 28.0131C45.825 28.1377 46.3831 28.2686 46.852 28.4053C48.3532 28.8436 48.3707 29.1835 48.3707 29.198C48.3707 29.2125 48.3537 29.5519 46.852 29.9907C46.3831 30.1274 45.825 30.2588 45.1822 30.3829C45.1997 29.9897 45.209 29.5946 45.209 29.198C45.209 28.8014 45.1992 28.4063 45.1822 28.0131ZM45.5365 18.5267C47.2804 21.5303 48.261 24.9222 48.3809 28.4635C48.0685 28.2637 47.6118 28.0775 47.0016 27.8996C46.4864 27.7493 45.8679 27.6063 45.1529 27.471C44.978 24.767 44.3931 22.162 43.4339 19.7596C43.6167 19.7063 43.7892 19.6525 43.9495 19.5972C44.8888 19.2733 45.4015 18.9286 45.537 18.5267H45.5365ZM45.0447 18.3027C45.0447 18.5116 44.6036 18.8772 43.2311 19.269C42.9094 18.5136 42.5512 17.7786 42.1559 17.0692C44.3824 17.5555 45.0447 18.0467 45.0447 18.3027ZM44.8215 17.3791C44.5875 17.2511 44.2975 17.1284 43.9491 17.0081C43.4943 16.8515 42.9455 16.7027 42.309 16.5626C42.5044 16.3013 42.6979 16.0414 42.887 15.7854C43.0059 15.6244 43.1234 15.4635 43.2409 15.3035C43.8126 15.9672 44.34 16.6605 44.8215 17.3795V17.3791ZM38.2729 7.91401C38.963 7.31329 39.6429 6.73681 40.2926 6.19961C40.9423 5.66289 41.5759 5.15381 42.1769 4.68691C42.7783 4.21952 43.3617 3.78268 43.9101 3.38899C44.4608 2.99385 44.9882 2.63313 45.477 2.3175C45.9693 1.99993 46.4348 1.72017 46.8608 1.486C47.2887 1.25036 47.6864 1.05546 48.0427 0.906127C48.3975 0.757766 48.7187 0.651101 48.997 0.590011C49.2651 0.530861 49.4971 0.513406 49.6852 0.537164C49.8548 0.558497 49.985 0.611829 50.0839 0.70007C50.1824 0.788311 50.2496 0.91146 50.2891 1.07728C50.333 1.26103 50.3398 1.49181 50.3096 1.76381C50.2784 2.04599 50.2062 2.37471 50.0956 2.74173C49.984 3.11069 49.8319 3.52475 49.6423 3.97274C49.4532 4.41976 49.2232 4.90994 48.9585 5.43017C48.6948 5.94895 48.3907 6.50894 48.0549 7.09463C47.72 7.67886 47.3457 8.30236 46.9422 8.94768C46.5391 9.59252 46.0985 10.2737 45.6315 10.9729C45.1636 11.6735 44.6597 12.4075 44.1333 13.1537C43.8326 13.5808 43.5192 14.0181 43.198 14.4613C42.9616 14.2029 42.7189 13.9493 42.4688 13.7006C40.705 11.9459 38.6935 10.5263 36.5138 9.47228C37.1099 8.93411 37.6997 8.41145 38.2704 7.91498L38.2729 7.91401ZM42.096 14.0729C42.3665 14.342 42.6282 14.6174 42.8822 14.8981C42.7428 15.0892 42.6019 15.2811 42.4596 15.4736C42.2339 15.7796 42.0019 16.0903 41.7675 16.4031C41.1972 15.4581 40.5612 14.5597 39.8598 13.7185C38.1734 11.6958 36.2151 10.1176 34.0832 9.02914C37.0631 10.0783 39.7945 11.784 42.096 14.0734V14.0729ZM39.4519 14.055C40.0494 14.7716 40.5982 15.5313 41.0988 16.326C40.7371 16.2625 40.3555 16.2014 39.9529 16.1427C39.4987 16.0768 39.0244 16.0142 38.5331 15.9556C38.1413 15.1822 37.7138 14.4419 37.2498 13.7413C35.8022 11.5552 34.1007 9.88537 32.2443 8.7906C34.9337 9.80731 37.399 11.592 39.4519 14.0545V14.055ZM37.8961 15.8838C37.1231 15.7999 36.3106 15.7253 35.4659 15.6608C35.2101 15.0043 34.9352 14.373 34.6398 13.7714C33.4808 11.4087 32.0995 9.64585 30.5861 8.55836C33.5095 9.769 36.0567 12.3789 37.8961 15.8843V15.8838ZM34.1636 14.0026C34.4171 14.52 34.6564 15.0591 34.8806 15.6176C34.1129 15.5638 33.3209 15.5182 32.5089 15.4804C32.3583 14.9015 32.198 14.3425 32.0269 13.8072C31.2027 11.2235 30.1972 9.35447 29.0879 8.29461C30.9873 9.14695 32.7399 11.1004 34.1636 14.0026ZM31.5219 13.9667C31.6745 14.4448 31.8188 14.9422 31.9547 15.4562C31.1895 15.4247 30.4087 15.3999 29.6152 15.383C29.5509 14.8535 29.4822 14.341 29.4096 13.8489C29.1142 11.8441 28.7686 10.2664 28.3836 9.16004C28.2301 8.72029 28.0712 8.35957 27.9055 8.07546C29.2448 8.77605 30.5242 10.8371 31.5224 13.9667H31.5219ZM27.1559 7.95522C27.535 8.31982 28.2452 9.58089 28.8851 13.9255C28.9534 14.391 29.0187 14.8744 29.0801 15.3733C28.4455 15.3621 27.8031 15.3563 27.1559 15.3548V7.9557V7.95522ZM27.1559 15.8819C27.825 15.8833 28.4879 15.8896 29.1434 15.9013C29.3145 17.3815 29.4544 18.9926 29.5621 20.6983C28.7711 20.7152 27.9679 20.724 27.1559 20.7259V15.8824V15.8819ZM27.1559 21.2529C27.9786 21.2515 28.7925 21.2418 29.5938 21.2248C29.6879 22.8379 29.7532 24.5309 29.7878 26.2734C28.9212 26.2594 28.0424 26.2516 27.1554 26.2502V21.2529H27.1559ZM27.1559 26.7772C28.0463 26.7786 28.928 26.7864 29.7975 26.8005C29.8102 27.5917 29.817 28.3917 29.817 29.199C29.817 29.7575 29.8136 30.3126 29.8078 30.8639C29.6338 31.0578 29.4593 31.2523 29.2848 31.4452C29.2361 31.4991 29.1868 31.5529 29.1381 31.6067C28.483 31.6149 27.8221 31.6198 27.1559 31.6207V26.7767V26.7772ZM27.1559 32.1483C27.6584 32.1478 28.1589 32.1449 28.6556 32.14C28.157 32.6879 27.6554 33.2338 27.1559 33.7734V32.1483ZM27.1559 35.1198C27.8138 35.8088 28.4752 36.4934 29.1303 37.1634C28.4791 37.1523 27.8202 37.1465 27.1559 37.145V35.1194V35.1198ZM27.1559 37.6725C27.9679 37.674 28.7711 37.6827 29.5621 37.6992C29.4544 39.4053 29.314 41.0174 29.143 42.4981C28.4879 42.5093 27.8246 42.5156 27.1559 42.5166V37.6725ZM27.1559 43.0436C27.8031 43.0426 28.445 43.0368 29.0801 43.0261C29.0187 43.5245 28.9539 44.0079 28.8851 44.4724C28.2447 48.8171 27.535 50.0781 27.1559 50.4427V43.0436ZM27.905 50.3225C28.0712 50.0384 28.2301 49.6776 28.3831 49.2379C28.7686 48.1315 29.1137 46.5538 29.4091 44.549C29.4817 44.0569 29.5499 43.5454 29.6148 43.0159C30.4082 42.9995 31.189 42.9752 31.9538 42.9442C31.8178 43.4571 31.674 43.9536 31.5215 44.4312C30.5233 47.5608 29.2439 49.6219 27.9045 50.3225H27.905ZM32.0269 44.5907C32.1975 44.0559 32.3578 43.4984 32.5079 42.9204C33.3019 42.8841 34.0778 42.8399 34.8299 42.7881C34.8416 42.7992 34.8528 42.8099 34.8645 42.8206C34.6452 43.365 34.4112 43.8906 34.1636 44.3953C32.7399 47.2976 30.9873 49.251 29.0879 50.1033C30.1972 49.0435 31.2032 47.1739 32.0269 44.5907ZM34.6398 44.6266C34.8635 44.1708 35.0751 43.6976 35.2763 43.2104C35.7082 43.6176 36.1371 44.0186 36.5597 44.4094C36.604 44.4506 36.6484 44.4908 36.6927 44.532C35.0083 47.0207 32.9169 48.8748 30.5866 49.8401C32.0995 48.7521 33.4813 46.9892 34.6403 44.6266H34.6398ZM37.0875 44.8957C37.4267 45.2069 37.763 45.5124 38.0959 45.8125C36.3467 47.5254 34.3654 48.8044 32.2447 49.6064C34.0325 48.5528 35.6755 46.964 37.0875 44.8957ZM34.0837 49.3688C35.6609 48.5635 37.1431 47.4905 38.4902 46.1669C38.6053 46.2702 38.7213 46.3739 38.8348 46.4753C38.9455 46.5737 39.0551 46.6707 39.1653 46.7681C37.5881 47.8634 35.8812 48.7356 34.0832 49.3688H34.0837ZM39.1887 46.0826C39.081 45.987 38.9718 45.8886 38.8631 45.7912C39.2052 45.4367 39.5376 45.0658 39.8603 44.6789C40.5714 43.8261 41.2157 42.9141 41.7918 41.9546C42.6804 41.7806 43.4232 41.5915 44.01 41.3888C44.3146 41.2836 44.5729 41.1765 44.7893 41.0659C44.0095 42.2247 43.1093 43.3161 42.096 44.3245C41.3137 45.1027 40.4812 45.813 39.6069 46.4535C39.4675 46.3303 39.3281 46.2072 39.1882 46.0826H39.1887ZM53.4357 54.6793C53.3982 54.8451 53.3319 54.9692 53.2344 55.0584C53.1365 55.1476 53.0068 55.2024 52.8372 55.2252C52.6491 55.2509 52.4176 55.2354 52.1485 55.1791C51.8692 55.1209 51.5471 55.0177 51.1908 54.8727C50.8321 54.7268 50.4324 54.5357 50.003 54.3054C49.5751 54.0756 49.1067 53.8007 48.6105 53.4875C48.1178 53.1767 47.5865 52.8218 47.0323 52.4325C46.4811 52.0451 45.8933 51.6146 45.2855 51.152C44.6792 50.691 44.0397 50.1887 43.3856 49.6587C42.7296 49.1274 42.0438 48.5577 41.3483 47.9647C40.9126 47.5938 40.4656 47.2064 40.0133 46.8103C40.8755 46.1718 41.6968 45.4668 42.4708 44.6969C43.7107 43.4635 44.783 42.1083 45.6798 40.6596C46.1921 41.3423 46.6882 42.0167 47.1561 42.6664C47.6903 43.4082 48.2021 44.1369 48.6768 44.8317C49.151 45.5264 49.5989 46.2033 50.0079 46.8433C50.4178 47.4847 50.7984 48.1043 51.1396 48.6852C51.4818 49.2684 51.7912 49.825 52.0603 50.3404C52.3298 50.8578 52.5652 51.3455 52.7587 51.7911C52.9532 52.2376 53.1097 52.6502 53.2247 53.0172C53.3392 53.3828 53.4143 53.711 53.4489 53.9927C53.482 54.2642 53.4771 54.495 53.4352 54.6793H53.4357Z" fill="#E5FE8D"/>
</g>
<defs>
<clipPath id="clip0_3257_189278">
<rect width="54" height="56" fill="white"/>
</clipPath>
</defs>
</svg>
