<svg width="46" height="56" viewBox="0 0 46 56" fill="none" xmlns="http://www.w3.org/2000/svg">
<g clip-path="url(#clip0_3257_189147)">
<path d="M45.9305 0.880989C45.8604 0.62219 45.7366 0.415553 45.5622 0.267095C45.3879 0.118235 45.1673 0.0307653 44.906 0.00709225C44.671 -0.0141734 44.3964 0.0159195 44.0904 0.0973708C43.8013 0.174409 43.4742 0.299595 43.1181 0.469319C42.7718 0.634629 42.3886 0.846482 41.9792 1.09926C41.5761 1.34803 41.1377 1.64254 40.6766 1.97436C40.2202 2.30298 39.7298 2.67613 39.2193 3.08379C38.7128 3.48864 38.1745 3.93682 37.619 4.4163C37.0666 4.89297 36.4841 5.41217 35.8874 5.95986C35.292 6.50635 34.6695 7.09256 34.0376 7.70244C33.4562 8.26337 32.8545 8.8572 32.2468 9.46708C29.785 8.4359 27.1266 7.89503 24.3866 7.89503C18.8437 7.89503 13.6322 10.1059 9.71263 14.1202C5.79312 18.1346 3.63454 23.4719 3.63454 29.1494C3.63454 33.2749 4.77533 37.2207 6.90296 40.61C6.41522 41.3487 5.94277 42.0789 5.49891 42.7815C5.02723 43.5282 4.57632 44.2613 4.1591 44.9594C3.74149 45.6584 3.34777 46.3389 2.98932 46.9825C2.62929 47.628 2.29591 48.2516 1.99857 48.835C1.69926 49.4224 1.42934 49.9837 1.19586 50.5029C0.960413 51.0277 0.756308 51.5225 0.590203 51.9731C0.421356 52.4309 0.286984 52.8554 0.191004 53.2341C0.0922813 53.6233 0.0311673 53.9756 0.00922897 54.2806C-0.0138846 54.6036 0.00648668 54.8856 0.0695594 55.1188C0.139684 55.3776 0.263479 55.5842 0.43781 55.7331C0.612142 55.8815 0.8327 55.969 1.094 55.9931C1.14258 55.9975 1.19312 55.9999 1.24522 55.9999C1.44423 55.9999 1.66714 55.9674 1.90964 55.9028C2.19875 55.8257 2.52587 55.7006 2.88198 55.5308C3.22868 55.3655 3.61182 55.1537 4.02081 54.9013C4.42432 54.6521 4.86269 54.3576 5.3234 54.0262C5.78019 53.6976 6.27067 53.324 6.78073 52.9168C7.28806 52.5115 7.82633 52.0633 8.38106 51.5842C8.93461 51.1064 9.51715 50.5872 10.1126 50.0407C10.7073 49.495 11.3298 48.9084 11.9625 48.2981C12.3719 47.9029 12.7918 47.4912 13.2161 47.0695C16.5214 49.2402 20.3668 50.4042 24.387 50.4042C29.93 50.4042 35.1415 48.1934 39.061 44.179C42.9806 40.1646 45.1391 34.8269 45.1391 29.1498C45.1391 23.4727 43.167 18.6117 39.5723 14.6651C39.8923 14.1736 40.2038 13.6893 40.5011 13.2187C40.9728 12.472 41.4237 11.7389 41.8409 11.0407C42.2582 10.3422 42.6519 9.66168 43.0107 9.0181C43.3704 8.37331 43.7033 7.75019 44.0015 7.16558C44.3008 6.57817 44.5711 6.01684 44.8042 5.49763C45.0396 4.97281 45.2433 4.47809 45.4098 4.0275C45.5787 3.56969 45.7131 3.14518 45.809 2.76641C45.9078 2.37721 45.9689 2.02532 45.9908 1.71998C46.0139 1.39698 45.9936 1.11491 45.9305 0.881791V0.880989ZM23.4315 8.66541C23.2752 8.94066 23.1256 9.29094 22.9814 9.71705C22.6183 10.79 22.2931 12.3195 22.015 14.2639C21.9468 14.7414 21.8821 15.2381 21.8214 15.7517C21.074 15.7681 20.3382 15.7922 19.6178 15.8227C19.7459 15.3244 19.8818 14.8421 20.0256 14.3782C20.9658 11.3433 22.1709 9.34471 23.4319 8.66541H23.4315ZM16.6624 41.7884C16.2021 40.5265 15.8158 39.1687 15.5079 37.7383C16.3572 37.6609 17.2473 37.5955 18.1691 37.5417C18.3117 38.6038 18.4821 39.6282 18.6788 40.6056C18.3606 40.9558 18.0437 41.3025 17.7303 41.6428C17.6665 41.7122 17.6022 41.7808 17.5384 41.8502C17.243 41.831 16.9507 41.8105 16.6628 41.7884H16.6624ZM17.091 42.3321C17.0385 42.3883 16.986 42.4444 16.9339 42.5006C16.9092 42.4392 16.8845 42.3778 16.8602 42.3156C16.937 42.3213 17.0138 42.3269 17.091 42.3321ZM21.15 31.4666C20.1345 31.4461 19.1383 31.416 18.1679 31.3767C18.144 30.642 18.1315 29.8989 18.1315 29.1494C18.1315 28.3999 18.144 27.6572 18.1679 26.9225C19.1383 26.8832 20.1345 26.8531 21.15 26.8327C21.1382 27.597 21.1319 28.3698 21.1319 29.1494C21.1319 29.929 21.1382 30.7018 21.15 31.4662V31.4666ZM21.159 31.9777C21.1915 33.675 21.253 35.3241 21.3419 36.8965C20.4064 36.9218 19.4909 36.9583 18.6024 37.0057C18.3979 35.3746 18.2576 33.6581 18.1863 31.8891C19.154 31.928 20.1471 31.9577 21.1586 31.9777H21.159ZM21.159 26.3215C20.1471 26.3416 19.1543 26.3712 18.1867 26.4102C18.258 24.6419 18.3979 22.9266 18.6024 21.2964C19.4909 21.3433 20.4064 21.3794 21.3423 21.4039C21.2534 22.976 21.1919 24.6243 21.1594 26.3211L21.159 26.3215ZM18.1687 20.7611C17.2469 20.7082 16.3568 20.6428 15.5067 20.5661C15.8154 19.1321 16.2025 17.7711 16.664 16.5064C17.4083 16.4506 18.1785 16.4029 18.9694 16.364C18.6458 17.7294 18.3779 19.2047 18.1687 20.7607V20.7611ZM17.668 31.3558C16.6381 31.3105 15.6391 31.2543 14.6789 31.1885C14.648 30.5152 14.6323 29.8351 14.6323 29.1498C14.6323 28.4645 14.648 27.7844 14.6789 27.1115C15.6391 27.0453 16.6381 26.9896 17.668 26.9442C17.6445 27.6725 17.6328 28.4083 17.6328 29.1502C17.6328 29.8921 17.6449 30.628 17.668 31.3562V31.3558ZM14.7056 26.5971C14.816 24.68 15.0511 22.8239 15.4021 21.0697C16.2644 21.1479 17.1674 21.2145 18.1029 21.2691C17.8976 22.9158 17.757 24.6475 17.6864 26.4314C16.66 26.4764 15.6634 26.5317 14.7056 26.5971ZM14.2041 26.6325C13.1534 26.7091 12.1525 26.7982 11.2111 26.8985C11.3623 24.7161 11.7302 22.6345 12.2814 20.7074C13.0954 20.8257 13.973 20.9309 14.9022 21.0223C14.5485 22.8042 14.3134 24.6889 14.2037 26.6325H14.2041ZM14.1783 27.1468C14.1489 27.8085 14.1336 28.4765 14.1336 29.1494C14.1336 29.8223 14.1489 30.4904 14.1783 31.1524C13.1248 31.075 12.1215 30.9851 11.1798 30.8832C11.1496 30.3114 11.1331 29.7332 11.1331 29.1494C11.1331 28.5656 11.1496 27.9874 11.1798 27.4157C12.1215 27.3142 13.1248 27.2239 14.1783 27.1464V27.1468ZM14.2041 31.6668C14.3134 33.6124 14.5493 35.4986 14.9034 37.2825C13.9738 37.3744 13.0966 37.4807 12.2833 37.5999C11.7314 35.6703 11.3623 33.5859 11.2111 31.4008C12.1521 31.5015 13.1534 31.5901 14.2041 31.6668ZM15.0072 37.7857C15.3046 39.1788 15.6748 40.5057 16.1143 41.7447C15.2889 41.6765 14.4979 41.5978 13.7489 41.5092C13.2427 40.4447 12.8001 39.3019 12.4299 38.095C13.2306 37.9787 14.0936 37.8755 15.0072 37.7861V37.7857ZM14.7056 31.7021C15.6634 31.7675 16.66 31.8229 17.6864 31.8678C17.7573 33.6529 17.8976 35.3855 18.1033 37.0333C17.1678 37.0883 16.2648 37.1557 15.4029 37.2348C15.0515 35.4789 14.816 33.6212 14.7052 31.7021H14.7056ZM15.006 20.5188C14.0929 20.4301 13.2294 20.3278 12.4275 20.2122C12.7989 18.9993 13.2435 17.8514 13.7524 16.7825C14.5007 16.6946 15.2916 16.6167 16.1159 16.5493C15.6748 17.7916 15.3038 19.1217 15.0057 20.5188H15.006ZM11.9217 20.1364C10.92 19.9799 10.1189 19.8162 9.48424 19.6537C9.83016 18.824 10.2219 18.0211 10.6595 17.2511C11.1034 17.164 11.6001 17.0782 12.1564 16.9947C12.4804 16.9462 12.8157 16.8996 13.1605 16.8555C12.6825 17.8947 12.2681 18.9921 11.9217 20.1368V20.1364ZM11.7772 20.6307C11.2135 22.6253 10.8511 24.7531 10.7061 26.9538C10.4233 26.9859 10.1455 27.0192 9.87482 27.0538C9.07446 27.1557 8.34737 27.2648 7.69431 27.3804C7.86668 24.8373 8.40965 22.389 9.29111 20.1316C9.98412 20.3121 10.815 20.4791 11.7772 20.6307ZM9.93633 27.5609C10.178 27.5304 10.4248 27.5003 10.676 27.4714C10.6481 28.0268 10.6333 28.5861 10.6333 29.149C10.6333 29.712 10.6481 30.2713 10.676 30.8266C10.4245 30.7977 10.178 30.7676 9.93633 30.7371C9.09562 30.63 8.33718 30.5152 7.66414 30.3937C7.64455 29.9808 7.63359 29.5659 7.63359 29.149C7.63359 28.7321 7.64455 28.3173 7.66414 27.9044C8.33757 27.7824 9.09562 27.6676 9.93633 27.5609ZM9.87482 31.2443C10.1455 31.2788 10.4233 31.3121 10.7061 31.3442C10.8515 33.5482 11.2146 35.6792 11.7795 37.6761C10.817 37.8294 9.98647 37.9979 9.29659 38.1801C8.412 35.9191 7.86707 33.4659 7.69431 30.9177C8.34737 31.0332 9.07446 31.1424 9.87482 31.2443ZM10.0018 40.8961C7.95718 40.4294 7.34604 39.9608 7.34604 39.7148C7.34604 39.5146 7.75072 39.1667 9.00316 38.7928C9.30207 39.515 9.63507 40.2172 10.0018 40.8961ZM9.48973 38.6576C10.1208 38.4939 10.9208 38.3285 11.9241 38.1705C12.2692 39.3092 12.6814 40.4009 13.157 41.4353C12.8338 41.3932 12.5192 41.3495 12.214 41.3037C11.6307 41.2159 11.1124 41.126 10.6525 41.0345C10.2204 40.2725 9.83251 39.4785 9.48973 38.6576ZM12.1415 41.8093C12.5505 41.8707 12.9767 41.9289 13.4175 41.983C13.7877 42.7357 14.1916 43.4564 14.6296 44.1377C14.731 44.2954 14.8341 44.449 14.9379 44.6015C14.646 44.9032 14.3561 45.2018 14.0694 45.4939C13.5424 44.9823 13.0367 44.429 12.5552 43.8343C11.9895 43.1358 11.4704 42.3955 10.9972 41.6203C11.3564 41.6857 11.738 41.7487 12.1407 41.8093H12.1415ZM14.018 42.0536C14.7463 42.1359 15.5122 42.2089 16.3086 42.2723C16.3893 42.4854 16.4716 42.6956 16.5562 42.9027C16.2381 43.2413 15.9216 43.5763 15.6086 43.9037C15.5044 44.0129 15.4001 44.1212 15.2963 44.2296C14.8384 43.5527 14.411 42.8256 14.018 42.0536ZM18.8057 41.2147C18.8582 41.457 18.9126 41.6957 18.9687 41.9317C18.7062 41.9184 18.4457 41.9044 18.1879 41.8895C18.3928 41.6668 18.5988 41.4418 18.8057 41.2147ZM18.6686 37.5132C19.5453 37.4667 20.4487 37.431 21.3721 37.4061C21.3752 37.4603 21.3787 37.5148 21.3819 37.569C20.8918 38.1295 20.4021 38.6852 19.9179 39.2281C19.644 39.5351 19.3702 39.8396 19.0964 40.1429C18.9338 39.2983 18.7912 38.42 18.6686 37.5132ZM20.2865 39.5732C20.6646 39.1491 21.0465 38.7177 21.4289 38.282C21.5202 39.6029 21.6314 40.8596 21.7619 42.0332C20.9893 42.0151 20.2301 41.9894 19.4873 41.9565C19.3933 41.5669 19.304 41.1677 19.2194 40.7604C19.5743 40.3684 19.9308 39.972 20.2865 39.5736V39.5732ZM21.3721 20.8935C20.4487 20.8695 19.5453 20.8338 18.6682 20.788C18.8817 19.2095 19.1559 17.7161 19.4881 16.3395C20.2305 16.3066 20.9897 16.2813 21.7619 16.2641C21.6028 17.6949 21.472 19.2497 21.3717 20.8935H21.3721ZM19.5496 14.2238C19.3886 14.743 19.2378 15.285 19.096 15.8464C18.3313 15.8829 17.5854 15.9274 16.8622 15.9796C17.0733 15.4375 17.2986 14.9147 17.5376 14.4131C18.8782 11.5989 20.5294 9.70421 22.3182 8.87807C21.2734 9.90564 20.3261 11.7184 19.5496 14.2242V14.2238ZM17.089 14.1889C16.8109 14.7723 16.5519 15.3845 16.3106 16.0209C15.5149 16.0839 14.7498 16.1561 14.0216 16.2372C15.7539 12.8379 18.153 10.3069 20.9063 9.13325C19.4811 10.1881 18.1797 11.8978 17.0886 14.1889H17.089ZM14.6303 14.1604C14.1935 14.8397 13.7908 15.5575 13.4218 16.3078C12.9591 16.3644 12.5125 16.425 12.0843 16.4892C11.7051 16.5461 11.3459 16.6055 11.0054 16.6665C11.4767 15.8953 11.9938 15.159 12.5564 14.4641C14.4901 12.0759 16.812 10.3454 19.3447 9.35955C17.5959 10.4208 15.9937 12.0402 14.6303 14.1604ZM10.0664 14.4818C12.234 12.2617 14.8066 10.6074 17.6132 9.59026C15.6054 10.6459 13.7607 12.1766 12.1721 14.1379C11.499 14.9693 10.8899 15.8576 10.3449 16.7933C9.53713 16.9582 8.85939 17.1372 8.32112 17.3281C7.99283 17.4445 7.71977 17.5641 7.4996 17.6881C8.2412 16.5469 9.09836 15.4728 10.0664 14.4814V14.4818ZM10.0104 17.3875C9.63781 18.0756 9.30012 18.7882 8.99768 19.5209C7.70528 19.1413 7.28962 18.7866 7.28962 18.584C7.28962 18.3352 7.9133 17.859 10.0104 17.3875ZM6.82618 18.8011C6.95389 19.1911 7.43692 19.5253 8.32151 19.8391C8.47234 19.8929 8.63491 19.945 8.80689 19.9968C7.9039 22.3264 7.3527 24.853 7.18816 27.4751C6.51473 27.6063 5.93219 27.7447 5.44719 27.8907C4.87249 28.0637 4.44234 28.2438 4.14813 28.4376C4.26057 25.003 5.18472 21.7141 6.82696 18.8015L6.82618 18.8011ZM7.15995 30.2986C6.5543 30.1778 6.02895 30.051 5.58705 29.9182C4.1732 29.4929 4.15675 29.1635 4.15675 29.1494C4.15675 29.1354 4.1732 28.806 5.58705 28.3806C6.02856 28.2478 6.5543 28.1206 7.15995 28.0003C7.1435 28.3819 7.13449 28.7646 7.13449 29.1494C7.13449 29.5342 7.1435 29.9174 7.15995 30.2986ZM6.86496 39.566C5.19843 36.6365 4.26057 33.3231 4.14735 29.8616C4.44156 30.0554 4.87171 30.2356 5.44641 30.4085C5.93141 30.5546 6.51434 30.693 7.18738 30.8242C7.3523 33.4523 7.90546 35.9837 8.81238 38.3177C8.6592 38.3643 8.51386 38.4116 8.37831 38.4597C7.4428 38.7916 6.95624 39.1467 6.86457 39.566H6.86496ZM11.6205 47.9258C10.9909 48.5332 10.3716 49.1166 9.77963 49.6599C9.18807 50.2028 8.60945 50.7188 8.05942 51.1934C7.5094 51.6681 6.97583 52.1123 6.4736 52.5135C5.97019 52.916 5.48676 53.2839 5.03663 53.6077C4.58533 53.9323 4.15675 54.2204 3.76343 54.4635C3.36932 54.7067 3.00225 54.9101 2.6716 55.0678C2.34292 55.2247 2.0444 55.339 1.78428 55.4085C1.53394 55.4751 1.31613 55.5007 1.13866 55.4847C0.978042 55.4702 0.853463 55.4233 0.757483 55.341C0.661503 55.2592 0.593729 55.142 0.551028 54.9831C0.503233 54.8066 0.488738 54.5831 0.507543 54.3187C0.527131 54.0442 0.583152 53.7228 0.674431 53.3633C0.766102 53.0018 0.894989 52.5954 1.05757 52.1544C1.21976 51.7146 1.41877 51.2312 1.64951 50.7172C1.87947 50.2052 2.14587 49.6519 2.44125 49.0721C2.73585 48.4943 3.0661 47.8768 3.42299 47.2364C3.7791 46.5977 4.17007 45.9216 4.58533 45.227C5.00059 44.5321 5.44915 43.803 5.91848 43.0599C6.32551 42.416 6.75684 41.7483 7.20187 41.0722C7.93445 42.1748 8.77281 43.2156 9.71381 44.1794C10.6673 45.156 11.6973 46.0247 12.7899 46.7818C12.3942 47.1738 12.0028 47.5574 11.6209 47.9266L11.6205 47.9258ZM13.1546 46.4179C12.0561 45.6652 11.0219 44.7961 10.066 43.8175C9.08269 42.8104 8.21417 41.7174 7.46474 40.5562C7.6994 40.6999 8.00223 40.8371 8.37871 40.9707C8.90248 41.1565 9.55828 41.331 10.3371 41.4923C10.884 42.4332 11.4959 43.3264 12.1721 44.1613C12.6629 44.7672 13.1785 45.3314 13.7152 45.8542C13.6662 45.9035 13.6165 45.9541 13.5679 46.0034C13.4296 46.1427 13.2921 46.2807 13.1546 46.4179ZM13.5832 46.7036C13.6948 46.592 13.8061 46.4805 13.9181 46.3678C13.9722 46.3132 14.0274 46.257 14.0819 46.202C15.1808 47.2144 16.3654 48.0534 17.6132 48.709C16.2036 48.1982 14.8529 47.5269 13.5832 46.7036ZM14.4372 45.8421C14.7005 45.5737 14.9673 45.2997 15.2348 45.0228C16.4591 46.7132 17.8482 48.0313 19.3447 48.9397C17.5877 48.256 15.9318 47.214 14.4372 45.8421ZM15.5917 44.6529C15.7163 44.5233 15.8413 44.3933 15.9662 44.2625C16.2322 43.984 16.5014 43.6991 16.7717 43.4122C16.8747 43.649 16.9805 43.8821 17.0894 44.1104C18.1808 46.4015 19.4822 48.1111 20.9071 49.166C18.9091 48.3142 17.0976 46.7473 15.5917 44.6529ZM17.5376 43.8861C17.4024 43.602 17.272 43.3107 17.1458 43.0138C17.3437 42.8024 17.5419 42.5893 17.7405 42.375C18.1848 42.4027 18.6368 42.428 19.0956 42.4501C19.2374 43.0126 19.389 43.5551 19.55 44.0755C20.3261 46.5808 21.2734 48.3936 22.3182 49.4212C20.5294 48.595 18.8786 46.7004 17.5376 43.8861ZM20.0256 43.921C19.8818 43.4564 19.7459 42.9733 19.6174 42.4741C20.3378 42.505 21.0736 42.5295 21.8214 42.5464C21.8825 43.0603 21.9468 43.5575 22.0153 44.0354C22.2939 45.9798 22.6186 47.5093 22.9818 48.5822C23.126 49.0087 23.2756 49.3586 23.4319 49.6338C22.1705 48.9541 20.9654 46.9556 20.0256 43.921ZM24.1379 49.7506C23.7806 49.3971 23.1119 48.1741 22.509 43.9611C22.4443 43.5097 22.3832 43.0407 22.3252 42.5564C22.923 42.5672 23.5279 42.5732 24.1379 42.5748V49.7502V49.7506ZM24.1379 42.0641C23.5075 42.0625 22.8831 42.0556 22.2657 42.0444C22.1164 40.7131 21.9918 39.2727 21.8939 37.7512C21.9993 37.6304 22.1043 37.5092 22.2097 37.388C22.8451 37.376 23.4883 37.3688 24.1375 37.3672V42.0641H24.1379ZM24.1379 36.856C23.6415 36.8572 23.1479 36.8616 22.6594 36.8688C23.151 36.2995 23.6454 35.7205 24.1379 35.1383V36.8556V36.856ZM24.1379 34.3567C23.4805 35.1375 22.8169 35.9159 22.1599 36.6762C22.1007 36.7449 22.0408 36.8131 21.9817 36.8817C21.935 36.8829 21.888 36.8837 21.8414 36.8849C21.7525 35.3201 21.691 33.6782 21.6585 31.9878C22.4745 32.0014 23.3023 32.009 24.1375 32.0102V34.3571L24.1379 34.3567ZM24.1379 31.4987C23.2991 31.4975 22.4686 31.4898 21.6498 31.4758C21.6377 30.7086 21.6314 29.933 21.6314 29.1498C21.6314 28.3666 21.6377 27.591 21.6498 26.8238C22.469 26.8098 23.2995 26.8022 24.1379 26.801V31.4983V31.4987ZM24.1379 26.2902C23.3023 26.2914 22.4749 26.299 21.6585 26.3127C21.691 24.6227 21.7525 22.9812 21.8414 21.4168C22.5963 21.4332 23.363 21.4424 24.1379 21.444V26.2902ZM24.1379 20.9329C23.3732 20.9313 22.6163 20.9224 21.8716 20.9064C21.9726 19.2525 22.1051 17.6901 22.2661 16.2548C22.8831 16.2436 23.5079 16.2372 24.1379 16.236V20.9333V20.9329ZM24.1379 15.7244C23.5283 15.7256 22.9234 15.7316 22.3256 15.742C22.3836 15.2582 22.4447 14.7895 22.509 14.3385C23.1119 10.1251 23.7806 8.90214 24.1379 8.54905V15.7244ZM38.7085 14.4822C38.7852 14.5612 38.8605 14.641 38.9361 14.7209C38.8209 14.8966 38.7049 15.0728 38.5878 15.2497C38.4009 15.5318 38.209 15.8191 38.0147 16.1076C37.5802 15.4215 37.1089 14.7638 36.6024 14.1379C35.0142 12.1762 33.1694 10.6455 31.1617 9.59026C33.9682 10.6078 36.5409 12.2617 38.7085 14.4818V14.4822ZM31.1064 26.9438C32.1364 26.9892 33.1357 27.0453 34.0955 27.1111C34.1265 27.7844 34.1422 28.4645 34.1422 29.1494C34.1422 29.8343 34.1265 30.5148 34.0955 31.1881C33.1357 31.2543 32.1364 31.3101 31.1064 31.3554C31.1299 30.6272 31.1417 29.8913 31.1417 29.1494C31.1417 28.4075 31.1296 27.6717 31.1064 26.9434V26.9438ZM34.0689 26.5971C33.1349 26.5333 32.1642 26.4792 31.1648 26.435C31.3015 26.2577 31.4379 26.0799 31.573 25.9038C32.2692 24.9938 32.9598 24.077 33.6254 23.1786C33.6552 23.1385 33.6846 23.0979 33.7144 23.0578C33.8805 24.2066 33.9996 25.3898 34.0689 26.5971ZM33.8722 21.0223C34.1316 20.9967 34.387 20.9702 34.6377 20.9429C34.4328 21.2262 34.2256 21.511 34.0168 21.7967C33.971 21.5367 33.9232 21.2783 33.8722 21.0223ZM33.2278 22.8692C32.5638 23.7652 31.8751 24.68 31.1801 25.588C31.1393 25.641 31.0982 25.6948 31.0571 25.7481C30.9799 24.205 30.8506 22.7047 30.6712 21.2691C31.6067 21.2145 32.5101 21.1479 33.372 21.0697C33.4566 21.493 33.5341 21.9223 33.6054 22.3569C33.4797 22.5278 33.3539 22.6983 33.2274 22.8692H33.2278ZM31.088 31.8678C32.1144 31.8229 33.1111 31.7675 34.0689 31.7021C33.9584 33.6172 33.7238 35.4717 33.3731 37.2239C32.5105 37.1461 31.6071 37.0803 30.6716 37.0265C30.8769 35.3806 31.0171 33.6501 31.0876 31.8674L31.088 31.8678ZM34.5703 31.6668C35.621 31.5901 36.622 31.5011 37.5634 31.4008C37.4125 33.5799 37.0451 35.6591 36.4954 37.5838C35.6806 37.4663 34.8027 37.362 33.8734 37.2717C34.2264 35.491 34.4614 33.6088 34.5707 31.6672L34.5703 31.6668ZM34.5962 31.1524C34.6256 30.4904 34.6409 29.8227 34.6409 29.1494C34.6409 28.4761 34.6256 27.8085 34.5962 27.1468C35.65 27.2243 36.6529 27.3142 37.5947 27.4161C37.6249 27.9878 37.6413 28.566 37.6413 29.1498C37.6413 29.7336 37.6249 30.3118 37.5947 30.8836C36.6529 30.9851 35.65 31.0754 34.5962 31.1528V31.1524ZM34.5703 26.6325C34.4904 25.2145 34.3439 23.8278 34.1331 22.4897C34.5339 21.9444 34.928 21.4011 35.3143 20.8643C35.7205 20.8149 36.1135 20.7623 36.4931 20.7074C37.0439 22.6345 37.4121 24.7161 37.5634 26.8985C36.6224 26.7978 35.621 26.7091 34.5703 26.6325ZM35.7198 20.2985C35.8714 20.0859 36.0222 19.874 36.1718 19.6625C36.2318 19.8443 36.2902 20.0277 36.347 20.2126C36.1421 20.2419 35.9329 20.2708 35.7198 20.2985ZM36.3246 18.5704C36.1064 17.9834 35.8694 17.4112 35.6136 16.8555C35.9583 16.8996 36.2933 16.9462 36.6177 16.9947C36.8688 17.0324 37.1077 17.0705 37.3354 17.1091C37.2045 17.3001 37.0733 17.4918 36.9405 17.684C36.7387 17.9761 36.5326 18.2723 36.3246 18.57V18.5704ZM35.9701 19.0759C35.7002 19.4587 35.4271 19.8439 35.1509 20.2295C35.1145 20.2805 35.0773 20.3318 35.0408 20.3828C34.6291 20.4313 34.2044 20.4767 33.7684 20.5192C33.4703 19.1221 33.0993 17.792 32.6582 16.5497C33.4828 16.6171 34.2734 16.695 35.0216 16.7829C35.3687 17.5119 35.6853 18.2779 35.9697 19.0759H35.9701ZM33.2678 20.5661C32.4176 20.6428 31.5276 20.7078 30.6058 20.7611C30.3966 19.2047 30.1286 17.7298 29.805 16.3644C30.596 16.4033 31.3662 16.451 32.1105 16.5068C32.572 17.7715 32.9591 19.1325 33.2678 20.5665V20.5661ZM27.6245 26.8327C28.4864 26.8499 29.3345 26.8744 30.1647 26.9053C29.7854 27.394 29.4023 27.8835 29.018 28.3702C28.5651 28.944 28.104 29.5222 27.6394 30.1C27.6414 29.7842 27.6425 29.4676 27.6425 29.1494C27.6425 28.3698 27.6363 27.597 27.6245 26.8327ZM27.6155 26.3215C27.583 24.6247 27.5215 22.9764 27.4325 21.4043C28.3681 21.3798 29.2836 21.3437 30.1725 21.2968C30.375 22.9118 30.5141 24.6106 30.5858 26.3616C30.5736 26.3773 30.5615 26.3933 30.5494 26.409C29.5939 26.3708 28.6141 26.3416 27.6155 26.3219V26.3215ZM27.6155 31.9777C28.6274 31.9577 29.6201 31.928 30.5877 31.8891C30.5164 33.6561 30.377 35.3706 30.1725 36.9996C29.2836 36.9531 28.3681 36.9174 27.4325 36.8933C27.5215 35.3217 27.583 33.6738 27.6155 31.9777ZM27.6245 31.4666C27.6273 31.2824 27.63 31.0978 27.632 30.9125C28.2302 30.1726 28.8248 29.4279 29.4062 28.6916C29.8109 28.1788 30.2144 27.6628 30.6136 27.148C30.6328 27.8093 30.643 28.4769 30.643 29.1494C30.643 29.8989 30.6305 30.6416 30.6066 31.3767C29.6362 31.416 28.6399 31.4461 27.6245 31.4666ZM30.1063 20.7884C29.2291 20.8342 28.3258 20.8699 27.4028 20.8939C27.3025 19.2501 27.1716 17.6953 27.0126 16.2645C27.7847 16.2821 28.544 16.3074 29.2863 16.3399C29.6185 17.7165 29.8932 19.2099 30.1063 20.7884ZM30.1067 37.508C29.8932 39.0885 29.6182 40.5835 29.2856 41.9618C28.5428 41.9939 27.784 42.0191 27.0122 42.0364C27.1716 40.6048 27.3025 39.0488 27.4028 37.4041C28.3261 37.4278 29.2295 37.4627 30.1067 37.5084V37.508ZM30.6062 37.5353C31.528 37.5879 32.418 37.6525 33.2689 37.7283C32.9598 39.1659 32.5716 40.5297 32.1089 41.7972C31.3646 41.8526 30.5948 41.8996 29.8046 41.9381C30.1286 40.5711 30.3974 39.0937 30.6066 37.5353H30.6062ZM33.7696 37.7748C34.6828 37.8627 35.5466 37.9642 36.3493 38.079C35.9764 39.2975 35.5301 40.4503 35.0185 41.5236C34.2699 41.6107 33.4801 41.6881 32.6562 41.7547C33.0985 40.5093 33.4707 39.1756 33.7692 37.7748H33.7696ZM36.8551 38.154C37.8552 38.3085 38.6575 38.471 39.2957 38.6319C38.9466 39.4709 38.5506 40.2826 38.1079 41.0606C37.6809 41.1432 37.2049 41.2251 36.6756 41.3045C36.3325 41.3559 35.9767 41.4048 35.6105 41.4518C36.0911 40.4078 36.5076 39.3048 36.8555 38.1544L36.8551 38.154ZM36.9996 37.6597C37.5618 35.6679 37.9234 33.543 38.0683 31.345C38.3512 31.3129 38.6289 31.2796 38.8996 31.2451C39.7 31.1432 40.4275 31.034 41.0802 30.9185C40.9082 33.4567 40.3672 35.9002 39.4884 38.1536C38.7927 37.9751 37.9606 37.8097 36.9996 37.6593V37.6597ZM38.8381 30.7379C38.5964 30.7684 38.3496 30.7985 38.0985 30.8274C38.1263 30.2721 38.1412 29.7128 38.1412 29.1498C38.1412 28.5869 38.1263 28.0276 38.0985 27.4722C38.35 27.5011 38.5968 27.5312 38.8381 27.5617C39.6792 27.6688 40.4373 27.7836 41.1103 27.9052C41.1299 28.3181 41.1409 28.7329 41.1409 29.1498C41.1409 29.5667 41.1299 29.9816 41.1103 30.3945C40.4369 30.5164 39.6788 30.6308 38.8381 30.7379ZM38.8996 27.0542C38.6289 27.0196 38.3512 26.9863 38.0683 26.9542C37.9234 24.7535 37.561 22.6257 36.9973 20.6311C37.959 20.4795 38.7903 20.3126 39.4834 20.132C40.3648 22.3894 40.9078 24.8377 41.0802 27.3808C40.4275 27.2652 39.7 27.1561 38.8996 27.0542ZM36.8527 20.1368C36.752 19.8038 36.6455 19.4748 36.5334 19.1498C36.81 18.7557 37.0827 18.3649 37.3483 17.9794C37.5269 17.7206 37.7032 17.463 37.8783 17.2062C37.9586 17.2214 38.0378 17.2363 38.115 17.2515C38.5525 18.0215 38.9443 18.8244 39.2902 19.6541C38.6556 19.8162 37.8544 19.9803 36.8527 20.1368ZM36.2185 14.4645C36.7563 15.1286 37.2519 15.8307 37.7063 16.5646C37.6879 16.5915 37.6695 16.6188 37.6511 16.6456C37.3455 16.5919 37.0259 16.5393 36.6901 16.4892C36.2623 16.425 35.8157 16.3644 35.3531 16.3078C34.984 15.5575 34.5813 14.8397 34.1445 14.1604C32.7812 12.0402 31.1785 10.4208 29.4301 9.35955C31.9628 10.3454 34.2848 12.0759 36.2185 14.4641V14.4645ZM34.7529 16.238C34.0246 16.1565 33.2595 16.0843 32.4639 16.0217C32.2229 15.3853 31.9636 14.7731 31.6858 14.1897C30.5944 11.8986 29.293 10.1889 27.8678 9.13406C30.621 10.3081 33.0202 12.8391 34.7525 16.2384L34.7529 16.238ZM31.2373 14.4135C31.4763 14.9151 31.7011 15.4379 31.9123 15.98C31.1895 15.9278 30.4432 15.8833 29.6785 15.8468C29.5367 15.2854 29.3855 14.7434 29.2248 14.2242C28.4488 11.7188 27.5015 9.90604 26.4567 8.87807C28.2454 9.70421 29.8963 11.5989 31.2373 14.4131V14.4135ZM28.7492 14.3786C28.893 14.8425 29.0286 15.3248 29.1571 15.8231C28.4366 15.7926 27.7009 15.7685 26.9534 15.7521C26.8923 15.2385 26.8281 14.7418 26.7595 14.2643C26.4814 12.3199 26.1562 10.7904 25.793 9.71746C25.6489 9.29094 25.4992 8.94106 25.3429 8.66581C26.6044 9.34551 27.809 11.3441 28.7492 14.3786ZM24.637 8.54905C24.9943 8.90254 25.6626 10.1255 26.2659 14.3385C26.3305 14.7895 26.3917 15.2586 26.4492 15.742C25.8514 15.7316 25.2465 15.7256 24.637 15.7244V8.54905ZM24.637 16.2356C25.2669 16.2368 25.8918 16.2432 26.5088 16.2544C26.6698 17.6897 26.8018 19.2521 26.9033 20.906C26.1582 20.922 25.4017 20.9309 24.637 20.9325V16.2352V16.2356ZM24.637 21.444C25.4119 21.4424 26.1785 21.4332 26.9334 21.4168C27.0224 22.9812 27.0839 24.6227 27.1164 26.3127C26.3 26.299 25.4726 26.2914 24.6374 26.2902V21.444H24.637ZM24.637 26.8014C25.4757 26.8026 26.3062 26.8102 27.125 26.8242C27.1372 27.591 27.1434 28.367 27.1434 29.1502C27.1434 29.6787 27.1407 30.2043 27.1352 30.7255C27.0071 30.884 26.8786 31.0425 26.7501 31.2005C26.6729 31.2952 26.595 31.3903 26.5178 31.485C25.8965 31.493 25.2689 31.4975 24.637 31.4987V26.8014ZM24.637 32.0098C25.1263 32.009 25.6124 32.0062 26.0955 32.0014C25.6109 32.592 25.1231 33.1807 24.637 33.7621V32.0102V32.0098ZM24.637 34.5465C24.6981 34.4738 24.7592 34.4012 24.8203 34.3286C25.4648 33.5602 26.1131 32.7762 26.7536 31.993C26.8747 31.991 26.9953 31.9894 27.1164 31.9874C27.0839 33.6766 27.0224 35.3177 26.9334 36.8821C26.1785 36.866 25.4119 36.8572 24.637 36.856V34.5469V34.5465ZM24.637 37.3668C25.4017 37.368 26.1582 37.3768 26.9033 37.3925C26.8022 39.0472 26.6698 40.6104 26.5088 42.0464C25.8914 42.0573 25.2669 42.0633 24.637 42.0645V37.3668ZM24.637 42.5752C25.2465 42.5744 25.8514 42.5684 26.4492 42.5584C26.3913 43.0415 26.3301 43.5101 26.2659 43.9611C25.663 48.1741 24.9946 49.3971 24.637 49.7506V42.5752ZM25.3429 49.6338C25.4992 49.3586 25.6489 49.0083 25.793 48.5822C26.1562 47.5093 26.4814 45.9798 26.7595 44.0354C26.8277 43.5583 26.8923 43.062 26.953 42.5488C27.7001 42.5327 28.4358 42.5094 29.1563 42.4789C29.0282 42.9765 28.8926 43.458 28.7492 43.9206C27.809 46.9556 26.604 48.9541 25.3429 49.6334V49.6338ZM29.2252 44.0755C29.3858 43.5571 29.5367 43.0162 29.6785 42.4557C30.4424 42.4196 31.1883 42.3758 31.9111 42.3241C31.7003 42.8645 31.4759 43.3858 31.2377 43.8861C29.8967 46.7004 28.2458 48.595 26.4571 49.4212C27.5019 48.3936 28.4492 46.5808 29.2252 44.0755ZM31.6862 44.1104C31.9636 43.5282 32.2222 42.9175 32.4627 42.2827C33.2572 42.2206 34.0219 42.1491 34.7498 42.0685C33.0178 45.4642 30.6199 47.9928 27.8682 49.166C29.2934 48.1111 30.5948 46.4015 31.6862 44.1104ZM34.1449 44.1389C34.5801 43.4616 34.9817 42.7462 35.3499 41.9987C35.8345 41.9401 36.3019 41.8771 36.7485 41.8101C37.1038 41.7567 37.4415 41.7014 37.7632 41.644C37.2938 42.4107 36.7791 43.1434 36.2192 43.8351C34.2855 46.2229 31.9636 47.9538 29.4309 48.9397C31.1797 47.8784 32.782 46.259 34.1453 44.1389H34.1449ZM38.7089 43.8175C36.5413 46.0375 33.9686 47.6914 31.1621 48.709C33.1698 47.6533 35.0146 46.1226 36.6028 44.1613C37.2727 43.334 37.8791 42.4501 38.4221 41.5192C39.2589 41.3503 39.9586 41.1669 40.5113 40.9707C40.7981 40.8688 41.0414 40.7649 41.2455 40.6577C40.5109 41.7816 39.6632 42.8397 38.7085 43.8175H38.7089ZM38.7574 40.9262C39.1355 40.2288 39.4779 39.5066 39.7842 38.7635C41.117 39.1487 41.5436 39.5102 41.5436 39.7156C41.5436 39.9668 40.9066 40.4503 38.7574 40.9266V40.9262ZM41.9839 39.4368C41.8272 39.0728 41.3493 38.7575 40.5113 38.4601C40.3456 38.4012 40.1662 38.3434 39.9746 38.2872C40.8741 35.9616 41.4229 33.4407 41.5875 30.8246C42.2609 30.6934 42.8434 30.555 43.3284 30.4089C43.9035 30.236 44.3333 30.0558 44.6275 29.862C44.5159 33.2721 43.6042 36.5394 41.9835 39.4368H41.9839ZM41.6153 28.0003C42.2209 28.121 42.7463 28.2478 43.1882 28.3806C44.602 28.806 44.6185 29.1354 44.6185 29.1494C44.6185 29.1635 44.602 29.4929 43.1882 29.9182C42.7467 30.051 42.2209 30.1782 41.6153 30.2986C41.6317 29.917 41.6408 29.5342 41.6408 29.1494C41.6408 28.7646 41.6317 28.3819 41.6153 28.0003ZM41.9491 18.8011C43.5913 21.7137 44.5155 25.003 44.6279 28.4372C44.3337 28.2434 43.9035 28.0633 43.3288 27.8903C42.8438 27.7443 42.2609 27.6059 41.5879 27.4746C41.4233 24.8526 40.8721 22.3264 39.9691 19.9964C40.1415 19.9446 40.3041 19.8925 40.4545 19.8387C41.3391 19.5249 41.8217 19.1907 41.9498 18.8007L41.9491 18.8011ZM41.486 18.584C41.486 18.7866 41.0704 19.1413 39.778 19.5209C39.4751 18.7882 39.1378 18.0756 38.7653 17.3875C40.8623 17.859 41.486 18.3352 41.486 18.5836V18.584ZM41.2756 17.6885C41.0555 17.5645 40.7824 17.4453 40.4541 17.3285C39.9159 17.1376 39.2381 16.9586 38.4303 16.7937C38.3884 16.7219 38.3469 16.65 38.3046 16.579C38.5416 16.2275 38.7751 15.8793 39.0015 15.537C39.0979 15.3914 39.1931 15.2465 39.2883 15.1017C40.022 15.9166 40.686 16.7809 41.276 17.6889L41.2756 17.6885ZM45.3272 2.63721C45.2355 2.99872 45.1066 3.40518 44.944 3.84614C44.7819 4.2859 44.5828 4.76939 44.3521 5.28337C44.1225 5.79495 43.8557 6.34866 43.5604 6.92845C43.2654 7.50744 42.9351 8.12494 42.5786 8.76411C42.2221 9.40329 41.8311 10.0794 41.4163 10.7735C41.001 11.4685 40.5525 12.1975 40.0831 12.9406C39.8062 13.3788 39.517 13.8293 39.2201 14.286C39.1672 14.2306 39.1155 14.1748 39.0622 14.1202C37.2112 12.2244 35.0722 10.7314 32.7463 9.68335C33.3007 9.12804 33.8495 8.58757 34.3811 8.07439C35.0103 7.46731 35.6293 6.88391 36.2216 6.34023C36.8147 5.79616 37.3933 5.28016 37.9418 4.8071C38.4926 4.33164 39.0258 3.88787 39.5276 3.48703C40.0314 3.08419 40.5152 2.71625 40.965 2.39245C41.4167 2.06745 41.8449 1.77936 42.2382 1.53661C42.6327 1.29306 42.9998 1.09003 43.33 0.932347C43.6587 0.775463 43.9572 0.66111 44.2173 0.591696C44.4677 0.525091 44.6851 0.499411 44.8633 0.515461C45.0236 0.529906 45.1481 0.577252 45.2445 0.659104C45.3405 0.740957 45.4083 0.858118 45.451 1.01701C45.4988 1.19355 45.5133 1.41704 45.4945 1.68146C45.4749 1.95591 45.4185 2.2773 45.3276 2.63681L45.3272 2.63721Z" fill="#E5FE8D"/>
</g>
<defs>
<clipPath id="clip0_3257_189147">
<rect width="46" height="56" fill="white"/>
</clipPath>
</defs>
</svg>
