<svg width="115" height="29" viewBox="0 0 115 29" fill="none" xmlns="http://www.w3.org/2000/svg">
<path d="M104.67 1.11252C103.847 1.34169 103.446 1.82606 103.467 2.56565C103.477 3.0344 103.743 3.4719 104.264 3.87815C104.795 4.27398 105.415 4.5396 106.123 4.67502C106.133 4.67502 106.144 4.68023 106.154 4.69065C108.342 5.50315 110.243 6.56565 111.857 7.87815C113.482 9.19065 114.404 11.0969 114.623 13.5969V13.6438C114.404 15.5188 113.951 17.0813 113.264 18.3313C112.576 19.5813 111.764 20.5344 110.826 21.1906L110.811 21.2219C110.373 21.5969 109.857 21.9302 109.264 22.2219C108.67 22.5136 108.144 22.8156 107.686 23.1281C107.394 23.3261 107.206 23.3261 107.123 23.1281C106.54 21.7427 104.93 20.6854 102.295 19.9563C102.139 19.925 102.055 19.8469 102.045 19.7219C102.035 19.5969 102.092 19.5084 102.217 19.4563C102.873 19.2063 103.201 18.5136 103.201 17.3781L103.17 10.8781C103.17 10.5136 103.337 10.3417 103.67 10.3625C104.712 10.4979 105.753 10.1438 106.795 9.30002C106.857 9.25836 106.889 9.18023 106.889 9.06565C106.868 8.98231 106.816 8.91981 106.732 8.87815C106.337 8.71148 105.941 8.55002 105.545 8.39377C105.149 8.2271 104.764 8.05002 104.389 7.86252C103.42 7.42502 102.701 6.85731 102.232 6.1594C101.774 5.46148 101.503 4.76877 101.42 4.08127V4.00315C101.68 2.01356 102.68 0.904188 104.42 0.675022C104.691 0.633355 104.837 0.685438 104.857 0.831272C104.889 0.977105 104.826 1.07086 104.67 1.11252ZM107.717 9.31565C107.623 9.27398 107.535 9.2844 107.451 9.3469L106.717 9.92502C106.508 10.0813 106.404 10.2688 106.404 10.4875L106.467 18.2063C106.467 18.3625 106.529 18.4719 106.654 18.5344L110.029 20.5188C110.3 20.6854 110.55 20.6229 110.779 20.3313C111.717 19.0084 112.076 17.2531 111.857 15.0656C111.649 12.8677 110.748 11.2063 109.154 10.0813C108.863 9.88336 108.383 9.62815 107.717 9.31565Z" fill="white"/>
<path d="M95.958 23.3156C95.9371 23.0656 95.8017 22.8781 95.5517 22.7531C95.3121 22.6281 95.109 22.5031 94.9423 22.3781C93.7444 21.5656 92.8955 20.576 92.3955 19.4094C91.9059 18.2323 91.6298 16.9875 91.5673 15.675C91.4423 12.7062 92.2444 10.4458 93.9736 8.89373C94.5882 8.34165 95.2965 7.89373 96.0986 7.54998C96.9007 7.19581 97.7236 6.90935 98.5673 6.6906C98.8277 6.63852 99.0205 6.76873 99.1455 7.08123L101.395 12.3625C101.5 12.6437 101.463 12.8208 101.286 12.8937H101.255L94.8486 15.3781C94.7236 15.4406 94.6715 15.5396 94.6923 15.675C95.2027 17.9875 96.0569 19.4719 97.2548 20.1281C98.4527 20.7739 99.6455 20.8677 100.833 20.4094C101.041 20.3156 101.171 20.3312 101.224 20.4562C101.286 20.5812 101.25 20.675 101.114 20.7375C100.27 21.1646 99.4632 21.6021 98.6923 22.05C97.9319 22.4979 97.2496 22.9666 96.6455 23.4562C96.5517 23.5187 96.4111 23.5396 96.2236 23.5187C96.0465 23.4979 95.958 23.4302 95.958 23.3156ZM94.5048 14.4875C94.5152 14.5708 94.5517 14.6385 94.6142 14.6906C94.6767 14.7323 94.7548 14.7323 94.8486 14.6906L98.1767 13.4406C98.333 13.3781 98.3798 13.2687 98.3173 13.1125L96.4111 8.4406C96.3173 8.21144 96.1298 8.18019 95.8486 8.34685C95.2444 8.70102 94.833 9.50831 94.6142 10.7687C94.3955 12.0291 94.359 13.2687 94.5048 14.4875Z" fill="white"/>
<path d="M85.9638 23.3156C85.943 23.0656 85.8076 22.8781 85.5576 22.7531C85.318 22.6281 85.1149 22.5031 84.9482 22.3781C83.7503 21.5656 82.9013 20.576 82.4013 19.4094C81.9117 18.2323 81.6357 16.9875 81.5732 15.675C81.4482 12.7062 82.2503 10.4458 83.9794 8.89373C84.594 8.34165 85.3024 7.89373 86.1044 7.54998C86.9065 7.19581 87.7294 6.90935 88.5732 6.6906C88.8336 6.63852 89.0263 6.76873 89.1513 7.08123L91.4013 12.3625C91.5055 12.6437 91.469 12.8208 91.2919 12.8937H91.2607L84.8544 15.3781C84.7294 15.4406 84.6774 15.5396 84.6982 15.675C85.2086 17.9875 86.0628 19.4719 87.2607 20.1281C88.4586 20.7739 89.6513 20.8677 90.8388 20.4094C91.0471 20.3156 91.1774 20.3312 91.2294 20.4562C91.2919 20.5812 91.2555 20.675 91.1201 20.7375C90.2763 21.1646 89.469 21.6021 88.6982 22.05C87.9378 22.4979 87.2555 22.9666 86.6513 23.4562C86.5576 23.5187 86.4169 23.5396 86.2294 23.5187C86.0524 23.4979 85.9638 23.4302 85.9638 23.3156ZM84.5107 14.4875C84.5211 14.5708 84.5576 14.6385 84.6201 14.6906C84.6826 14.7323 84.7607 14.7323 84.8544 14.6906L88.1826 13.4406C88.3388 13.3781 88.3857 13.2687 88.3232 13.1125L86.4169 8.4406C86.3232 8.21144 86.1357 8.18019 85.8544 8.34685C85.2503 8.70102 84.8388 9.50831 84.6201 10.7687C84.4013 12.0291 84.3649 13.2687 84.5107 14.4875Z" fill="white"/>
<path d="M79.5637 7.08136H82.2668C82.4335 7.08136 82.5168 7.1647 82.5168 7.33136V8.30011C82.5168 8.46678 82.4335 8.55011 82.2668 8.55011H80.3762C80.3033 8.55011 80.2356 8.58136 80.1731 8.64386C80.121 8.70636 80.1054 8.76886 80.1262 8.83136C80.1887 9.4147 80.1731 10.2272 80.0793 11.2689L78.5012 27.7064C78.4595 28.0605 78.3554 28.2376 78.1887 28.2376C78.022 28.248 77.9179 28.0605 77.8762 27.6751C77.6158 24.4876 77.3502 21.3053 77.0793 18.1282C76.8085 14.9512 76.522 11.7689 76.22 8.58136H74.4075C74.2512 8.58136 74.1731 8.50845 74.1731 8.36261C74.1627 8.20636 74.22 8.11782 74.345 8.09699C75.022 7.9824 75.5845 7.63345 76.0325 7.05011C76.4804 6.46678 76.6731 5.70636 76.6106 4.76886C76.5377 3.2897 76.7304 2.05011 77.1887 1.05011C77.647 0.039695 78.5637 -0.241555 79.9387 0.206362C80.6991 0.466778 81.3918 0.695945 82.0168 0.893862C82.6522 1.08136 83.1002 0.971987 83.3606 0.565737C83.4856 0.346987 83.6002 0.253237 83.7043 0.284487C83.8085 0.315737 83.7929 0.518862 83.6575 0.893862C83.2825 2.08136 82.7929 2.88344 82.1887 3.30011C81.595 3.70636 80.6679 3.6074 79.4075 3.00324C78.1887 2.44074 77.47 2.72199 77.2512 3.84699C77.0429 4.96157 77.272 5.69074 77.9387 6.03449C78.5845 6.38865 79.0064 6.68032 79.2043 6.90949C79.3189 7.02407 79.4387 7.08136 79.5637 7.08136Z" fill="white"/>
<path d="M60.3263 2.34681C60.1909 2.20097 60.1857 2.06035 60.3107 1.92493C60.4461 1.78951 60.6128 1.81556 60.8107 2.00306C61.0503 2.29472 61.2951 2.60722 61.5451 2.94056C61.8055 3.27389 62.0242 3.61764 62.2013 3.97181C62.2534 4.07597 62.3263 4.12806 62.4201 4.12806C62.5242 4.12806 62.6024 4.08639 62.6545 4.00306C63.269 2.96139 64.1232 2.12285 65.217 1.48743C66.3107 0.841597 67.493 0.539514 68.7638 0.58118C69.0034 0.591597 69.1284 0.695764 69.1388 0.89368C69.1492 1.08118 69.0242 1.17493 68.7638 1.17493C67.7326 1.17493 66.9045 1.47181 66.2795 2.06556C65.6649 2.65931 65.3576 3.74264 65.3576 5.31556L65.342 18.8468C65.342 19.1801 65.4201 19.3937 65.5763 19.4874L66.7013 20.1281C66.9617 20.2218 67.3211 19.9718 67.7795 19.3781C67.894 19.2218 68.0347 19.1906 68.2013 19.2843C68.368 19.3676 68.3628 19.5031 68.1857 19.6906C67.092 20.9093 66.2534 22.1072 65.6701 23.2843C65.5451 23.5031 65.3576 23.5031 65.1076 23.2843C64.5972 22.6281 64.0711 22.1124 63.5295 21.7374C62.9878 21.352 62.2274 21.0603 61.2482 20.8624C61.0815 20.8416 60.993 20.7687 60.9826 20.6437C60.9826 20.5083 61.0399 20.4145 61.1545 20.3624C61.4149 20.2687 61.6492 20.0968 61.8576 19.8468C62.0763 19.5864 62.1857 19.1593 62.1857 18.5656L62.1701 8.06556C62.1701 6.56556 62.0086 5.38326 61.6857 4.51868C61.3628 3.6541 60.9097 2.93014 60.3263 2.34681Z" fill="white"/>
<path d="M54.7065 20.6751C54.1752 21.0813 53.5919 21.5292 52.9565 22.0188C52.321 22.498 51.7325 22.9407 51.1908 23.3469C51.0033 23.4928 50.8523 23.5553 50.7377 23.5344C50.6335 23.5136 50.5919 23.4199 50.6127 23.2532C50.6127 23.0344 50.2898 22.6178 49.644 22.0032C47.946 20.4094 47.1283 18.3365 47.1908 15.7844C47.2533 13.5969 48.269 11.748 50.2377 10.2376C50.8419 9.77923 51.4044 9.29486 51.9252 8.78444C52.4565 8.27402 52.9252 7.65423 53.3315 6.92507C53.4981 6.60215 53.7273 6.59173 54.019 6.89382C55.6023 8.68548 57.1856 9.74277 58.769 10.0657C59.269 10.1594 59.321 10.3574 58.9252 10.6594C58.4356 11.0136 58.17 11.4511 58.1283 11.9719V12.0032L58.1752 19.1438C58.1752 19.623 58.3471 19.9511 58.6908 20.1282C59.045 20.3053 59.4252 20.1699 59.8315 19.7219C59.9877 19.5449 60.1335 19.5032 60.269 19.5969C60.4148 19.6803 60.42 19.8365 60.2846 20.0657C59.9096 20.6282 59.545 21.1803 59.1908 21.7219C58.8471 22.2636 58.5554 22.8261 58.3158 23.4094L58.3002 23.4251C58.1544 23.6646 57.9773 23.6646 57.769 23.4251C57.6544 23.3001 57.519 23.2167 57.3627 23.1751C56.1752 22.9146 55.4252 22.1282 55.1127 20.8157C55.0919 20.7532 55.0398 20.6907 54.9565 20.6282C54.8627 20.6178 54.7794 20.6334 54.7065 20.6751ZM54.8783 11.4719C54.2325 11.2949 53.4773 10.7949 52.6127 9.97194C52.196 9.47194 51.8627 9.42507 51.6127 9.83132C50.5085 11.4771 50.0762 13.2949 50.3158 15.2844C50.6492 18.1282 51.6492 19.8834 53.3158 20.5501C53.3262 20.5501 53.3367 20.5553 53.3471 20.5657C53.7742 20.7011 54.2898 20.4459 54.894 19.8001C54.9356 19.7376 54.9565 19.6803 54.9565 19.6282C54.946 19.4719 54.9408 19.2271 54.9408 18.8938L55.0815 11.7219C55.0815 11.5969 55.0137 11.5136 54.8783 11.4719Z" fill="white"/>
<path d="M41.713 19.0188L41.7287 12.5032C41.7287 10.7532 41.4109 9.78442 40.7755 9.59692C40.7026 9.54484 40.6662 9.48234 40.6662 9.40942C40.6662 9.32609 40.7026 9.25317 40.7755 9.19067C41.7026 8.52401 42.4682 7.58651 43.0724 6.37817C43.1141 6.28442 43.187 6.23755 43.2912 6.23755C43.3953 6.23755 43.4734 6.28442 43.5255 6.37817C44.0776 7.57609 44.8693 8.50838 45.9005 9.17505C45.9734 9.23755 46.0099 9.31567 46.0099 9.40942C46.0099 9.49276 45.9682 9.55526 45.8849 9.59692C45.1974 9.79484 44.8641 10.7636 44.8849 12.5032V18.0032C44.8849 19.0761 45.0828 19.7323 45.4787 19.9719C45.9162 20.2636 46.2859 20.149 46.588 19.6282C46.7026 19.4303 46.8328 19.3886 46.9787 19.5032C47.1349 19.6073 47.1349 19.7844 46.9787 20.0344C46.6662 20.5136 46.3693 21.0032 46.088 21.5032C45.8172 22.0032 45.5412 22.4928 45.2599 22.9719C45.0828 23.274 44.838 23.3313 44.5255 23.1438C42.9734 22.4042 42.062 21.4667 41.7912 20.3313C41.7703 20.248 41.7078 20.1907 41.6037 20.1594C41.4995 20.1282 41.4266 20.1438 41.3849 20.2063C40.7912 20.6855 40.1974 21.1907 39.6037 21.7219C39.0099 22.2428 38.6037 22.7219 38.3849 23.1594C38.2078 23.4094 38.0151 23.4042 37.8068 23.1438C37.2339 22.4771 36.6714 21.9667 36.1193 21.6125C35.5776 21.2584 34.8537 20.9719 33.9474 20.7532C33.7495 20.6803 33.6557 20.5917 33.6662 20.4875C33.6766 20.3834 33.7443 20.3053 33.8693 20.2532C34.1297 20.1594 34.3641 19.9875 34.5724 19.7375C34.7912 19.4771 34.9005 19.05 34.9005 18.4563V11.8469C34.9005 10.7844 34.7026 10.1334 34.3068 9.8938C33.838 9.61255 33.463 9.72713 33.1818 10.2375C33.0672 10.4355 32.937 10.4771 32.7912 10.3625C32.6453 10.248 32.6505 10.0657 32.8068 9.81567C33.1089 9.34692 33.3953 8.86255 33.6662 8.36255C33.9474 7.86255 34.2339 7.36255 34.5255 6.86255C34.7026 6.55005 34.937 6.49276 35.2287 6.69067H35.2443C37.1297 7.68026 38.0724 9.03442 38.0724 10.7532L38.0412 18.7532C38.0412 19.0553 38.1193 19.2584 38.2755 19.3625L39.6193 20.4719C39.7234 20.5657 39.8432 20.5761 39.9787 20.5032C40.8224 19.8365 41.3693 19.4094 41.6193 19.2219C41.6818 19.1803 41.713 19.1125 41.713 19.0188Z" fill="white"/>
<path d="M26.1259 3.51875C27.5842 3.13334 28.9228 3.22188 30.1415 3.78438C30.9644 4.18021 31.6051 4.72709 32.0634 5.425C32.5217 6.12292 32.704 6.90417 32.6103 7.76875C32.5165 8.63334 32.2301 9.27396 31.7509 9.69063C31.2822 10.1073 30.8967 10.4302 30.5947 10.6594C30.2926 10.8885 30.0061 11.1281 29.7353 11.3781C29.204 11.8781 29.1624 12.326 29.6103 12.7219C31.0165 13.9406 31.8238 14.9667 32.0322 15.8C32.2509 16.6333 32.1051 17.3677 31.5947 18.0031C30.8863 18.8781 30.1311 19.7115 29.329 20.5031C28.5374 21.2844 27.7509 22.076 26.9697 22.8781C26.5842 23.2531 26.3499 23.2323 26.2665 22.8156C26.1311 22.2427 25.5165 21.7427 24.4228 21.3156C23.3394 20.8781 22.1936 20.4615 20.9853 20.0656C20.7665 19.9823 20.7509 19.826 20.9384 19.5969C21.2197 19.3052 21.5113 19.0135 21.8134 18.7219C22.1155 18.4302 22.4176 18.1438 22.7197 17.8625C23.1884 17.425 23.3447 17.0396 23.1884 16.7063C23.0426 16.3625 22.7665 15.9771 22.3603 15.55C21.3394 14.4875 20.8447 13.4927 20.8759 12.5656C20.9176 11.6385 21.2561 10.8208 21.8915 10.1125C22.4853 9.45625 23.1519 8.85729 23.8915 8.31563C24.6415 7.76354 25.3499 7.14896 26.0165 6.47188C26.0999 6.39896 26.2092 6.425 26.3447 6.55C27.7405 7.78959 28.9019 8.41459 29.829 8.425C30.7665 8.43542 31.3759 8.15938 31.6572 7.59688C31.9384 7.02396 31.9124 6.43021 31.579 5.81563C31.2457 5.19063 30.704 4.675 29.954 4.26875C28.8186 3.70625 27.5738 3.65417 26.2197 4.1125C25.9488 4.21667 25.7874 4.15938 25.7353 3.94063C25.6832 3.72188 25.8134 3.58125 26.1259 3.51875ZM23.6259 17.55C23.5217 17.7271 23.553 17.8625 23.7197 17.9563C24.4592 18.3 25.1988 18.6385 25.9384 18.9719C26.678 19.3052 27.4228 19.6281 28.1728 19.9406C28.6936 20.1698 29.2144 19.8729 29.7353 19.05C30.3811 18.0188 29.5269 16.6646 27.1728 14.9875C26.8082 14.7688 26.3603 14.8729 25.829 15.3L23.6259 17.55ZM25.7822 14.3C25.9072 14.3938 26.0217 14.3885 26.1259 14.2844L29.0322 11.4406C29.1259 11.3365 29.1519 11.2427 29.1103 11.1594C29.079 11.0656 29.0009 11.0135 28.8759 11.0031C28.2822 10.9406 27.6259 10.7115 26.9072 10.3156C25.7509 9.65938 24.9957 9.21667 24.6415 8.9875C24.2874 8.75834 23.8342 8.96667 23.2822 9.6125C22.5842 10.4354 22.579 11.2219 23.2665 11.9719C23.9644 12.7219 24.803 13.4979 25.7822 14.3Z" fill="white"/>
<path d="M15.4912 19.2063L15.3819 10.6438C15.3819 10.4459 15.3506 10.2844 15.2881 10.1594C15.0381 9.75317 14.8246 9.65422 14.6475 9.86255L14.0225 10.5032C13.8558 10.6907 13.6944 10.7115 13.5381 10.5657C13.3923 10.4198 13.4183 10.2167 13.6162 9.9563C14.0746 9.38338 14.486 8.81047 14.8506 8.23755C15.2152 7.66463 15.5902 7.09692 15.9756 6.53442C16.1423 6.33651 16.335 6.34172 16.5537 6.55005C16.9912 7.0813 17.4183 7.55005 17.835 7.9563C18.2517 8.35213 18.8454 8.77401 19.6162 9.22192C19.835 9.30526 19.9287 9.40422 19.8975 9.5188C19.8767 9.63338 19.8089 9.69588 19.6944 9.7063C19.4235 9.81047 19.1839 9.99276 18.9756 10.2532C18.7673 10.5032 18.6631 10.925 18.6631 11.5188V18.1282C18.6631 19.1907 18.861 19.8417 19.2569 20.0813C19.7152 20.3521 20.0902 20.2375 20.3819 19.7375C20.486 19.5396 20.611 19.498 20.7569 19.6125C20.9131 19.7167 20.9131 19.8938 20.7569 20.1438C20.4444 20.6334 20.1527 21.1282 19.8819 21.6282C19.611 22.1178 19.335 22.6073 19.0537 23.0969C18.8558 23.3886 18.611 23.4511 18.3194 23.2844C17.3819 22.8365 16.6735 22.2896 16.1944 21.6438C15.7256 20.998 15.4912 20.1855 15.4912 19.2063ZM17.7569 0.659424C18.9131 0.659424 19.4392 1.21672 19.335 2.3313C19.2725 2.8938 18.9183 3.46151 18.2725 4.03442C17.6371 4.59692 17.1319 4.87297 16.7569 4.86255C16.3819 4.86255 16.0954 4.56567 15.8975 3.97192C15.6996 3.37817 15.6214 2.8313 15.6631 2.3313C15.6944 1.85213 15.9235 1.4563 16.3506 1.1438C16.7881 0.820882 17.2569 0.659424 17.7569 0.659424Z" fill="white"/>
<path d="M1.98242 21.2533C1.78451 21.3262 1.67513 21.2949 1.6543 21.1595C1.63346 21.0137 1.71159 20.8574 1.88867 20.6908C3.08659 19.097 3.68555 17.597 3.68555 16.1908C3.69596 14.7845 3.20117 13.571 2.20117 12.5501C0.524089 10.8314 -0.194661 9.48244 0.0449219 8.50327C0.284505 7.51369 1.0918 6.33139 2.4668 4.95639C2.60221 4.81056 2.72201 4.78452 2.82617 4.87827C2.94076 4.97202 2.93555 5.09181 2.81055 5.23764C2.08138 6.11264 2.0293 6.86785 2.6543 7.50327C3.41471 8.2741 4.00846 8.9616 4.43555 9.56577C4.51888 9.69077 4.63346 9.71681 4.7793 9.64389C5.69596 9.14389 6.56576 8.61264 7.38867 8.05014C8.22201 7.47723 9.04492 6.87306 9.85742 6.23764C9.94076 6.16473 10.0293 6.14389 10.123 6.17514C10.2168 6.20639 10.2689 6.27931 10.2793 6.39389C10.373 6.96681 10.5814 7.45639 10.9043 7.86264C11.2272 8.26889 11.5605 8.66473 11.9043 9.05014C13.1647 10.5501 13.7324 12.2168 13.6074 14.0501C13.4408 16.3314 12.6699 18.0554 11.2949 19.222C10.6074 19.8158 9.9043 20.4824 9.18555 21.222C8.4668 21.9512 7.87305 22.6439 7.4043 23.3001C7.28971 23.4251 7.17513 23.446 7.06055 23.3626C6.47721 22.9876 5.69596 22.472 4.7168 21.8158C3.73763 21.1595 2.82617 20.972 1.98242 21.2533ZM4.81055 18.6751C5.37305 18.8835 5.98242 19.1856 6.63867 19.5814C7.35742 20.0085 7.99805 20.3887 8.56055 20.722C8.69596 20.8054 8.81055 20.7741 8.9043 20.6283C9.20638 20.1179 9.55534 19.4304 9.95117 18.5658C10.347 17.7012 10.5605 16.7168 10.5918 15.6126C10.6022 14.4772 10.3835 13.4564 9.93555 12.5501C9.48763 11.6439 8.99284 10.7793 8.45117 9.95639C7.84701 9.08139 6.72201 9.11785 5.07617 10.0658C4.93034 10.1387 4.89909 10.2533 4.98242 10.4095C5.86784 11.9616 6.19076 13.4043 5.95117 14.7376C5.73242 16.0085 5.30534 17.1908 4.66992 18.2845C4.63867 18.3366 4.63346 18.4095 4.6543 18.5033C4.67513 18.597 4.72721 18.6543 4.81055 18.6751Z" fill="white"/>
</svg>
