<svg width="67" height="56" viewBox="0 0 67 56" fill="none" xmlns="http://www.w3.org/2000/svg">
<g clip-path="url(#clip0_3257_189126)">
<path d="M64.1036 6.90342C62.3803 5.53105 59.9383 4.30694 56.8457 3.26496C50.5969 1.15946 42.3058 0 33.4997 0C24.6937 0 16.4031 1.15946 10.1538 3.26445C7.06069 4.30643 4.61919 5.53053 2.89589 6.90291C0.974348 8.43381 0 10.1053 0 11.8712C0 13.637 0.974348 15.3085 2.89589 16.8394C3.93632 17.668 5.24007 18.4421 6.78919 19.1547C5.58944 20.3101 4.97983 21.5532 4.97983 22.8599C4.97983 24.3995 5.82252 25.8509 7.48434 27.175C8.95662 28.3478 11.0395 29.3924 13.6752 30.2804C13.9411 30.3702 14.2126 30.4569 14.4871 30.5426C12.584 31.8698 12.0856 33.2222 12.0856 34.2739C12.0856 35.8705 13.2331 38.1597 18.6996 40.0015C19.0131 40.1071 19.3358 40.2087 19.6652 40.3067C19.5459 40.6212 19.5003 40.9198 19.5003 41.1907C19.5003 42.3153 20.2707 43.9149 23.9427 45.1518C26.5087 46.0163 29.9025 46.4924 33.4992 46.4924C37.0959 46.4924 40.4897 46.0163 43.0557 45.1518C46.7272 43.9149 47.4982 42.3153 47.4982 41.1907C47.4982 40.9198 47.4526 40.6212 47.3332 40.3067C47.6626 40.2087 47.9854 40.1071 48.2989 40.0015C53.7654 38.1597 54.9129 35.8705 54.9129 34.2739C54.9129 33.2222 54.4144 31.8693 52.5113 30.5426C52.7859 30.4569 53.0574 30.3702 53.3233 30.2804C55.9589 29.3924 58.0418 28.3478 59.5141 27.175C61.1759 25.8514 62.0186 24.3995 62.0186 22.8599C62.0186 21.5532 61.409 20.3101 60.2093 19.1547C61.7584 18.4416 63.0621 17.668 64.1026 16.8394C66.0241 15.309 66.9985 13.6375 66.9985 11.8712C66.9985 10.1048 66.0241 8.43381 64.1026 6.90291L64.1036 6.90342ZM45.736 41.1912C45.736 42.6333 40.9692 44.7276 33.4997 44.7276C26.0303 44.7276 21.2635 42.6328 21.2635 41.1912C21.2635 41.0558 21.306 40.9142 21.3885 40.769C24.9104 41.6165 29.1049 42.0736 33.4997 42.0736C37.8946 42.0736 42.0891 41.6165 45.611 40.769C45.6934 40.9142 45.736 41.0552 45.736 41.1912ZM23.2921 39.3802C25.3653 38.4403 28.9251 37.6548 33.4992 37.6548C38.0733 37.6548 41.6337 38.4403 43.7063 39.3802C40.6506 39.9856 37.1523 40.3088 33.4992 40.3088C29.8462 40.3088 26.3474 39.9856 23.2921 39.3802ZM53.1506 34.2739C53.1506 35.6709 51.1271 37.1864 47.7369 38.3285C47.2354 38.4972 46.7108 38.6558 46.1673 38.8045C45.4911 38.2577 44.4978 37.7154 43.0557 37.2295C40.4897 36.3651 37.0959 35.889 33.4992 35.889C29.9025 35.889 26.5087 36.3651 23.9427 37.2295C22.5002 37.7154 21.5074 38.2571 20.8312 38.8045C20.2876 38.6558 19.7631 38.4972 19.2616 38.3285C15.8718 37.1864 13.8478 35.6709 13.8478 34.2739C13.8478 33.2499 14.9364 32.1623 16.8523 31.2044C21.6529 32.4044 27.4324 33.0534 33.4992 33.0534C39.5661 33.0534 45.3456 32.4049 50.1461 31.2044C52.062 32.1623 53.1506 33.2499 53.1506 34.2739ZM19.7861 30.0496C23.5119 28.8809 28.3524 28.2396 33.4992 28.2396C38.6461 28.2396 43.4866 28.8809 47.2123 30.0496C43.0993 30.8576 38.4012 31.2886 33.4992 31.2886C28.5973 31.2886 23.8992 30.8576 19.7861 30.0496ZM60.2569 22.8599C60.2569 24.9079 57.5249 27.0027 52.7618 28.6074C51.9888 28.8675 51.1768 29.1102 50.3306 29.3349C49.7307 29.0656 49.0565 28.8019 48.2989 28.5464C44.3328 27.2104 39.0769 26.4742 33.4992 26.4742C27.9216 26.4742 22.6656 27.2099 18.6996 28.5464C17.9419 28.8014 17.2678 29.0656 16.6679 29.3349C15.8216 29.1102 15.0097 28.8681 14.2366 28.6074C9.47351 27.0027 6.74155 24.9079 6.74155 22.8599C6.74155 21.8682 7.38445 20.8652 8.58625 19.912C9.08879 20.1059 9.61029 20.2947 10.1528 20.4773C16.402 22.5823 24.6927 23.7418 33.4987 23.7418C42.3047 23.7418 50.5954 22.5823 56.8446 20.4773C57.3877 20.2947 57.9092 20.1059 58.4112 19.912C59.6135 20.8647 60.2559 21.8677 60.2559 22.8599H60.2569ZM10.4473 18.7125C11.5062 18.1435 12.7751 17.6048 14.2366 17.1123C19.3686 15.3834 26.2095 14.4312 33.4992 14.4312C40.7889 14.4312 47.6298 15.3834 52.7618 17.1123C54.2233 17.6048 55.4922 18.1435 56.5511 18.7125C56.462 18.7433 56.3739 18.7746 56.2832 18.8048C50.2107 20.8508 42.1188 21.9775 33.4992 21.9775C24.8797 21.9775 16.7878 20.8508 10.7153 18.8048C10.6246 18.7746 10.5365 18.7433 10.4473 18.7125ZM58.6463 17.9152C57.2621 16.9959 55.4779 16.1653 53.3238 15.4393C48.0156 13.6509 40.9749 12.6664 33.4992 12.6664C26.0236 12.6664 18.9834 13.6514 13.6747 15.4393C11.5206 16.1653 9.73631 16.9959 8.35214 17.9152C4.13201 16.1401 1.76172 13.992 1.76172 11.8712C1.76172 9.38139 5.02491 6.85417 10.7153 4.93746C16.7878 2.89147 24.8797 1.76485 33.4992 1.76485C42.1188 1.76485 50.2107 2.89147 56.2832 4.93746C61.973 6.85417 65.2367 9.38139 65.2367 11.8712C65.2367 13.992 62.8664 16.1401 58.6463 17.9152Z" fill="#E5FE8D"/>
<path d="M39.6789 49.4838C38.0155 48.9236 35.821 48.6147 33.4998 48.6147C31.1787 48.6147 28.9841 48.9236 27.3208 49.4838C24.8055 50.3314 24.2773 51.4867 24.2773 52.3076C24.2773 53.1284 24.8055 54.2838 27.3208 55.1308C28.9841 55.6911 31.1787 55.9999 33.4998 55.9999C35.821 55.9999 38.0155 55.6911 39.6789 55.1308C42.1942 54.2833 42.7223 53.1279 42.7223 52.3076C42.7223 51.4872 42.1942 50.3314 39.6789 49.4838ZM39.1169 53.4578C37.6298 53.9585 35.6345 54.2345 33.4998 54.2345C31.3652 54.2345 29.3699 53.9585 27.8827 53.4578C26.3526 52.9422 26.0401 52.4189 26.0401 52.3071C26.0401 52.1952 26.3531 51.6719 27.8827 51.1563C29.3699 50.6551 31.3647 50.3791 33.4998 50.3791C35.635 50.3791 37.6298 50.6551 39.1169 51.1563C40.6471 51.6719 40.9596 52.1952 40.9596 52.3071C40.9596 52.4189 40.6471 52.9422 39.1169 53.4578Z" fill="#E5FE8D"/>
</g>
<defs>
<clipPath id="clip0_3257_189126">
<rect width="67" height="56" fill="white"/>
</clipPath>
</defs>
</svg>
