<svg width="153" height="25" viewBox="0 0 153 25" fill="none" xmlns="http://www.w3.org/2000/svg">
<path d="M143.934 24.7045C142.525 24.7045 141.267 24.3446 140.161 23.6249C139.063 22.8976 138.199 21.8635 137.57 20.5226C136.949 19.1742 136.639 17.5567 136.639 15.6704C136.639 13.784 136.953 12.1704 137.582 10.8295C138.218 9.48855 139.089 8.46203 140.195 7.74991C141.302 7.03779 142.555 6.68173 143.957 6.68173C145.04 6.68173 145.911 6.86355 146.57 7.22718C147.237 7.58324 147.752 7.99991 148.116 8.47718C148.487 8.95446 148.775 9.37491 148.98 9.73855H149.184V1.09082H152.582V24.3635H149.264V21.6476H148.98C148.775 22.0189 148.48 22.4431 148.093 22.9204C147.714 23.3976 147.192 23.8143 146.525 24.1704C145.858 24.5264 144.995 24.7045 143.934 24.7045ZM144.684 21.8067C145.661 21.8067 146.487 21.5492 147.161 21.034C147.843 20.5113 148.358 19.7878 148.707 18.8635C149.063 17.9393 149.241 16.8635 149.241 15.6363C149.241 14.4242 149.067 13.3635 148.718 12.4545C148.37 11.5454 147.858 10.837 147.184 10.3295C146.51 9.82188 145.677 9.56809 144.684 9.56809C143.661 9.56809 142.809 9.83324 142.127 10.3635C141.446 10.8939 140.93 11.6173 140.582 12.534C140.241 13.4507 140.07 14.4848 140.07 15.6363C140.07 16.8029 140.245 17.8522 140.593 18.784C140.942 19.7158 141.457 20.4545 142.139 20.9999C142.828 21.5378 143.677 21.8067 144.684 21.8067Z" fill="white"/>
<path d="M127.102 24.7157C125.382 24.7157 123.901 24.3483 122.659 23.6135C121.424 22.871 120.469 21.8294 119.795 20.4885C119.128 19.14 118.795 17.5604 118.795 15.7498C118.795 13.9619 119.128 12.3862 119.795 11.0225C120.469 9.65891 121.409 8.59452 122.613 7.82937C123.825 7.06422 125.242 6.68164 126.863 6.68164C127.848 6.68164 128.803 6.84452 129.727 7.17028C130.651 7.49603 131.481 8.0074 132.215 8.70437C132.95 9.40134 133.53 10.3066 133.954 11.4203C134.378 12.5263 134.59 13.871 134.59 15.4544V16.6589H120.715V14.1135H131.261C131.261 13.2195 131.079 12.4279 130.715 11.7385C130.352 11.0415 129.84 10.4922 129.181 10.0907C128.53 9.68922 127.765 9.48846 126.886 9.48846C125.931 9.48846 125.098 9.72331 124.386 10.193C123.681 10.6551 123.136 11.2612 122.749 12.0112C122.371 12.7536 122.181 13.5604 122.181 14.4316V16.4203C122.181 17.5869 122.386 18.5794 122.795 19.3976C123.212 20.2157 123.791 20.8407 124.534 21.2725C125.276 21.6968 126.143 21.9089 127.136 21.9089C127.78 21.9089 128.367 21.818 128.897 21.6362C129.428 21.4468 129.886 21.1665 130.272 20.7953C130.659 20.4241 130.954 19.9657 131.159 19.4203L134.374 19.9998C134.117 20.9468 133.655 21.7763 132.988 22.4885C132.329 23.193 131.499 23.7422 130.499 24.1362C129.507 24.5226 128.374 24.7157 127.102 24.7157Z" fill="white"/>
<path d="M109.281 24.7157C107.562 24.7157 106.081 24.3483 104.838 23.6135C103.603 22.871 102.649 21.8294 101.975 20.4885C101.308 19.14 100.975 17.5604 100.975 15.7498C100.975 13.9619 101.308 12.3862 101.975 11.0225C102.649 9.65891 103.588 8.59452 104.793 7.82937C106.005 7.06422 107.422 6.68164 109.043 6.68164C110.028 6.68164 110.982 6.84452 111.906 7.17028C112.831 7.49603 113.66 8.0074 114.395 8.70437C115.13 9.40134 115.709 10.3066 116.134 11.4203C116.558 12.5263 116.77 13.871 116.77 15.4544V16.6589H102.895V14.1135H113.441C113.441 13.2195 113.259 12.4279 112.895 11.7385C112.531 11.0415 112.02 10.4922 111.361 10.0907C110.709 9.68922 109.944 9.48846 109.066 9.48846C108.111 9.48846 107.278 9.72331 106.566 10.193C105.861 10.6551 105.316 11.2612 104.929 12.0112C104.55 12.7536 104.361 13.5604 104.361 14.4316V16.4203C104.361 17.5869 104.566 18.5794 104.975 19.3976C105.391 20.2157 105.971 20.8407 106.713 21.2725C107.456 21.6968 108.323 21.9089 109.316 21.9089C109.959 21.9089 110.547 21.818 111.077 21.6362C111.607 21.4468 112.066 21.1665 112.452 20.7953C112.838 20.4241 113.134 19.9657 113.338 19.4203L116.554 19.9998C116.297 20.9468 115.834 21.7763 115.168 22.4885C114.509 23.193 113.679 23.7422 112.679 24.1362C111.687 24.5226 110.554 24.7157 109.281 24.7157Z" fill="white"/>
<path d="M99.9007 6.90909V9.63637H90.0371V6.90909H99.9007ZM92.7417 24.3636V4.88636C92.7417 3.79545 92.9803 2.89015 93.4576 2.17046C93.9348 1.44318 94.5674 0.901516 95.3553 0.545456C96.1432 0.181819 96.9992 0 97.9235 0C98.6053 0 99.1886 0.0568186 99.6735 0.170456C100.158 0.276516 100.518 0.375001 100.753 0.46591L99.9576 3.21591C99.7985 3.17046 99.5939 3.11743 99.3439 3.05682C99.0939 2.98864 98.7909 2.95455 98.4348 2.95455C97.6091 2.95455 97.0182 3.15909 96.6621 3.56818C96.3136 3.97727 96.1394 4.56818 96.1394 5.34091V24.3636H92.7417Z" fill="white"/>
<path d="M80.4739 1.09082V24.3635H77.0762V1.09082H80.4739Z" fill="white"/>
<path d="M64.8958 24.7498C63.7897 24.7498 62.7897 24.5453 61.8958 24.1362C61.0018 23.7195 60.2935 23.1172 59.7708 22.3294C59.2556 21.5415 58.998 20.5756 58.998 19.4316C58.998 18.4468 59.1874 17.6362 59.5662 16.9998C59.945 16.3635 60.4564 15.8597 61.1003 15.4885C61.7443 15.1172 62.464 14.8369 63.2594 14.6476C64.0549 14.4582 64.8655 14.3142 65.6912 14.2157C66.7367 14.0945 67.5852 13.996 68.2367 13.9203C68.8882 13.8369 69.3617 13.7044 69.6571 13.5226C69.9526 13.3407 70.1003 13.0453 70.1003 12.6362V12.5566C70.1003 11.5642 69.82 10.7953 69.2594 10.2498C68.7064 9.70437 67.8806 9.43164 66.7821 9.43164C65.6382 9.43164 64.7367 9.68543 64.0776 10.193C63.4261 10.693 62.9753 11.2498 62.7253 11.8635L59.5321 11.1362C59.9109 10.0756 60.464 9.21952 61.1912 8.568C61.9261 7.90891 62.7708 7.43164 63.7253 7.13618C64.6799 6.83316 65.6837 6.68164 66.7367 6.68164C67.4337 6.68164 68.1723 6.76497 68.9526 6.93164C69.7405 7.09073 70.4753 7.38619 71.1571 7.818C71.8465 8.24982 72.4109 8.86725 72.8503 9.67028C73.2897 10.4657 73.5094 11.4998 73.5094 12.7726V24.3635H70.1912V21.9771H70.0549C69.8352 22.4165 69.5056 22.8483 69.0662 23.2725C68.6268 23.6968 68.0624 24.0491 67.373 24.3294C66.6837 24.6097 65.8579 24.7498 64.8958 24.7498ZM65.6344 22.0225C66.5738 22.0225 67.3768 21.8369 68.0435 21.4657C68.7177 21.0945 69.2291 20.6097 69.5776 20.0112C69.9337 19.4051 70.1117 18.7574 70.1117 18.068V15.818C69.9905 15.9392 69.7556 16.0529 69.4071 16.1589C69.0662 16.2574 68.6761 16.3445 68.2367 16.4203C67.7973 16.4885 67.3693 16.5529 66.9526 16.6135C66.5359 16.6665 66.1874 16.7119 65.9071 16.7498C65.2481 16.8332 64.6458 16.9733 64.1003 17.1703C63.5624 17.3672 63.1306 17.6513 62.8049 18.0225C62.4867 18.3862 62.3276 18.871 62.3276 19.4771C62.3276 20.318 62.6382 20.9544 63.2594 21.3862C63.8806 21.8104 64.6723 22.0225 65.6344 22.0225Z" fill="white"/>
<path d="M52.8029 17.1248V6.90894H56.212V24.3635H52.8711V21.3408H52.6893C52.2878 22.2726 51.6438 23.0491 50.7575 23.6703C49.8787 24.2839 48.784 24.5908 47.4734 24.5908C46.3522 24.5908 45.3597 24.3445 44.4961 23.8521C43.64 23.3521 42.9658 22.6135 42.4734 21.6362C41.9885 20.6589 41.7461 19.4506 41.7461 18.0112V6.90894H45.1438V17.6021C45.1438 18.7915 45.4734 19.7385 46.1325 20.443C46.7915 21.1476 47.6476 21.4998 48.7006 21.4998C49.337 21.4998 49.9696 21.3408 50.5984 21.0226C51.2347 20.7044 51.7612 20.2233 52.1779 19.5794C52.6022 18.9355 52.8105 18.1173 52.8029 17.1248Z" fill="white"/>
<path d="M38.6296 11.1703L35.5501 11.7157C35.4213 11.3218 35.2167 10.9468 34.9364 10.5907C34.6637 10.2347 34.2925 9.943 33.8228 9.71573C33.3531 9.48846 32.766 9.37482 32.0614 9.37482C31.0993 9.37482 30.2963 9.59073 29.6523 10.0225C29.0084 10.4468 28.6864 10.996 28.6864 11.6703C28.6864 12.2536 28.9023 12.7233 29.3342 13.0794C29.766 13.4354 30.4629 13.7271 31.4251 13.9544L34.1978 14.5907C35.8039 14.9619 37.0008 15.5339 37.7887 16.3066C38.5766 17.0794 38.9705 18.0832 38.9705 19.318C38.9705 20.3635 38.6675 21.2953 38.0614 22.1135C37.4629 22.9241 36.6258 23.5604 35.5501 24.0226C34.4819 24.4847 33.2433 24.7157 31.8342 24.7157C29.8796 24.7157 28.2849 24.2991 27.0501 23.4657C25.8152 22.6248 25.0576 21.4316 24.7773 19.8862L28.0614 19.3862C28.266 20.2422 28.6864 20.89 29.3228 21.3294C29.9592 21.7612 30.7887 21.9771 31.8114 21.9771C32.9251 21.9771 33.8152 21.746 34.4819 21.2839C35.1486 20.8142 35.4819 20.2422 35.4819 19.568C35.4819 19.0225 35.2773 18.5642 34.8683 18.193C34.4667 17.8218 33.8493 17.5415 33.016 17.3521L30.0614 16.7044C28.4326 16.3332 27.2281 15.7422 26.4478 14.9316C25.6751 14.121 25.2887 13.0945 25.2887 11.8521C25.2887 10.8218 25.5766 9.92028 26.1523 9.14755C26.7281 8.37482 27.5236 7.77255 28.5387 7.34073C29.5539 6.90134 30.7167 6.68164 32.0273 6.68164C33.9137 6.68164 35.3986 7.09073 36.4819 7.90891C37.5652 8.71952 38.2811 9.80664 38.6296 11.1703Z" fill="white"/>
<path d="M18.5412 24.3635V6.90894H21.9389V24.3635H18.5412ZM20.2571 4.21575C19.6662 4.21575 19.1586 4.01878 18.7344 3.62484C18.3177 3.22333 18.1094 2.74606 18.1094 2.19303C18.1094 1.63242 18.3177 1.15515 18.7344 0.761208C19.1586 0.359693 19.6662 0.158936 20.2571 0.158936C20.848 0.158936 21.3518 0.359693 21.7685 0.761208C22.1927 1.15515 22.4048 1.63242 22.4048 2.19303C22.4048 2.74606 22.1927 3.22333 21.7685 3.62484C21.3518 4.01878 20.848 4.21575 20.2571 4.21575Z" fill="white"/>
<path d="M16.3068 6.90894L9.97727 24.3635H6.34091L0 6.90894H3.64773L8.06818 20.3408H8.25L12.6591 6.90894H16.3068Z" fill="white"/>
</svg>
