<svg width="100" height="61" viewBox="0 0 100 61" fill="none" xmlns="http://www.w3.org/2000/svg">
<g clip-path="url(#clip0_3257_188926)">
<path d="M96.0097 18.5182C93.4735 14.8888 89.8511 11.6343 85.2419 8.84475C75.819 3.14087 63.3033 0 50 0C36.6967 0 24.1803 3.14087 14.7574 8.84475C10.1489 11.6343 6.5258 14.8888 3.9896 18.5182C1.34277 22.3069 0 26.3382 0 30.5003C0 34.6625 1.34277 38.6931 3.99029 42.4825C6.52649 46.1119 10.1489 49.3664 14.7581 52.1559C24.181 57.8598 36.6967 61.0007 50.0007 61.0007C63.3047 61.0007 75.8197 57.8598 85.2426 52.1559C89.8511 49.3664 93.4742 46.1119 96.0104 42.4825C98.6579 38.6938 100.001 34.6625 100.001 30.5003C100.001 26.3382 98.6572 22.3076 96.0097 18.5182ZM18.0548 30.5003C18.0548 27.3879 18.6025 24.3558 19.6147 21.4754C24.2004 20.5775 29.3377 19.8977 34.8291 19.4578C34.1889 22.5716 33.8293 25.8899 33.7602 29.3086C30.4309 29.8144 26.3867 30.1539 21.3876 30.5003C26.3874 30.8461 30.4316 31.1863 33.7602 31.6914C33.8293 35.1101 34.1896 38.4284 34.8291 41.5423C29.3377 41.1023 24.2004 40.4232 19.6147 39.5246C18.6018 36.6449 18.0548 33.6135 18.0548 30.5003ZM18.2484 39.2481C17.223 39.0319 16.2094 38.8116 15.2476 38.5732C6.34879 36.3671 1.24528 33.4243 1.24528 30.5003C1.24528 27.5763 6.34879 24.6336 15.2476 22.4275C16.2094 22.1891 17.223 21.9688 18.2484 21.7526C17.342 24.5553 16.8649 27.4932 16.8649 30.5003C16.8649 33.5075 17.3413 36.4453 18.2484 39.2481ZM65.0443 29.1014C57.3832 27.7572 53.9509 25.2337 52.158 18.8868C56.1953 18.9298 60.1496 19.0829 63.9435 19.3594C64.597 22.4268 64.962 25.7125 65.0443 29.1014ZM51.8565 17.6909C51.3089 15.3752 50.9155 12.5926 50.5953 9.24801V1.24859C54.3291 1.53475 57.8492 4.46429 60.5576 9.63187C61.8685 12.1339 62.8988 15.0226 63.6538 18.1468C59.8502 17.8773 55.8959 17.7276 51.8565 17.6909ZM49.4054 9.25009C49.0852 12.594 48.6911 15.3752 48.1442 17.6909C44.1055 17.7276 40.1511 17.878 36.3469 18.1475C37.1019 15.0233 38.1321 12.1339 39.4431 9.63256C42.1515 4.46499 45.6716 1.53545 49.4054 1.24928V9.25009ZM47.8427 18.8868C46.0498 25.2337 42.6175 27.7572 34.9564 29.1014C35.0387 25.7125 35.4044 22.4261 36.0571 19.3594C39.8511 19.0829 43.8054 18.9298 47.8427 18.8868ZM34.9564 31.8979C42.6175 33.2421 46.0498 35.7656 47.8427 42.1125C43.8054 42.0695 39.8511 41.9164 36.0571 41.64C35.4037 38.5725 35.0387 35.2868 34.9564 31.8979ZM48.1442 43.3091C48.6918 45.6248 49.0852 48.406 49.4054 51.7499V59.7514C45.6716 59.4652 42.1515 56.5357 39.4431 51.3681C38.1321 48.8661 37.1019 45.9774 36.3469 42.8532C40.1505 43.1227 44.1055 43.2724 48.1442 43.3091ZM50.5953 51.752C50.9162 48.4074 51.3096 45.6255 51.8565 43.3091C55.8952 43.2724 59.8495 43.122 63.6538 42.8525C62.8988 45.9768 61.8685 48.8661 60.5576 51.3674C57.8492 56.535 54.3291 59.4646 50.5953 59.7507V51.752ZM52.158 42.1132C53.9509 35.7663 57.3832 33.2421 65.0443 31.8986C64.962 35.2875 64.597 38.5739 63.9435 41.6413C60.1496 41.9178 56.1953 42.0702 52.158 42.1132ZM66.2398 31.6914C69.5691 31.1863 73.6133 30.8461 78.6124 30.5003C73.6126 30.1546 69.5684 29.8144 66.2398 29.3086C66.1707 25.8899 65.8111 22.5716 65.1709 19.4578C70.6623 19.8977 75.799 20.5768 80.3853 21.4754C81.3982 24.3558 81.9459 27.3872 81.9459 30.5003C81.9459 33.6135 81.3982 36.6456 80.3853 39.5252C75.7996 40.4232 70.6623 41.103 65.1709 41.5429C65.8111 38.4291 66.1707 35.1101 66.2398 31.6914ZM83.1351 30.5003C83.1351 27.4932 82.6587 24.5553 81.7516 21.7526C82.777 21.9688 83.7906 22.1891 84.7531 22.4275C93.6519 24.6336 98.7554 27.5763 98.7554 30.5003C98.7554 33.4243 93.6519 36.3671 84.7531 38.5732C83.7913 38.8116 82.777 39.0319 81.7516 39.2481C82.658 36.4453 83.1351 33.5075 83.1351 30.5003ZM98.5307 27.401C97.8482 26.6513 96.9625 25.9203 95.7725 25.2233C93.2377 23.7377 89.6263 22.4074 85.0386 21.2697C83.8272 20.9696 82.5605 20.6883 81.2516 20.4229C79.6275 16.1444 76.9986 12.2122 73.4114 8.91542C70.1776 5.94292 66.3864 3.67717 62.2634 2.16598C81.6354 5.19252 96.3789 15.1722 98.5307 27.401ZM72.6073 9.79401C75.8653 12.788 78.2992 16.3252 79.8771 20.17C75.3295 19.3129 70.2875 18.6575 64.9012 18.2376C64.1178 14.8722 63.0191 11.7639 61.6113 9.07756C59.8004 5.6235 57.6169 3.11316 55.228 1.61236C61.7793 2.59765 67.8239 5.39762 72.6073 9.79401ZM38.3894 9.07756C36.9816 11.7632 35.8829 14.8722 35.0995 18.2376C29.7132 18.6575 24.6712 19.3129 20.1236 20.17C21.7008 16.3259 24.1354 12.788 27.3934 9.79401C32.1775 5.39762 38.222 2.59765 44.7727 1.61236C42.3838 3.11316 40.2002 5.6235 38.3894 9.07756ZM37.7366 2.16598C33.6136 3.67717 29.8224 5.94292 26.5886 8.91542C23.0007 12.2122 20.3719 16.145 18.7477 20.4236C17.4388 20.6883 16.1721 20.9696 14.9607 21.2697C10.373 22.4067 6.76227 23.737 4.22676 25.2233C3.0368 25.921 2.15176 26.6513 1.46862 27.401C3.62106 15.1715 18.3646 5.19252 37.7366 2.16598ZM1.46931 33.599C2.15176 34.3487 3.03749 35.0797 4.22746 35.7774C6.76227 37.263 10.3737 38.5933 14.9613 39.731C16.1721 40.0311 17.4395 40.3124 18.7484 40.5771C20.3725 44.8557 23.0014 48.7878 26.5893 52.0846C29.8231 55.0571 33.6143 57.3228 37.7373 58.834C18.3646 55.8075 3.62106 45.8285 1.46931 33.599ZM27.3927 51.206C24.1347 48.212 21.7008 44.6748 20.1229 40.8307C24.6705 41.6878 29.7125 42.3432 35.0988 42.7631C35.8822 46.1285 36.9809 49.2368 38.3887 51.9231C40.1995 55.3772 42.3831 57.8875 44.772 59.3883C38.2207 58.4031 32.1761 55.6024 27.3927 51.206ZM61.6106 51.9224C63.0184 49.2368 64.1171 46.1278 64.9005 42.7624C70.2868 42.3425 75.3288 41.6871 79.8764 40.83C78.2992 44.6741 75.8646 48.212 72.6066 51.2053C67.8225 55.6017 61.778 58.4017 55.2273 59.387C57.6162 57.8862 59.7998 55.3765 61.6106 51.9224ZM62.2634 58.834C66.3864 57.3228 70.1776 55.0571 73.4114 52.0846C76.9993 48.7878 79.6281 44.8557 81.2516 40.5771C82.5605 40.3124 83.8272 40.0311 85.0386 39.7303C89.6263 38.5933 93.2377 37.263 95.7725 35.7767C96.9625 35.079 97.8476 34.3487 98.5307 33.5983C96.3789 45.8278 81.6354 55.8068 62.2634 58.834Z" fill="#E5FE8D"/>
</g>
<defs>
<clipPath id="clip0_3257_188926">
<rect width="100" height="61" fill="white"/>
</clipPath>
</defs>
</svg>
